<svg xmlns="http://www.w3.org/2000/svg" width="512px" height="512px"><path fill="#ebaf4b" d="M199.11 446.98a8.12 8.12 0 0 0-8.12 8.13v1.3a8.18 8.18 0 0 1-7.46 8.1l-71.93 6a24.35 24.35 0 0 0-21.1 16.57l-4.74 14.22a8.13 8.13 0 0 0 15.4 5.14l4.75-14.21a8.13 8.13 0 0 1 7.04-5.53l4.9-.4v17.57a8.12 8.12 0 1 0 16.25 0v-18.93l9.25-.77 7.42 22.27a8.13 8.13 0 1 0 15.41-5.14l-6.17-18.52 24.87-2.08a24.52 24.52 0 0 0 22.36-24.3v-1.3a8.12 8.12 0 0 0-8.13-8.12zm113.78 0c4.5 0 8.13 3.64 8.13 8.13v1.3a8.18 8.18 0 0 0 7.45 8.1l71.93 6a24.35 24.35 0 0 1 21.1 16.57l4.75 14.22a8.13 8.13 0 0 1-15.42 5.14l-4.74-14.21a8.13 8.13 0 0 0-7.04-5.53l-4.9-.4v17.57a8.12 8.12 0 1 1-16.25 0v-18.93l-9.25-.77-7.42 22.27a8.13 8.13 0 1 1-15.41-5.14l6.17-18.52-24.87-2.08a24.52 24.52 0 0 1-22.36-24.3v-1.3a8.12 8.12 0 0 1 8.13-8.12z"/><ellipse cx="256" cy="280.38" fill="#824d51" rx="195.05" ry="199.11"/><ellipse cx="256" cy="288.51" fill="#c0826c" rx="130.03" ry="174.73"/><path fill="#965a50" d="M475.43 138.16l-25.86 25.86c.94-5.82 1.48-11.73 1.48-17.74C451.05 65.5 363.72 0 256 0S60.95 65.5 60.95 146.28c0 6.01.54 11.92 1.48 17.74l-25.86-25.86S7.17 211.64 4.3 260.79a6.97 6.97 0 0 0 6.95 7.4h17.2v17.97c0 3.67 2.85 6.7 6.5 6.94 18.98 1.27 76.67 3.1 135.31-15.41-3.65-1.38 85.75-42.01 85.75-42.01s81.27 40.63 85.75 42c58.64 18.51 116.33 16.69 135.3 15.42a6.96 6.96 0 0 0 6.5-6.94V268.2h17.21c4.02 0 7.18-3.4 6.95-7.4-2.89-49.15-32.28-122.63-32.28-122.63z"/><path fill="#af6e5a" d="M448.87 62.69c27.64-15.5 37.44-37.16 40.9-50.53 1.34-5.12-3.62-9.49-8.61-7.73C418.8 26.3 317.26-5.25 266.3 81.05a11.92 11.92 0 0 1-20.62 0C194.74-5.25 93.2 26.31 30.85 4.43c-5-1.76-9.95 2.6-8.62 7.73 3.47 13.37 13.26 35.02 40.9 50.53a8.12 8.12 0 0 1 1.82 12.92 121.62 121.62 0 0 0-35.7 101.14c6.27 55.36 50.8 100.2 106.12 106.8 51.35 6.12 97.28-19.73 120.63-60.24 23.35 40.5 69.29 66.36 120.63 60.24 55.32-6.6 99.85-51.44 106.12-106.8a121.6 121.6 0 0 0-35.7-101.14 8.12 8.12 0 0 1 1.82-12.92z"/><circle cx="150.35" cy="162.54" r="81.27" fill="#ebaf4b"/><circle cx="150.35" cy="162.54" r="56.89" fill="#ffc850"/><path fill="#ebaf4b" d="M261.33 286.5l16.15-43.07a12.85 12.85 0 0 0-2.95-13.6l-7.04-7.04a16.25 16.25 0 0 0-22.98 0l-7.04 7.04a12.85 12.85 0 0 0-2.95 13.6l16.15 43.06a5.69 5.69 0 0 0 10.66 0z"/><path fill="#4b3f4e" d="M150.35 203.17a32.5 32.5 0 0 1-32.5-32.5V154.4a32.5 32.5 0 0 1 65.02 0v16.26a32.5 32.5 0 0 1-32.52 32.5z"/><circle cx="154.41" cy="150.35" r="12.19" fill="#fff"/><circle cx="361.65" cy="162.54" r="81.27" fill="#ebaf4b"/><circle cx="361.65" cy="162.54" r="56.89" fill="#ffc850"/><path fill="#4b3f4e" d="M361.65 203.17a32.5 32.5 0 0 1-32.5-32.5V154.4a32.5 32.5 0 0 1 65.02 0v16.26a32.5 32.5 0 0 1-32.52 32.5z"/><circle cx="365.71" cy="150.35" r="12.19" fill="#fff"/></svg>