<svg xmlns="http://www.w3.org/2000/svg" width="512px" height="512px"><path fill="#ebaf4b" d="M440.82 1.16c24.01-6.06 47.35 12.42 46.38 37.16-1.21 30.72-16.5 85.55-49.52 118.58L330.32 66.06c41.3-41.29 84.9-58.44 110.5-64.9z"/><path fill="#e19c46" d="M356.44 88.17c37.96-37.62 80.6-64.16 94.9-67 14.68-2.93 25.77 14.67 21.98 35.33-4.42 24.11-23.18 67-44.86 92.6l-72.02-60.93z"/><path fill="#ebaf4b" d="M71.18 1.16C47.17-4.9 23.83 13.58 24.8 38.33c1.2 30.7 16.5 85.54 49.52 118.57l107.36-90.84c-41.3-41.29-84.9-58.44-110.5-64.9z"/><path fill="#e19c46" d="M155.56 88.17c-37.96-37.62-80.6-64.16-94.9-67C45.99 18.23 34.9 35.83 38.69 56.5c4.42 24.11 23.18 67 44.86 92.6l72.02-60.93z"/><path fill="#ffc850" d="M256 41.29c-272.52 0-239.48 313.8-239.48 313.8l31.3-11.52s1.73 58.32 26.5 118.88l23.74-27.87c17.55 33.03 50.58 60.9 50.58 60.9l24.78-33.03h165.16l24.77 33.03s33.04-27.87 50.58-60.9l23.75 27.87c24.77-60.56 26.5-118.88 26.5-118.88l31.3 11.53S528.52 41.29 256 41.29z"/><path fill="#ebaf4b" d="M90.84 231.23c0-68.98 29.15-131.35 76.16-176.27C-8.7 115.3 16.52 355.1 16.52 355.1l31.3-11.53s1.73 58.32 26.5 118.88l23.74-27.87c17.55 33.03 50.58 60.9 50.58 60.9l24.78-33.03h81.51C158.97 426.7 90.83 336.7 90.83 231.23zM350.9 478.87l12.45 16.61s8.74-7.38 19.6-19.01a265.88 265.88 0 0 1-32.06 2.4z"/><path fill="#f5dcb4" d="M36.33 191.86C7.9 272.36 16.52 355.1 16.52 355.1l31.3-11.53s1.73 58.32 26.5 118.88l23.74-27.87c17.55 33.03 50.59 60.9 50.59 60.9l24.77-33.03C120.85 417.4 6.84 331.32 36.32 191.86z"/><path fill="#faebc8" d="M475.7 191.86c28.42 80.5 19.82 163.24 19.82 163.24l-31.32-11.53s-1.72 58.32-26.49 118.88l-23.74-27.87c-17.55 33.03-50.58 60.9-50.58 60.9l-24.78-33.03c52.58-45.06 166.58-131.13 137.1-270.59z"/><path fill="#f5dcb4" d="M256 437.68l-81.72 18.95a66.08 66.08 0 0 0 65.2 55.37h33.04a66.08 66.08 0 0 0 65.14-54.98L256 437.68z"/><path fill="#5d5360" d="M131.54 365.42a9.16 9.16 0 0 1-4.32-1.09 124.9 124.9 0 0 1-14.35-8.92c-4.44-3.2-5.6-9.61-2.6-14.33 3-4.74 9.03-5.96 13.48-2.77 3.86 2.78 7.95 5.32 12.14 7.55 4.8 2.55 6.74 8.75 4.34 13.85a9.66 9.66 0 0 1-8.69 5.71zm-38.79-30.68c-3.3 0-6.58-1.48-8.89-4.37-18.14-22.73-25.16-44.75-25.45-45.68-2.03-6.49 1.26-13.5 7.36-15.66 6.07-2.19 12.68 1.32 14.72 7.8.15.45 6.16 18.76 21.13 37.5a12.94 12.94 0 0 1-1.34 17.47 11.2 11.2 0 0 1-7.53 2.94zm279.45 30.68a9.65 9.65 0 0 1-8.69-5.7c-2.4-5.1-.46-11.3 4.34-13.86 4.2-2.23 8.28-4.77 12.15-7.55 4.43-3.2 10.47-1.97 13.47 2.77 3 4.72 1.84 11.13-2.6 14.33a124.9 124.9 0 0 1-14.34 8.92 9.2 9.2 0 0 1-4.33 1.1zm38.8-30.68a11.2 11.2 0 0 1-7.53-2.94 12.94 12.94 0 0 1-1.34-17.46c15.07-18.9 21.07-37.33 21.12-37.52 2.08-6.46 8.66-9.94 14.75-7.77 6.08 2.18 9.37 9.17 7.33 15.64-.28.93-7.31 22.95-25.45 45.68a11.34 11.34 0 0 1-8.89 4.37zM148.65 131.29a10.31 10.31 0 0 1-5.56-19.03 191.5 191.5 0 0 1 17.47-9.88 10.33 10.33 0 0 1 9.2 18.48 169.45 169.45 0 0 0-15.56 8.8 10.28 10.28 0 0 1-5.55 1.63zm165.15 22.6c-1.34 0-2.7-.26-4.02-.82-32.84-13.9-74.72-13.9-107.56 0a10.33 10.33 0 0 1-8.05-19.02c37.9-16.02 85.76-16.02 123.66 0a10.32 10.32 0 0 1-4.03 19.84zm49.55-22.6c-1.9 0-3.83-.53-5.55-1.62a169.45 169.45 0 0 0-15.57-8.81 10.32 10.32 0 1 1 9.21-18.48c6.02 3 11.9 6.32 17.47 9.88a10.33 10.33 0 0 1-5.56 19.03zm-48.61-19.8c-1.15 0-2.31-.16-3.47-.5-35.34-10.3-75.2-10.3-110.54 0a12.4 12.4 0 0 1-6.93-23.78c39.84-11.62 84.56-11.62 124.4 0a12.4 12.4 0 0 1-3.46 24.28z"/><path fill="#4b3f4e" d="M152.77 305.55c-15.9 0-28.9-13-28.9-28.9v-16.52c0-15.9 13-28.9 28.9-28.9 15.9 0 28.9 13 28.9 28.9v16.51c0 15.9-13 28.9-28.9 28.9z"/><path fill="#5d5360" d="M152.77 231.23c-1.4 0-2.77.22-4.13.42v40.87a16.52 16.52 0 0 0 33.04 0v-12.4c0-15.89-13-28.9-28.9-28.9z"/><circle cx="152.77" cy="251.87" r="12.39" fill="#fff"/><path fill="#4b3f4e" d="M359.23 305.55c-15.9 0-28.9-13-28.9-28.9v-16.52c0-15.9 13-28.9 28.9-28.9 15.9 0 28.9 13 28.9 28.9v16.51c0 15.9-13 28.9-28.9 28.9z"/><path fill="#5d5360" d="M359.23 231.23c-1.42 0-2.77.22-4.13.42v40.87a16.52 16.52 0 0 0 33.03 0v-12.4c0-15.89-13-28.9-28.9-28.9z"/><circle cx="359.23" cy="251.87" r="12.39" fill="#fff"/><path fill="#faebc8" d="M309.68 363.36c-22.98 0-42.99 10.03-53.68 24.9-10.7-14.87-30.7-24.9-53.68-24.9-34.2 0-61.93 22.18-61.93 49.54s27.73 49.55 61.93 49.55c22.98 0 42.99-10.03 53.68-24.9 10.7 14.87 30.7 24.9 53.68 24.9 34.2 0 61.93-22.18 61.93-49.55 0-27.36-27.73-49.54-61.93-49.54z"/><path fill="#ff8087" d="M202.88 381.51l20.91 17.44a50.3 50.3 0 0 0 64.42 0l20.92-17.44c9.26-7.72 3.86-22.8-8.2-22.8h-89.85c-12.07 0-17.47 15.08-8.2 22.8z"/><path fill="#e6646e" d="M256.82 405.48l-20.91-25.4c-4.76-5.78-5.63-14.37-3.74-21.37h-21.1c-12.06 0-17.46 15.08-8.2 22.8l20.92 17.44a50.08 50.08 0 0 0 37.4 11.22 56.82 56.82 0 0 1-4.37-4.69z"/><path fill="#d4af91" d="M306.1 470.71a72.6 72.6 0 0 1-45.86-16.13c-2.5-2-5.99-2-8.47 0a72.64 72.64 0 0 1-45.87 16.13c-40.67 0-73.77-33.34-73.77-74.32a8.26 8.26 0 1 1 16.51 0c0 31.87 25.69 57.8 57.26 57.8a56.26 56.26 0 0 0 35.53-12.5 23.15 23.15 0 0 1 29.14 0 56.22 56.22 0 0 0 35.53 12.5c31.57 0 57.25-25.93 57.25-57.8a8.26 8.26 0 1 1 16.52 0c0 40.98-33.1 74.32-73.77 74.32z"/></svg>