<svg xmlns="http://www.w3.org/2000/svg" width="512px" height="512px"><path fill="#6f6571" d="M456.4 4.17c11.12-4.25 23.07 4.14 22.55 16.03-4.17 95.8-33.01 174.94-33.01 174.94L313.8 112.56C363.47 52.75 427 15.4 456.4 4.16z"/><path fill="#c0bcc1" d="M451.19 33.24c6.79-3.8 13.7 4.35 13.04 15.57-5.33 90.49-33.26 152.53-33.26 152.53l-68.5-68.3c31.54-55.62 70.75-89.73 88.72-99.8z"/><path fill="#6f6571" d="M55.6 4.17C44.47-.08 32.52 8.3 33.04 20.2c4.17 95.8 33.01 174.94 33.01 174.94l132.13-82.58C148.53 52.75 85 15.4 55.6 4.16z"/><path fill="#c0bcc1" d="M60.81 33.24c-6.79-3.8-13.7 4.35-13.04 15.57 5.33 90.49 33.26 152.53 33.26 152.53l68.5-68.3c-31.55-55.62-70.75-89.73-88.72-99.8z"/><ellipse cx="256" cy="475.92" fill="#5d5360" rx="49.55" ry="33.03"/><path fill="#867e88" d="M512 343.79C480.53 184.57 376.85 96.05 256 96.05S31.47 184.57 0 343.79c0 0 48.06 13.78 53.81 16.51l-7.88 32.9a6 6 0 0 0 4.02 7.12c18.95 5.97 84.25 27.33 128.02 51.35h156.06c43.77-24.02 109.06-45.38 128.02-51.35a6 6 0 0 0 4.02-7.12l-7.88-32.9c5.75-2.73 53.81-16.51 53.81-16.51z"/><path fill="#6f6571" d="M256 319.01a66.95 66.95 0 0 0-61.85 41.39c-10.35 25-20.73 49.89-20.73 74.23 0 23.89 30.6 59.06 77.32 39.91a13.78 13.78 0 0 1 10.52 0c46.73 19.15 77.32-16.02 77.32-39.91 0-24.34-10.38-49.22-20.72-74.23A66.95 66.95 0 0 0 256 319z"/><path fill="#c0bcc1" d="M45.93 393.2a6 6 0 0 0 4.03 7.12c18.95 5.97 84.24 27.33 128 51.35-2.91-5.76-4.54-11.68-4.54-17.04 0-48.49 41.29-99.1 41.29-148.65 0-35.1-25.3-73.29-74.32-66.06-40.73 6-92.9 35.1-140.39 123.87 0 0 48.06 13.78 53.81 16.51l-7.88 32.9zm420.14 0a6 6 0 0 1-4.03 7.12c-18.95 5.97-84.24 27.33-128 51.35 2.91-5.76 4.54-11.68 4.54-17.04 0-48.49-41.29-99.1-41.29-148.65 0-35.1 25.29-73.29 74.32-66.06 40.73 6 92.9 35.1 140.39 123.87 0 0-48.06 13.78-53.81 16.51l7.88 32.9z"/><path fill="#4b3f4e" d="M152.77 327.27c-15.9 0-28.9-13-28.9-28.9v-16.52c0-15.9 13-28.9 28.9-28.9 15.9 0 28.9 13 28.9 28.9v16.52c0 15.9-13 28.9-28.9 28.9z"/><path fill="#5d5360" d="M152.77 252.95c-1.4 0-2.77.22-4.13.42v40.87a16.52 16.52 0 0 0 33.04 0v-12.39c0-15.9-13-28.9-28.9-28.9z"/><circle cx="152.77" cy="273.6" r="12.39" fill="#fff"/><path fill="#4b3f4e" d="M359.23 327.27c-15.9 0-28.9-13-28.9-28.9v-16.52c0-15.9 13-28.9 28.9-28.9 15.9 0 28.9 13 28.9 28.9v16.52c0 15.9-13 28.9-28.9 28.9z"/><path fill="#5d5360" d="M359.23 252.95c-1.42 0-2.77.22-4.13.42v40.87a16.52 16.52 0 0 0 33.03 0v-12.39c0-15.9-13-28.9-28.9-28.9z"/><circle cx="359.23" cy="273.6" r="12.39" fill="#fff"/><path fill="#4b3f4e" d="M297.29 420.73c0-15.13-18.7-27.4-41.77-27.4s-41.77 12.27-41.77 27.4c0 10.25 14.6 18.3 27.68 24.16a10.68 10.68 0 0 1 6.31 9.77v20.92c1-.36 1.98-.62 3-1.04a13.78 13.78 0 0 1 10.52 0c1.02.42 1.99.67 3 1.04v-21.02c0-4.19 2.42-7.98 6.23-9.73 12.76-5.85 26.8-13.89 26.8-24.1z"/><path fill="#6f6571" d="M256 96.05c-120.85 0-224.53 88.52-256 247.74 0 0 48.06 13.78 53.81 16.51l-7.88 32.9a6 6 0 0 0 4.02 7.12c9.02 2.84 28.52 9.16 51.2 17.6C62.13 173.3 225.56 96.05 256 96.05z"/><path fill="#aea8af" d="M101.15 417.92c-13.01-81.56-3.6-144.53 15.99-192.2C80.84 238.5 38.86 271.14 0 343.8c0 0 48.06 13.78 53.81 16.51l-7.88 32.9a6 6 0 0 0 4.02 7.12c9.02 2.84 28.52 9.17 51.2 17.6z"/></svg>