<svg xmlns="http://www.w3.org/2000/svg" width="512px" height="512px"><path fill="#a3e261" d="M412.45 366.47c0 90.99-74.08 146.16-165.22 145.52-4.21-.03-8.39-.18-12.52-.44h-.01c-84.82-5.53-151.53-61-150.3-147.45a163.48 163.48 0 0 1 48.86-114.4 81.15 81.15 0 0 0 23.42-46.88c.08-.52.15-1 .23-1.4 8.71-45.48 46.37-79.69 91.5-79.69h.48c44.92.24 82.35 34.37 91.02 79.69a88.48 88.48 0 0 0 24.66 49.28 163.44 163.44 0 0 1 47.88 115.77z"/><path fill="#93cc52" d="M248.89 121.73l-1.14 34.8s-15.63 11.84-17.38 41.17c-4.57 76.95-64.57 104.38-64.57 182.1s28 108.2 68.92 131.74h-.02c-84.82-5.52-151.53-60.99-150.3-147.44a163.48 163.48 0 0 1 48.87-114.41 81.15 81.15 0 0 0 23.41-46.87c.08-.53.15-1 .23-1.4 8.71-45.48 46.37-79.69 91.5-79.69h.48z"/><path fill="#b25719" d="M246.63 154.3a8.57 8.57 0 0 1-8.45-10.06c.13-.78 13.25-78.17-19.02-110.44a8.57 8.57 0 1 1 12.12-12.12c38.59 38.59 24.4 122 23.78 125.54a8.58 8.58 0 0 1-8.43 7.08z"/><path fill="#93cc52" d="M228.5 141.12c5.04-.05 8.39-.12 11.4-.32 2.96-.17 5.39-.28 7.84-.28 2.46-.01 4.88.1 7.84.26 3 .2 6.34.28 11.4.34.02 5.1-2.67 9.22-6.24 12.14a20.88 20.88 0 0 1-13 4.4c-4.67 0-9.36-1.53-12.98-4.43-3.58-2.92-6.26-7.03-6.26-12.11z"/><path fill="#b25719" d="M276.43 69.15c-30.05 0-43.91-20.3-44.6-21.35a6.29 6.29 0 0 1 10.46-6.97c.7 1.02 16.2 22.95 51.62 13.23a6.28 6.28 0 1 1 3.33 12.12 78.51 78.51 0 0 1-20.8 2.97z"/><path fill="#2fcc6e" d="M384.9 76.86l42.72-45.12L371.1 5.93a65.36 65.36 0 0 0-88.57 37.1l-1.18 3.25a26.54 26.54 0 0 0 5.22 26.83l2.3 2.56a65.36 65.36 0 0 0 96.03 1.19z"/></svg>