<svg xmlns="http://www.w3.org/2000/svg" width="512px" height="512px"><path fill="#64d19b" d="M474.17 218.17C474.17 97.67 376.49 0 256 0S37.83 97.68 37.83 218.17 135.51 512 256 512s218.17-173.34 218.17-293.83z"/><path d="M162.9 20.82C88.98 55.75 37.83 130.98 37.83 218.17 37.83 338.66 135.51 512 256 512c25.37 0 49.72-7.68 72.37-20.94C95.8 471.28 46.45 141.71 162.9 20.82z" opacity=".1"/><ellipse cx="139.2" cy="214.52" fill="#5c626b" rx="68.88" ry="50.41" transform="rotate(-135 139.2 214.52)"/><path fill="#494f57" d="M256 293.86a39.34 39.34 0 0 1-29.66-13.5 7.5 7.5 0 0 1 11.3-9.86 24.35 24.35 0 0 0 36.71 0 7.5 7.5 0 0 1 11.31 9.85A39.35 39.35 0 0 1 256 293.86z"/><ellipse cx="372.8" cy="214.52" fill="#5c626b" rx="68.88" ry="50.41" transform="rotate(135 372.8 214.52)"/><path d="M96.62 160.87a37.5 37.5 0 0 0-6.12 4.94c-19.69 19.69-13.84 57.45 13.07 84.35 24.95 24.96 59.24 31.78 79.79 16.93-69.27 8.5-90.9-84.76-86.74-106.22zm238.68 19.92c-25.3 26.75-30.44 63.22-11.22 82.44 19.46 19.45 56.57 13.95 83.4-12.15-87.78 39.21-83.35-39.83-72.17-70.29z" opacity=".15"/></svg>