<svg xmlns="http://www.w3.org/2000/svg" width="512px" height="512px"><circle cx="256" cy="256" r="256" fill="#87dcff"/><path fill="#bee86e" d="M285.8 1.78l-10.56 32.93a24.77 24.77 0 0 1-17.04 16.32l-26.5 7.27c-2.13.59-4.34.88-6.55.88h-39.67a8.26 8.26 0 0 0-8.19 7.17l-4.55 34.12-25.34 1.33a8.26 8.26 0 0 0-7.82 7.92l-.87 22.02a8.26 8.26 0 0 0 8.93 8.56l16.88-1.4c4.34-.37 8.3-2.62 10.85-6.16l15.6-21.77 33.4-1.2a9.97 9.97 0 0 1 9.6 13.6c-5.82 14.94-5.83 16.22-5.83 17.53a8.25 8.25 0 0 0 16.4 1.4c.56-1.9 3.08-8.5 6.38-16.87a4.65 4.65 0 0 1 8.2-.88l2.14 3.23a16.52 16.52 0 0 0 18.2 6.81l14.74-4.09a13.36 13.36 0 0 0 8.94-8.16l2.82-7.5c2-5.3 6.57-9.21 12.12-10.36l9.53-1.96c6.48-1.34 13.36 2.58 14.49 9.1a11.53 11.53 0 0 1-10.04 13.47l-22.98.62a8.78 8.78 0 0 0-8.54 8.56l-.05 2.2a4.6 4.6 0 0 0 2.5 4.21l13.22 6.74a9.38 9.38 0 1 1-4.26 17.74h-69.7c-1.82 0-3.63-.34-5.32-1.01l-58.48-23.04a12.12 12.12 0 0 0-12.67 2.37l-55.39 51.2a16.52 16.52 0 0 0-4.82 16.07l11.26 45.75a16.52 16.52 0 0 0 15.15 12.54l62.4 3.36a24.77 24.77 0 0 1 23.34 22.47l4.73 51.38a32.26 32.26 0 0 0 3.04 11.04c5.25 10.96 17.51 35.9 24.33 44.52 8.77 11.1 30.39 11.53 37.68 4.9l50.73-41.52c4.24-3.86 7-9.07 7.84-14.74l5.94-40.77 40.29-44.4a8.25 8.25 0 0 0-2.84-13.1l-.72.48a21.85 21.85 0 0 1-12.16 3.7c-7.47 0-14.4-3.79-18.42-10.2l-30.75-48.83a8.27 8.27 0 0 1 13.98-8.8l30.76 48.84a5.24 5.24 0 0 0 7.4 1.57l41.58-22.78a7.97 7.97 0 1 0-4.74-14.9l-8.73 1a8.27 8.27 0 0 1-6.45-2.04l-26.15-23.4a8.26 8.26 0 0 1 11.01-12.3l23.4 20.92 14.2-1.64a8.2 8.2 0 0 1 7.61 3.33l2.74 3.74 13.85-1.66a16.52 16.52 0 0 1 16.5 8.54l27.96 51.72a16.51 16.51 0 0 0 9.5 7.87l10.06 3.53c.03-1.62.12-3.24.12-4.87 0-131.3-98.86-239.44-226.2-254.22zM392.76 143.1a8.23 8.23 0 0 1-11.46-2.22l-17.2-25.46a8.25 8.25 0 1 1 13.68-9.24l17.2 25.46a8.25 8.25 0 0 1-2.22 11.46z"/><path fill="#00c3ff" d="M339.96 428.04c-141.39 0-256-114.61-256-256 0-49.18 13.9-95.1 37.93-134.1C48.77 83 0 163.79 0 256c0 141.38 114.61 256 256 256 92.2 0 173-48.77 218.06-121.9a254.75 254.75 0 0 1-134.1 37.94z"/><path fill="#bee86e" d="M367.48 391.23a8.24 8.24 0 0 1-6.32-13.58l21.68-25.8a8.27 8.27 0 0 1 12.64 10.63l-21.67 25.8a8.24 8.24 0 0 1-6.33 2.95zM185.57 9.9l-7.34 21.88a8.26 8.26 0 0 0 15.66 5.26l10.7-31.87a252.95 252.95 0 0 0-19.02 4.72z"/><path fill="#afd755" d="M42.87 397.81l7.15-64.91a16.51 16.51 0 0 0-4.95-13.73L1 277.96a254.47 254.47 0 0 0 41.87 119.85z"/><path fill="#bee86e" d="M256 0c-9.26 0-18.4.52-27.4 1.48l-.87 19.38a12.38 12.38 0 1 0 23.5 7.83L260.76.12C259.16.09 257.6 0 256 0z"/></svg>