<svg xmlns="http://www.w3.org/2000/svg" width="512px" height="512px"><path fill="#dbd9dc" d="M511.3 119.15s16 125.13-106 99.53l-24.9-33.18 130.9-66.35z"/><path fill="#c9c6ca" d="M405.33 218.68c35.53-41.61 83.28-73.46 106.65-87.69.4 30.56-8.03 108.37-106.65 87.7z"/><path fill="#dbd9dc" d="M.7 119.15s-16 125.13 106 99.53l24.89-33.18L.69 119.15z"/><path fill="#c9c6ca" d="M106.67 218.68C71.14 177.07 23.4 145.22.02 131c-.4 30.56 8.03 108.37 106.65 87.7z"/><path fill="#f5dcb4" d="M438.47 11.32s41.47 82.95-49.76 141l-33.18-49.76c67.8-18.98 82.94-91.23 82.94-91.23z"/><path fill="#faebc8" d="M388.7 152.32l-12.95-19.43c71.46-44.62 62.72-121.56 62.72-121.56s41.47 82.94-49.77 141zm-315.17-141s-41.47 82.95 49.76 141l33.18-49.76c-67.8-18.98-82.94-91.23-82.94-91.23z"/><path fill="#f5dcb4" d="M123.3 152.32l12.95-19.43C64.8 88.27 73.53 11.33 73.53 11.33s-41.47 82.94 49.77 141z"/><path fill="#edebed" d="M256 44.5c-95.94 0-169.31 85.52-154.72 180.35l20.95 136.18a135.2 135.2 0 0 0 58.6 91.98l150.53-.13a135.2 135.2 0 0 0 58.41-91.85l20.95-136.18C425.32 130.02 351.94 44.5 256 44.5z"/><path fill="#dbd9dc" d="M182.9 371.66l-20.47-149.08c-10.28-74.86 24.13-144.4 79.25-177.38-88.78 8-154.26 89.6-140.4 179.65l20.95 136.18a135.2 135.2 0 0 0 58.6 91.98l38.43-.03c-18.88-21.53-32.01-49.6-36.37-81.32z"/><path fill="#ff96a0" d="M289.99 500.68H222a41.47 41.47 0 0 1-40.9-48.3l1.6-9.65c4-24 24.77-41.58 49.1-41.58h48.39a49.76 49.76 0 0 1 49.08 41.58l1.61 9.66a41.47 41.47 0 0 1-40.9 48.29z"/><path fill="#ff8087" d="M231.7 460.93l1.6-11.27c3.92-27.46 23.98-47.67 47.7-48.44-.27 0-.53-.07-.8-.07h-48.4a49.76 49.76 0 0 0-49.08 41.58l-1.61 9.66a41.47 41.47 0 0 0 40.9 48.28h19.37c-7.82-10.44-11.83-24.74-9.69-39.74z"/><path fill="#a5465a" d="M214.53 459.2a8.3 8.3 0 0 1-8.3-8.29c0-7.9 2.9-15.5 8.37-21.95a8.29 8.29 0 1 1 12.65 10.72c-2.94 3.47-4.43 7.25-4.43 11.23a8.3 8.3 0 0 1-8.29 8.3zm82.94 0a8.3 8.3 0 0 1-8.3-8.29c0-3.98-1.48-7.76-4.42-11.23a8.3 8.3 0 0 1 12.66-10.72c5.46 6.45 8.35 14.05 8.35 21.95a8.3 8.3 0 0 1-8.29 8.3z"/><path fill="#4b3f4e" d="M164.76 260.15a24.88 24.88 0 0 1-24.88-24.88v-8.3a24.88 24.88 0 1 1 49.76 0v8.3a24.88 24.88 0 0 1-24.88 24.88z"/><path fill="#5d5360" d="M164.76 202.09v29.03a12.44 12.44 0 1 0 24.89 0v-4.15a24.88 24.88 0 0 0-24.89-24.88z"/><circle cx="164.76" cy="218.68" r="8.29" fill="#fff"/><path fill="#4b3f4e" d="M347.24 260.15a24.88 24.88 0 0 1-24.89-24.88v-8.3a24.88 24.88 0 1 1 49.76 0v8.3a24.88 24.88 0 0 1-24.88 24.88z"/><path fill="#5d5360" d="M347.24 202.09v29.03a12.44 12.44 0 1 0 24.88 0v-4.15a24.88 24.88 0 0 0-24.88-24.88z"/><circle cx="347.24" cy="218.68" r="8.29" fill="#fff"/><path fill="#dbd9dc" d="M381.45 107.48C353.11 69.53 307.87 44.5 256 44.5c-60.8 0-112.5 34.36-138.52 83.65 25.57 1.3 90.86 2.39 130.23-17.3l-8.3 33.18s58.06-8.3 91.24-33.18c0 0 6.22 15.56 8.3 34.74 0 0 29.02-8.82 42.5-38.11z"/><path fill="#c9c6ca" d="M241.65 45.23c-54.51 4.93-100.22 37.57-124.17 82.92 12.1.62 33.15 1.16 56.1-.5 13.79-35.06 37.76-64.28 68.06-82.42z"/></svg>