<svg xmlns="http://www.w3.org/2000/svg" width="512px" height="512px"><path fill="#965a50" d="M503.48 1.66c6.69.21 10.64 7.58 7.32 13.39-5.28 9.23-10.27 24.22-7.96 46.5 5.7 54.78-7.82 98.88-67.58 133.03L332.83 83.6C353.58 61.18 422.78-.95 503.48 1.66z"/><path fill="#824d51" d="M510.1 5.13a8.94 8.94 0 0 1 .7 9.92c-5.28 9.22-10.27 24.22-7.96 46.5 5.7 54.78-7.82 98.88-67.58 133.03l-56.1-60.77C413.48 49.17 469.62 14.75 510.1 5.13z"/><path fill="#965a50" d="M8.52 1.66C1.83 1.87-2.12 9.24 1.2 15.05c5.28 9.22 10.27 24.22 7.96 46.5-5.7 54.78 7.82 98.88 67.58 133.03L179.17 83.6C158.42 61.18 89.22-.95 8.52 1.66z"/><path fill="#824d51" d="M1.9 5.13a8.94 8.94 0 0 0-.7 9.92c5.28 9.22 10.27 24.22 7.96 46.5-5.7 54.78 7.82 98.88 67.58 133.03l56.1-60.77C98.52 49.17 42.38 14.75 1.9 5.13z"/><path fill="#af6e5a" d="M473.68 303.4c0 115.5-89.64 207.02-217.68 207.02S38.32 418.91 38.32 303.4 145.02 49.46 256 49.46 473.68 187.9 473.68 303.4z"/><path fill="#965a50" d="M110.88 307.75c0-91.94 48.16-196.06 113.38-254.58C125.53 75.84 38.32 198.98 38.32 303.4c0 95.1 60.8 173.89 153.73 198.78-50.7-44.63-81.17-114.68-81.17-194.43z"/><path fill="#4b3f4e" d="M162.1 271.4a25.61 25.61 0 0 1-25.6-25.6v-8.54a25.61 25.61 0 0 1 51.22 0v8.54a25.6 25.6 0 0 1-25.62 25.6z"/><path fill="#5d5360" d="M162.1 211.65v29.88a12.8 12.8 0 1 0 25.6 0v-4.27a25.6 25.6 0 0 0-25.6-25.6z"/><circle cx="162.1" cy="228.72" r="8.54" fill="#fff"/><path fill="#4b3f4e" d="M349.9 271.4a25.61 25.61 0 0 1-25.6-25.6v-8.54a25.61 25.61 0 0 1 51.22 0v8.54a25.61 25.61 0 0 1-25.62 25.6z"/><path fill="#5d5360" d="M349.9 211.65v29.88a12.8 12.8 0 0 0 25.6 0v-4.27a25.6 25.6 0 0 0-25.6-25.6z"/><circle cx="349.9" cy="228.72" r="8.54" fill="#fff"/><path fill="#c9c6ca" d="M18.54 296.7c5.36 35.4 29.17 115.85 135.02 131.56l17.08-62.95S74.27 350.48 26.6 293.2c-3-3.62-8.77-1.14-8.06 3.5z"/><path fill="#aea8af" d="M153.56 428.26l6.6-24.3C68.72 386.88 32.43 319.45 21.2 291.84a4.41 4.41 0 0 0-2.66 4.85c5.36 35.4 29.17 115.85 135.02 131.56z"/><path fill="#c9c6ca" d="M493.46 296.7c-5.36 35.4-29.17 115.85-135.02 131.56l-17.08-62.95s96.37-14.83 144.04-72.11c3-3.62 8.77-1.14 8.06 3.5z"/><path fill="#aea8af" d="M358.44 428.26l-6.6-24.3c91.45-17.07 127.73-84.5 138.96-112.11a4.41 4.41 0 0 1 2.66 4.85c-5.36 35.4-29.17 115.85-135.02 131.56z"/><path fill="#6f6571" d="M362.8 417.69c0 58.76-74.72 40.19-106.73 40.19-31.34 0-106.68 18.57-106.68-40.19 0-60.02 47.71-102.14 106.65-102.14 58.92 0 106.76 42.12 106.76 102.14z"/><path fill="#4b3f4e" d="M234.61 414.54c-5.9 11.6-17.93 16.87-26.87 11.78-8.93-5.1-11.38-18.63-5.48-30.23s17.94-16.87 26.87-11.77 11.39 18.63 5.48 30.22zm42.78 0c5.9 11.6 17.93 16.87 26.87 11.78 8.93-5.1 11.38-18.63 5.48-30.23-5.91-11.6-17.94-16.87-26.87-11.77s-11.39 18.63-5.48 30.22z"/></svg>