<svg xmlns="http://www.w3.org/2000/svg" viewBox="0 0 508.42 508.42" width="508px" height="508px"><path fill="#464649" d="M254.21 150.26a7.5 7.5 0 0 1-7.5-7.5V26.87a7.5 7.5 0 1 1 15 0v115.89a7.5 7.5 0 0 1-7.5 7.5z"/><path fill="#e0e0e0" d="M489.64 257.15a157.45 157.45 0 0 0-55.04-87.68 157.15 157.15 0 0 0-97.69-34.21h-165.4a157.14 157.14 0 0 0-97.68 34.21 157.45 157.45 0 0 0-55.05 87.68C5.71 314.4-.59 362 .04 398.65c.9 51.5 15.78 81.46 44.23 89.03 26.3 7 56.75-12.85 90.54-58.98 19.44-26.55 34.19-53.9 39.5-64.17h159.8c5.32 10.27 20.07 37.62 39.5 64.17 29.38 40.12 56.24 60.36 80.04 60.35 3.57 0 7.07-.45 10.5-1.37 28.46-7.57 43.34-37.52 44.23-89.02.64-36.65-5.67-84.26-18.74-141.51z"/><path fill="#c4c4c4" d="M489.64 257.15a157.45 157.45 0 0 0-55.04-87.68 157.15 157.15 0 0 0-97.69-34.21h-31.9c35.36 0 70.05 12.15 97.7 34.21a157.45 157.45 0 0 1 55.04 87.68c13.07 57.25 19.37 104.86 18.73 141.5-.84 48.37-14 77.72-39.17 87.4 5.6 2 11.04 3 16.34 3 3.57 0 7.07-.45 10.5-1.37 28.46-7.57 43.34-37.52 44.23-89.02.64-36.65-5.67-84.26-18.74-141.51zM102.9 428.7c-22.84 31.2-44.16 50.35-63.7 57.34a49.2 49.2 0 0 0 5.07 1.64c26.3 7 56.75-12.85 90.54-58.98 19.44-26.55 34.18-53.9 39.5-64.17h-16.97c-9.07 0-17.42 4.9-21.83 12.83-7.38 13.26-18.8 32.5-32.6 51.34z"/><path fill="#ff3d43" d="M195.3 229.66h-15.02v-15.01a27.05 27.05 0 0 0-27.01-27.02 27.05 27.05 0 0 0-27.02 27.02v15.01h-15.01c-14.9 0-27.02 12.12-27.02 27.02s12.12 27.01 27.02 27.01h15.01v15.02a27.05 27.05 0 0 0 27.02 27.01 27.05 27.05 0 0 0 27.01-27.01v-15.02h15.02c14.9 0 27.01-12.12 27.01-27.01s-12.12-27.02-27.01-27.02z"/><path fill="#d72e2e" d="M195.3 229.66h-15.02v-15.01a27.05 27.05 0 0 0-37.14-25.04 27.05 27.05 0 0 1 16.9 25.04v15.01h15c14.9 0 27.02 12.12 27.02 27.02s-12.12 27.01-27.01 27.01h-15.02v15.02c0 11.31-7 21.02-16.89 25.04a27.05 27.05 0 0 0 37.14-25.04v-15.02h15.02c14.9 0 27.01-12.12 27.01-27.01s-12.12-27.02-27.01-27.02z"/><path fill="#464649" d="M401.5 240.34c-8.61 0-15.62 7-15.62 15.62a15.63 15.63 0 0 0 31.25 0c0-8.62-7.01-15.62-15.63-15.62zm-77.95 0c-8.62 0-15.63 7-15.63 15.62a15.63 15.63 0 0 0 31.25 0c0-8.62-7.01-15.62-15.63-15.62zm38.97 38.98a15.63 15.63 0 1 0 .02 31.22 15.63 15.63 0 0 0-.02-31.22zm0-77.96a15.63 15.63 0 1 0 .02 31.22 15.63 15.63 0 0 0-.02-31.22z"/></svg>