<svg xmlns="http://www.w3.org/2000/svg" width="512px" height="512px"><path fill="#ffdc64" d="M452.71 157.94l-133.74-12.4-53.13-123.37c-3.72-8.64-15.96-8.64-19.68 0l-53.13 123.36-133.74 12.4c-9.37.88-13.15 12.52-6.08 18.73l100.9 88.65-29.53 131.03c-2.07 9.17 7.84 16.37 15.93 11.57L256 339.33l115.49 68.58c8.09 4.8 18-2.4 15.93-11.57L357.89 265.3l100.9-88.65c7.07-6.2 3.28-17.85-6.08-18.72z"/><path fill="#fff082" d="M119.28 17.92c6.82 9.47 26.06 50.14 37.06 73.84 1.73 3.73-2.94 7.1-5.93 4.27-18.98-17.95-51.45-49.1-58.27-58.57a16.72 16.72 0 1 1 27.14-19.54zm273.44 0c-6.82 9.47-26.06 50.14-37.06 73.84-1.73 3.73 2.94 7.1 5.93 4.27 18.98-17.95 51.45-49.1 58.27-58.57a16.72 16.72 0 1 0-27.14-19.54zm107.74 277.71c-11.1-3.62-55.69-9.6-81.61-12.88-4.08-.51-5.86 4.97-2.27 6.95 22.88 12.64 62.42 34.1 73.51 37.72a16.72 16.72 0 1 0 10.37-31.8zm-488.92 0c11.1-3.62 55.69-9.6 81.61-12.88 4.08-.51 5.86 4.97 2.27 6.95C72.54 302.34 33 323.8 21.9 327.42a16.72 16.72 0 1 1-10.37-31.8zM239.8 484.31c0-11.67 8.14-55.92 13.06-81.58.77-4.04 6.53-4.04 7.3 0 4.93 25.66 13.07 69.91 13.07 81.58a16.72 16.72 0 0 1-33.44 0z"/><path fill="#ffc850" d="M285.16 67.03l-19.32-44.86c-3.72-8.64-15.96-8.64-19.68 0l-53.13 123.36-133.74 12.4c-9.37.88-13.15 12.52-6.08 18.73l100.9 88.65-29.53 131.03c-2.07 9.17 7.84 16.37 15.93 11.57l15.37-9.13c25.2-163.12 96.04-282.86 129.28-331.75z"/></svg>