<svg xmlns="http://www.w3.org/2000/svg" width="512px" height="512px"><circle cx="256" cy="256" r="256" fill="#455256"/><path fill="#333f42" d="M180.66 437.02c-99.98-99.97-99.98-262.06 0-362.04A254.78 254.78 0 0 1 308.84 5.5c-81.8-17.17-170.36 5.98-233.86 69.48-99.97 99.98-99.97 262.07 0 362.04 63.5 63.5 152.07 86.65 233.86 69.48a254.8 254.8 0 0 1-128.18-69.48z"/><ellipse cx="318.21" cy="193.8" fill="#eaeae4" rx="131.11" ry="120.86" transform="rotate(-135 318.21 193.8)"/><path fill="#4d4d4d" d="M324.98 130.9c12.96 12.97 14.95 25.94 10.06 37.54 14.04-6.1 29.75-4.12 45.47 11.59l1.83 1.83c22.73 22.73 17.08 45.77-1.37 64.22-18.62 18.62-41.65 24.26-64.38 1.53l-1.83-1.83c-15.72-15.71-17.7-31.43-11.45-45.62-11.74 5.04-24.7 3.06-37.68-9.91-19.98-19.99-14.18-39.51 2.9-56.6 16.93-16.93 36.46-22.73 56.45-2.74zm40.88 60.11c-14.5-14.49-28.68-13.42-41.04-1.06-12.5 12.5-13.57 26.7.92 41.19l2.44 2.44c14.95 14.95 29.3 14.03 41.8 1.52 12.51-12.5 12.97-27-1.68-41.64l-2.44-2.45zm-86.5-12.05c12.2 12.2 23.65 10.83 34.48 0 10.68-10.68 12.2-22.27 0-34.48-12.2-12.2-23.65-10.52-34.32.16-10.84 10.83-12.36 22.12-.16 34.32z"/></svg>