<svg xmlns="http://www.w3.org/2000/svg" width="512px" height="512px"><path fill="#a5694b" d="M370.8 265.35l-.5-.52H141.7l-.5.52c-9.24 4.86-79.62 43.5-69.6 87.75 4.82 21.36 24.05 25.84 35.47 26.57 8.8 74.5 72.07 132.31 148.93 132.31s140.13-57.81 148.93-132.3c11.42-.74 30.65-5.22 35.48-26.58 10-44.26-60.37-82.89-69.61-87.75z"/><g fill="#925f4a"><path d="M256 344.26c55.33 0 104.67-25.5 137.04-65.33a227.54 227.54 0 0 0-22.24-13.58l-.5-.52H141.7l-.5.52a227.16 227.16 0 0 0-22.24 13.58c32.37 39.84 81.71 65.33 137.04 65.33z"/><path d="M141.2 265.35c-9.24 4.86-79.62 43.5-69.6 87.75 4.83 21.36 24.06 25.84 35.48 26.57 8.8 74.5 72.06 132.31 148.92 132.31 8.92 0 17.62-.85 26.1-2.34.12-.03.26-.11.38-.13-70.22-12.53-123.58-73.77-123.58-147.6 0-37.06 13.46-70.94 35.73-97.08H141.7c-.15.18-.25.52-.48.52z"/></g><circle cx="141.24" cy="61.79" r="61.79" fill="#a5694b"/><circle cx="141.24" cy="61.79" r="44.14" fill="#925f4a"/><circle cx="370.76" cy="61.79" r="61.79" fill="#a5694b"/><circle cx="370.76" cy="61.79" r="44.14" fill="#925f4a"/><g fill="#b97850"><path d="M396.9 424.07c-7.95-7.96-19.67-10.88-32.99-8.2-12.14 2.42-24.4 9.33-34.52 19.45-10.12 10.12-17.03 22.38-19.46 34.52-2.67 13.33.25 25.04 8.2 33 6.04 6.03 14.23 9.16 23.64 9.16 3 0 6.14-.32 9.35-.96 12.16-2.43 24.42-9.34 34.53-19.46 10.12-10.1 17.03-22.37 19.46-34.52 2.66-13.32-.25-25.04-8.2-33z"/><circle cx="256" cy="167.7" r="158.9"/></g><path fill="#a5694b" d="M153.19 167.7c0-78.17 56.5-143 130.85-156.27A159.34 159.34 0 0 0 256 8.81c-87.75 0-158.9 71.14-158.9 158.9S168.24 326.6 256 326.6c9.59 0 18.92-1 28.04-2.63-74.36-13.26-130.85-78.1-130.85-156.27z"/><ellipse cx="256" cy="256" fill="#ffe678" rx="69.65" ry="61.79"/><path fill="#ffc855" d="M210.89 256c0-30.4 24.78-55.63 57.38-60.78a78.48 78.48 0 0 0-12.27-1.01c-38.47 0-69.65 27.66-69.65 61.79s31.18 61.8 69.65 61.8c4.2 0 8.28-.4 12.27-1.02-32.6-5.15-57.38-30.37-57.38-60.78z"/><path fill="#6e4141" d="M189.8 194.2a13.24 13.24 0 0 1-13.25-13.23v-8.85a13.24 13.24 0 0 1 26.48 0v8.85c0 7.3-5.92 13.24-13.24 13.24zm132.4 0a13.24 13.24 0 0 1-13.23-13.23v-8.85a13.24 13.24 0 0 1 26.48 0v8.85c0 7.3-5.93 13.24-13.24 13.24z"/><path fill="#b97850" d="M182.62 435.32c-10.12-10.12-22.38-17.03-34.53-19.46-13.3-2.67-25.04.24-33 8.2-7.95 7.96-10.86 19.67-8.2 33 2.44 12.15 9.35 24.4 19.46 34.52 10.11 10.12 22.38 17.03 34.53 19.46 3.22.64 6.35.96 9.35.96 9.42 0 17.6-3.13 23.64-9.16 7.95-7.96 10.87-19.67 8.2-33-2.43-12.14-9.34-24.4-19.45-34.52z"/><path fill="#a5694b" d="M150.21 491.58c-10.12-10.11-17.02-22.37-19.46-34.53-2.66-13.32.25-25.04 8.2-32.99 3.4-3.4 7.52-5.82 12.13-7.33-1-.26-2-.67-2.99-.87-13.3-2.67-25.04.24-33 8.2-7.94 7.95-10.86 19.67-8.2 33 2.44 12.14 9.35 24.4 19.46 34.52 10.11 10.12 22.38 17.02 34.53 19.46 3.23.64 6.35.96 9.35.96 4.08 0 7.88-.7 11.42-1.86-11.12-2.91-22.19-9.3-31.44-18.56z"/><path fill="#925f4a" d="M342 502.82c-7.96-7.96-10.88-19.67-8.21-33 2.43-12.14 9.34-24.4 19.45-34.52 9.3-9.29 20.4-15.7 31.54-18.6-6.17-2.03-13.24-2.4-20.87-.86-12.14 2.43-24.4 9.34-34.52 19.46-10.12 10.11-17.03 22.38-19.46 34.52-2.67 13.33.25 25.04 8.2 33 6.03 6.03 14.23 9.16 23.64 9.16 3 0 6.13-.32 9.35-.97 1.03-.2 2.05-.62 3.08-.9a30.34 30.34 0 0 1-12.2-7.3zm-44.45-254.04a8.83 8.83 0 0 0-12.48 0c-8.21 8.2-15.94 5.62-20.24 2.9V220.7a8.83 8.83 0 0 0-17.66 0v30.98c-4.08 2.53-11.97 5.37-20.24-2.9a8.83 8.83 0 1 0-12.48 12.49c7.75 7.76 16.15 10.63 23.92 10.63 6.61 0 12.69-2.15 17.63-5.08 4.94 2.93 11.01 5.08 17.63 5.08 7.77 0 16.17-2.87 23.92-10.63a8.83 8.83 0 0 0 0-12.48z"/><ellipse cx="256" cy="207.45" fill="#784b46" rx="35.31" ry="22.07"/><path fill="#6e4141" d="M238.34 207.45c0-10.27 11.28-18.83 26.49-21.3a54.9 54.9 0 0 0-8.83-.77c-19.5 0-35.31 9.88-35.31 22.07s15.8 22.07 35.31 22.07c3.07 0 6-.32 8.83-.78-15.2-2.46-26.48-11.02-26.48-21.3z"/><circle cx="273.66" cy="203.03" r="8.83" fill="#a0786e"/></svg>