<svg xmlns="http://www.w3.org/2000/svg" width="512px" height="512px"><path fill="#f5dcb4" d="M437.68 45.42H355.1c-29.94 11.87-36.58-8.26-99.1-8.26s-69.16 20.13-99.1 8.26H74.32l-11 207.48c6.87 81.55 57.45 125.94 97.37 142.11H351.3c39.92-16.17 90.5-60.56 97.38-142.1l-11-207.51z"/><path fill="#965a50" d="M355.1 45.42c92.98 27.83 42.36 171.35 102.23 233.4 8.6 8.9 23.78 4.94 27.37-6.9 4.74-15.65 9.47-40.41 8.72-75.8-1.03-48.5 18.58-51.6 18.58-51.6S487.23 28.9 412.9 28.9c-24.77 0-57.8 16.52-57.8 16.52z"/><path fill="#4b3f4e" d="M169.29 260.13c-15.9 0-28.9-13-28.9-28.9V214.7c0-15.9 13-28.9 28.9-28.9 15.9 0 28.9 13 28.9 28.9v16.52c0 15.9-13 28.9-28.9 28.9z"/><path fill="#5d5360" d="M169.29 185.8c-1.41 0-2.77.23-4.13.43v40.87a16.52 16.52 0 0 0 33.03 0v-12.4c0-15.9-13-28.9-28.9-28.9z"/><circle cx="169.29" cy="206.45" r="12.39" fill="#fff"/><path fill="#4b3f4e" d="M342.71 260.13c-15.9 0-28.9-13-28.9-28.9V214.7c0-15.9 13-28.9 28.9-28.9 15.9 0 28.9 13 28.9 28.9v16.52c0 15.9-13 28.9-28.9 28.9z"/><path fill="#5d5360" d="M342.71 185.8c-1.41 0-2.77.23-4.13.43v40.87a16.52 16.52 0 0 0 33.03 0v-12.4c0-15.9-13-28.9-28.9-28.9z"/><circle cx="342.71" cy="206.45" r="12.39" fill="#fff"/><path fill="#824641" d="M457.33 278.81c8.6 8.91 23.78 4.95 27.37-6.9 2.72-8.97 5.4-21.05 7.08-36.3-16.24-8.1-30.1-33.91-38.62-77.67C437.68 78.45 416 34.06 355.1 45.42c92.98 27.83 42.36 171.35 102.23 233.4z"/><path fill="#e7c9a5" d="M160.69 395.01h39.14s-68.73-46.1-80.09-127.65C97.65 108.7 139.7 61.25 176.07 49.13c-5.76.2-11.75-.77-19.17-3.71H74.32l-11 207.48c6.87 81.55 57.45 125.94 97.37 142.11z"/><path fill="#965a50" d="M156.9 45.42c-92.98 27.83-42.36 171.35-102.23 233.4-8.6 8.9-23.78 4.94-27.37-6.9-4.74-15.65-9.47-40.41-8.72-75.8C19.61 147.63 0 144.53 0 144.53S24.77 28.9 99.1 28.9c24.77 0 57.8 16.52 57.8 16.52z"/><path fill="#824641" d="M154.14 44.1c-8.38-3.88-34.52-15.2-55.04-15.2C24.77 28.9 0 144.52 0 144.52s19.61 3.1 18.58 51.61V198C66.1 17.72 139.12 37.77 154.14 44.1z"/><ellipse cx="256" cy="400.52" fill="#bc8e78" rx="90.84" ry="66.06"/><path fill="#ff8087" d="M214.71 400.52v41.29a41.29 41.29 0 1 0 82.58 0v-41.3h-82.58z"/><path fill="#e6646e" d="M214.71 432.77a90.93 90.93 0 0 0 33.03-10.62v11.4a8.26 8.26 0 0 0 16.52 0v-11.5a89.23 89.23 0 0 0 33.03 10.72v-32.26h-82.58v32.26z"/><path fill="#d4af91" d="M309.68 326.2H202.32c-34.2 0-61.93 20.33-61.93 45.41s27.73 45.42 61.93 45.42c17.23 0 32.79-5.17 44-13.5a16.24 16.24 0 0 1 9.68-3.16c3.42 0 6.84 1.06 9.68 3.16 11.22 8.33 26.77 13.5 44 13.5 34.2 0 61.93-20.33 61.93-45.42 0-25.08-27.73-45.42-61.93-45.42z"/><path fill="#5d5360" d="M256 293.16c27.36 0 49.55 14.79 49.55 33.03 0 17.6-20.83 26.86-35.86 33.71a32.98 32.98 0 0 1-27.39 0c-15.03-6.85-35.85-16.11-35.85-33.7 0-18.25 22.19-33.04 49.55-33.04z"/><path fill="#4b3f4e" d="M230.97 317.16c-1.16-10.4 6.16-21.5 6.16-21.5-18 4.94-30.68 16.74-30.68 30.53 0 17.6 20.83 26.86 35.86 33.71a32.99 32.99 0 0 0 27.39 0c3.23-1.47 6.73-3.07 10.23-4.82-20.32-3.6-46.64-17.01-48.96-37.92z"/></svg>