<svg xmlns="http://www.w3.org/2000/svg" viewBox="0 -57 512 512" width="512px" height="569px"><path fill="#fff" d="M59.92 17.7H23.77A23.77 23.77 0 0 0 0 41.47v264.06a23.77 23.77 0 0 0 23.77 23.77h58.31a58.98 58.98 0 0 1 116.66 0h82.08V41.47a23.77 23.77 0 0 0-23.77-23.77zm0 0"/><path fill="#e8e8e8" d="M257.05 17.7h-44.9a23.77 23.77 0 0 1 23.76 23.77V329.3h44.9V41.47a23.77 23.77 0 0 0-23.76-23.77zm0 0"/><path fill="#fff" d="M503.4 166.13a33.74 33.74 0 0 1 8.6 22.5v116.9a23.77 23.77 0 0 1-23.77 23.77h-42.4a58.99 58.99 0 0 0-116.66 0h-48.35V77.27h128c9.61 0 18.76 4.09 25.16 11.24zm0 0"/><path fill="#e8e8e8" d="M503.4 166.13l-33.72-37.7-21.8-24.38-13.9-15.54a33.74 33.74 0 0 0-25.15-11.24H369.7c9.6 0 18.75 4.09 25.15 11.24l13.9 15.54 21.8 24.38 33.73 37.7a33.75 33.75 0 0 1 8.6 22.5v116.9a23.77 23.77 0 0 1-23.78 23.77h39.13A23.77 23.77 0 0 0 512 305.53v-116.9c0-8.3-3.06-16.31-8.6-22.5zm0 0"/><path fill="#5b9ed6" d="M417.2 203.28h-71.48a11.45 11.45 0 0 1-11.45-11.45v-65.16c0-6.33 5.12-11.46 11.45-11.46h36.87c3.33 0 6.5 1.46 8.68 3.99l34.62 40.25a11.46 11.46 0 0 1 2.77 7.47v24.9c0 6.33-5.13 11.46-11.45 11.46zm0 0"/><path fill="#8a8a8a" d="M396.4 77.27h-78.25V64.43a9.48 9.48 0 0 1 9.49-9.48h59.29a9.48 9.48 0 0 1 9.48 9.48v12.84zm0 0"/><path fill="#ef2d57" d="M387.5 54.95h-60.44V29.33A29.33 29.33 0 0 1 356.4 0h1.78a29.33 29.33 0 0 1 29.33 29.33zm0 0"/><path fill="#c72549" d="M357.28 0c-4.07 0-7.96.81-11.5 2.27a30.23 30.23 0 0 1 18.7 27.95v24.72h23.02V30.22A30.22 30.22 0 0 0 357.28 0zm0 0"/><path fill="#8a8a8a" d="M199.39 338.05a58.98 58.98 0 1 1-117.96 0 58.98 58.98 0 0 1 117.96 0zm0 0"/><path fill="#737373" d="M173.9 288.37a58.98 58.98 0 0 1-81.45 81.45 58.97 58.97 0 1 0 81.45-81.45zm0 0"/><path fill="#cfcfcf" d="M165.48 338.05a25.07 25.07 0 1 1-50.14 0 25.07 25.07 0 0 1 50.14 0zm0 0"/><path fill="#8a8a8a" d="M446.48 338.05a58.97 58.97 0 1 1-117.95 0 58.97 58.97 0 0 1 117.95 0zm0 0"/><path fill="#737373" d="M419.27 288.37a58.98 58.98 0 0 1-81.45 81.45 58.97 58.97 0 1 0 81.45-81.45zm0 0"/><path fill="#cfcfcf" d="M412.57 338.05a25.07 25.07 0 1 1-50.15 0 25.07 25.07 0 0 1 50.15 0zm0 0"/><path fill="#ef2d57" d="M192.95 114.21H161.7V82.96c0-6.63-5.38-12.01-12.02-12.01h-18.54a12.02 12.02 0 0 0-12.02 12.01v31.25H87.87a12.02 12.02 0 0 0-12.02 12.02v18.55c0 6.63 5.38 12.02 12.02 12.02h31.25v31.25c0 6.63 5.38 12.02 12.02 12.02h18.54c6.64 0 12.02-5.39 12.02-12.02V156.8h31.25c6.64 0 12.02-5.39 12.02-12.02v-18.55c0-6.63-5.38-12.02-12.02-12.02zM387.5 279.07c29.6 0 54.1 21.8 58.33 50.23h42.4A23.77 23.77 0 0 0 512 305.53v-51.07H280.82v74.84h48.35a58.99 58.99 0 0 1 58.33-50.23zm0 0"/><path fill="#c72549" d="M472.87 254.46v51.07a23.77 23.77 0 0 1-23.77 23.77h39.13A23.77 23.77 0 0 0 512 305.53v-51.07zm0 0"/><path fill="#ef2d57" d="M23.77 329.3h58.31a58.98 58.98 0 0 1 116.66 0h82.08v-74.84H0v51.07a23.77 23.77 0 0 0 23.77 23.77zm0 0"/><path fill="#c72549" d="M235.91 254.46h44.9v74.84h-44.9zm0 0"/></svg>