<svg xmlns="http://www.w3.org/2000/svg" width="512px" height="512px"><path fill="#f94848" d="M465.19 285.05c0 61.61-40.06 146.75-88.5 193.26C355.2 498.97 332.07 512 310.04 512a140.2 140.2 0 0 1-39.75-5.84 86.45 86.45 0 0 0-50.15 0A140.17 140.17 0 0 1 180.4 512c-23.07 0-47.39-14.32-69.73-36.72-47.05-47.1-85.42-129.94-85.42-190.23 0-88.94 53.21-142.68 103.24-155.65 23.97-6.22 51.78-2.21 74.23 3.63a168.3 168.3 0 0 0 85 0c22.47-5.84 50.26-9.84 74.24-3.63 50.03 12.97 103.24 66.7 103.24 155.65z"/><path fill="#e23d3d" d="M376.69 478.3c-59.45 10.51-105.23 7.6-139.73-.75-56.34-13.64-98.25-61.16-105.23-118.7-17.5-144.1 76.67-186.07 76.67-186.07 27.6 12.54 58.63 5.85 58.63 5.85-19.8-19.8 6.57-42.56 6.57-42.56a168.3 168.3 0 0 1-70.88-3.04c-22.46-5.84-50.27-9.84-74.24-3.63-50.03 12.97-103.23 66.7-103.23 155.65S108.75 512 180.38 512c13.92 0 27.81-2.24 39.76-5.84a86.45 86.45 0 0 1 50.14 0 140.19 140.19 0 0 0 39.75 5.84c22.03 0 45.17-13.03 66.65-33.69z"/><path fill="#c7f492" d="M486.76 5.5s-12.36 86.13-77.42 111.2c-62.2 23.96-117.65-40.83-140.39-35.73a9.1 9.1 0 0 0-2.86 1.11l-.05.03v-.05c.78-2.32 25.72-76.62 89.77-81.48 65.06-4.95 100.47 24.7 130.95 4.94z"/><path fill="#a3e261" d="M486.76 5.5s-39.54 48.2-95.13 48.2c-48.88 0-108.9 21.96-122.68 27.27-1.65.63-2.63 1.03-2.87 1.11l-.04.03v-.05c.77-2.32 25.72-76.62 89.77-81.48 65.06-4.95 100.47 24.7 130.95 4.94z"/><ellipse cx="393.88" cy="247.46" fill="#fc8181" rx="44.46" ry="28.77" transform="rotate(-95.68 393.88 247.46)"/><path fill="#e23d3d" d="M291.29 166.44c0 10.12-15.89 18.54-36.98 20.45a102.23 102.23 0 0 1-18.56-.02c-20.88-1.99-36.58-10.38-36.58-20.43h92.12z"/><path fill="#b25719" d="M280.37 81.01l-33.79 51.32a281.98 281.98 0 0 1 6.14 34.1 260.6 260.6 0 0 1 1.6 20.46 102.23 102.23 0 0 1-18.56-.02 238 238 0 0 0-1.7-20.43c-6.06-47.97-24.56-83.3-24.79-83.7a9.26 9.26 0 0 1 16.37-8.7c.55 1.04 7.35 14.05 14.22 34.8l25.04-38.02a9.25 9.25 0 0 1 12.83-2.63 9.25 9.25 0 0 1 2.64 12.82z"/></svg>