<svg xmlns="http://www.w3.org/2000/svg" width="512px" height="512px"><path fill="#e6646e" d="M472.64 193.38l30.6-73.44c2.94-7.06-4.47-13.97-11.3-10.55l-72.66 36.33a8.25 8.25 0 0 1-10.56-2.8l-6.4-9.6a8.25 8.25 0 0 0-13.14-.76l-40.41 47.54c-5.6 6.58-16.26 1.23-14.33-7.19l18.61-81.4c1.06-4.63-2-9.2-6.68-9.98l-37.1-6.18a8.25 8.25 0 0 1-5.73-3.9L263.07 4.01a8.25 8.25 0 0 0-14.15 0l-40.55 67.58a8.25 8.25 0 0 1-5.45 3.85l-29.88 5.97a8.25 8.25 0 0 0-6.53 9.4l13.86 85.82c1.34 8.24-9.02 13.02-14.43 6.65l-43.12-50.72a8.25 8.25 0 0 0-13.15.76l-6.4 9.6a8.25 8.25 0 0 1-10.55 2.8l-72.65-36.33c-6.84-3.42-14.25 3.5-11.3 10.55l30.59 73.44a8.25 8.25 0 0 1-1.78 9l-20.25 20.25a8.25 8.25 0 0 0 2.77 13.5l22.41 8.96a8.25 8.25 0 0 1 4.76 10.27L43.7 266.1a8.25 8.25 0 0 0 3.98 9.9l68.15 35.95a8.25 8.25 0 0 1 1.53 13.56l-81.54 69.95a8.25 8.25 0 0 0 2.62 14.04l122.16 43.1a8.25 8.25 0 0 0 8.3-1.67l81.55-74.14a8.25 8.25 0 0 1 11.1 0l81.56 74.14a8.25 8.25 0 0 0 8.3 1.67l122.15-43.1a8.25 8.25 0 0 0 2.62-14.05l-81.54-69.95a8.25 8.25 0 0 1 1.53-13.56L464.32 276a8.25 8.25 0 0 0 3.98-9.9l-3.58-10.74a8.25 8.25 0 0 1 4.77-10.27l22.4-8.96a8.25 8.25 0 0 0 2.78-13.5l-20.25-20.25a8.25 8.25 0 0 1-1.78-9z"/><g fill="#dc4655"><path d="M451.41 163.71a8.25 8.25 0 0 0-11.67.37l-8.25 8.8a8.26 8.26 0 0 0 12.04 11.29l8.25-8.79a8.26 8.26 0 0 0-.37-11.67zM389.1 381.17L288.93 367.8a8.25 8.25 0 0 1-4.92-13.83L418.78 210.5a8.24 8.24 0 1 0-12.02-11.3L278.5 335.74c-5.11 5.44-14.26 1.82-14.26-5.65V193.45l96.82-104.88a8.25 8.25 0 0 0-12.12-11.2l-84.7 91.75v-61.4a8.25 8.25 0 1 0-16.5 0v59.98l-76.2-90.06a8.25 8.25 0 0 0-12.6 10.66l88.8 104.95v136.83c0 7.47-9.15 11.1-14.27 5.65L105.25 199.22a8.24 8.24 0 1 0-12.02 11.3L228 353.98a8.25 8.25 0 0 1-4.92 13.83l-100.19 13.36a8.25 8.25 0 1 0 2.18 16.35l113.34-15.11a8.25 8.25 0 0 1 9.34 8.18v113.16a8.25 8.25 0 1 0 16.5 0V390.59c0-5 4.4-8.84 9.34-8.18l113.34 15.11a8.25 8.25 0 0 0 2.17-16.36zm41.63 5.28l-8.57-1.14a8.25 8.25 0 0 0-2.2 16.36l8.58 1.14a8.25 8.25 0 0 0 2.2-16.36zM80.14 184.54a8.26 8.26 0 0 0 .37-11.67l-8.25-8.79a8.27 8.27 0 0 0-12.04 11.3l8.25 8.79a8.23 8.23 0 0 0 11.67.37zm9.7 200.76l-8.57 1.15a8.25 8.25 0 0 0 2.2 16.36l8.56-1.14a8.25 8.25 0 0 0-2.2-16.36z"/><path d="M256 82.97a8.25 8.25 0 0 0 8.25-8.25v-8.25a8.25 8.25 0 1 0-16.5 0v8.25a8.25 8.25 0 0 0 8.25 8.25z"/></g><path fill="#ff8282" d="M221.73 240.47l-7.84-49.52a24.75 24.75 0 0 0-6.5-13.17l-32.33-34.05 5.31 32.9c1.34 8.24-9.02 13.02-14.43 6.66l-43.12-50.73 46.34 97.32a24.75 24.75 0 0 0 16.35 13.37l26.07 6.52a8.25 8.25 0 0 0 10.15-9.3zM60.43 374.34l115.55-28.53a8.25 8.25 0 0 0 4.68-12.88L165 311.55a24.76 24.76 0 0 0-9.87-7.98l-107.85-48.2-3.58 10.72a8.25 8.25 0 0 0 3.98 9.9l68.16 35.95a8.25 8.25 0 0 1 1.52 13.56l-56.93 48.84zm391.14 0L336.02 345.8a8.25 8.25 0 0 1-4.68-12.88L347 311.55a24.76 24.76 0 0 1 9.87-7.98l107.85-48.2 3.58 10.72a8.25 8.25 0 0 1-3.98 9.9l-68.16 35.95a8.25 8.25 0 0 0-1.52 13.56l56.93 48.84zm-62.39-241.78l-40.41 47.54c-5.6 6.58-16.26 1.23-14.33-7.19l7.82-34.21-37.65 39.07a24.75 24.75 0 0 0-6.5 13.18l-7.84 49.52a8.25 8.25 0 0 0 10.15 9.3l26.07-6.52a24.75 24.75 0 0 0 16.35-13.37l46.67-97.57c-.1.1-.24.13-.33.25z"/></svg>