<svg xmlns="http://www.w3.org/2000/svg" width="512px" height="512px"><circle cx="256" cy="256" r="256" fill="#ffdc64"/><path fill="#ffc850" d="M339.96 428.04c-141.39 0-256-114.61-256-256 0-49.18 13.9-95.1 37.93-134.1C48.77 83 0 163.79 0 256c0 141.38 114.61 256 256 256 92.2 0 173-48.77 218.06-121.9a254.75 254.75 0 0 1-134.1 37.94z"/><circle cx="330.32" cy="107.36" r="16.52" fill="#fff082"/><circle cx="107.36" cy="322.06" r="16.52" fill="#ffdc64"/><path fill="#fff082" d="M222.97 107.36h-8.26V99.1a8.26 8.26 0 1 0-16.52 0v8.26h-8.25a8.26 8.26 0 1 0 0 16.51h8.25v8.26a8.26 8.26 0 1 0 16.52 0v-8.26h8.26a8.26 8.26 0 1 0 0-16.52zM424.58 313.8l2.42-2.41a8.25 8.25 0 1 0-11.68-11.68l-2.42 2.42-2.41-2.42a8.25 8.25 0 1 0-11.68 11.68l2.42 2.42-2.42 2.41a8.25 8.25 0 1 0 11.68 11.68l2.41-2.42 2.42 2.42a8.23 8.23 0 0 0 11.68 0 8.25 8.25 0 0 0 0-11.67l-2.42-2.42z"/><path fill="#fff" d="M161.03 264.26a37.16 37.16 0 0 1-37.16-37.16v-8.26a37.16 37.16 0 1 1 74.32 0v8.26a37.16 37.16 0 0 1-37.16 37.16zm189.94 0a37.16 37.16 0 0 1-37.16-37.16v-8.26a37.16 37.16 0 1 1 74.32 0v8.26a37.16 37.16 0 0 1-37.16 37.16z"/><path fill="#ebaf4b" d="M256 338.58c-18.52 0-33.03-10.88-33.03-24.77a8.26 8.26 0 1 1 16.51 0c0 3.37 6.44 8.26 16.52 8.26 10.08 0 16.52-4.9 16.52-8.26a8.26 8.26 0 1 1 16.51 0c0 13.9-14.5 24.77-33.03 24.77zm0 90.84c-8.8 0-17.5-.56-25.84-1.65a8.25 8.25 0 1 1 2.14-16.38c15.28 2 32.12 2 47.4 0a8.26 8.26 0 1 1 2.14 16.38 199.06 199.06 0 0 1-25.84 1.65z"/><path fill="#dc9b41" d="M354.23 367.92l-8.26-16.52a8.26 8.26 0 1 0-14.78 7.39l.03.05c-13.37 12.6-43.11 21.03-75.22 21.03s-61.86-8.42-75.22-21.03l.03-.05a8.26 8.26 0 1 0-14.78-7.39l-8.26 16.52a8.26 8.26 0 1 0 14.78 7.39l.61-1.23c17.62 13.86 48.33 22.3 82.84 22.3s65.22-8.44 82.84-22.3l.61 1.23a8.26 8.26 0 1 0 14.78-7.4z"/><path fill="#4b3f4e" d="M144.52 247.74a20.64 20.64 0 0 1-20.65-20.64v-8.26a20.64 20.64 0 1 1 41.29 0v8.26c0 11.4-9.24 20.64-20.64 20.64zm189.93 0a20.64 20.64 0 0 1-20.64-20.64v-8.26a20.64 20.64 0 0 1 41.29 0v8.26c0 11.4-9.25 20.64-20.65 20.64z"/><g fill="#fff"><circle cx="148.65" cy="214.71" r="8.26"/><circle cx="338.58" cy="214.71" r="8.26"/></g></svg>