<svg xmlns="http://www.w3.org/2000/svg" width="512px" height="512px"><path fill="#eaeae4" d="M512 256c0 68.6-26.93 130.87-70.78 176.8a255.34 255.34 0 0 1-106.64 66.94A255.62 255.62 0 0 1 256 512c-2.62 0-5.24-.04-7.84-.13C134.82 508.47 40.1 431.6 10 327.17A257.21 257.21 0 0 1 0 256a258.3 258.3 0 0 1 5.8-54.48 253.5 253.5 0 0 1 32.45-80.3C83.38 48.44 163.97 0 256 0a257 257 0 0 1 61.27 7.37 254.99 254.99 0 0 1 111.08 59.27 256.41 256.41 0 0 1 53.24 68.17A255 255 0 0 1 512 256z"/><path fill="#d6d6d2" d="M112.97 256c0-122.09 85.24-224.06 199.51-249.75A257.26 257.26 0 0 0 256 0C114.5 0 0 114.5 0 256s114.5 256 256 256a257.3 257.3 0 0 0 56.48-6.25C198.21 480.06 112.97 378.09 112.97 256z"/><path fill="#b2b2b1" d="M439.14 159.32a584.64 584.64 0 0 1 2.08 273.48 256.73 256.73 0 0 1-22.87 21.23l4.72-13.04A568.73 568.73 0 0 0 425 167.5l-73.85 42.63a1032 1032 0 0 1 .14 283.58 247.84 247.84 0 0 1-16.7 6.04l.59-4.02a1016.85 1016.85 0 0 0 1.3-277.13l-72.63 41.94v251.34a243.4 243.4 0 0 1-15.7 0v-48.75A584.6 584.6 0 0 1 10.02 327.18a253.74 253.74 0 0 1-6.39-28.02l8.16 7.93a568.48 568.48 0 0 0 236.38 139.69v-85.32A1032.62 1032.62 0 0 1 2.67 218.91c.85-5.87 1.9-11.67 3.14-17.39l2.98 2.25.14.1A1016.85 1016.85 0 0 0 248.16 344.5v-83.96l-126.02-72.75-91.73-52.96c2.47-4.63 5.1-9.16 7.85-13.6l42.3 24.43A583.7 583.7 0 0 1 226.9 42.96a581.64 581.64 0 0 1 90.38-35.6 251.8 251.8 0 0 1 28.37 8.75l-12.04 2.87a568.12 568.12 0 0 0-161.83 73.7 566.23 566.23 0 0 0-77.05 61.14l32.19 18.58 41.7 24.08A1031.95 1031.95 0 0 1 414.76 55.1c4.67 3.68 9.2 7.53 13.58 11.54l-3.81 1.43a1016.7 1016.7 0 0 0-241.25 136.9L256 246.93l217.75-125.71c2.75 4.43 5.37 8.96 7.84 13.59l-42.45 24.5z"/><path fill="#939392" d="M116.07 296.07a1031.76 1031.76 0 0 1-113.4-77.16c.85-5.87 1.9-11.67 3.14-17.39l2.98 2.25.14.1a1015.04 1015.04 0 0 0 104.84 72.58 263.3 263.3 0 0 0 2.3 19.62zM197 445.71A584.6 584.6 0 0 1 10 327.17a253.74 253.74 0 0 1-6.39-28.01l8.16 7.93a568.48 568.48 0 0 0 158.04 109.87 256.71 256.71 0 0 0 27.17 28.75zm29.89-402.75a256.8 256.8 0 0 0-55.12 49.71 566.23 566.23 0 0 0-77.05 61.15l32.19 18.58a251.63 251.63 0 0 0-4.77 15.38L30.4 134.82c2.47-4.63 5.1-9.16 7.85-13.6l42.3 24.43A583.7 583.7 0 0 1 226.9 42.96zm36.96 446.56v22.35a243.4 243.4 0 0 1-15.7 0V481.8a256.09 256.09 0 0 0 15.7 7.73z"/></svg>