<svg xmlns="http://www.w3.org/2000/svg" viewBox="0 0 510.96 510.96" width="510px" height="510px"><path fill="#ffd039" d="M493.24 91.94a56.43 56.43 0 0 0-44.36-21.37H395.8a7.5 7.5 0 0 0-7.5 7.5v32.77a7.5 7.5 0 0 0 7.5 7.5h53.08a8.9 8.9 0 0 1 7 3.37 8.64 8.64 0 0 1 1.7 7.35c-4.06 17.72-12.6 42.9-30.22 62.25a91.44 91.44 0 0 1-37.31 24.7 7.5 7.5 0 0 0-4.8 5.47 131.9 131.9 0 0 1-13.28 35.41 7.5 7.5 0 0 0 7.82 11c33.27-5.62 61.16-20.56 82.89-44.42 19.47-21.38 33.81-50.34 41.46-83.75a56.17 56.17 0 0 0-10.9-47.78z"/><path fill="#f4b70c" d="M429.62 193.03v-4.34a91.44 91.44 0 0 1-39.58 27.32 7.5 7.5 0 0 0-4.8 5.47 131.9 131.9 0 0 1-13.27 35.41 7.5 7.5 0 0 0 7.82 11 152.45 152.45 0 0 0 34.9-10.14 146.93 146.93 0 0 0 14.93-64.72zM388.3 78.07v32.77a7.5 7.5 0 0 0 7.5 7.5h33.82V70.57H395.8a7.5 7.5 0 0 0-7.5 7.5z"/><path fill="#ffbb64" d="M311.86 440.72c-2.31-1.63-22.33-18.41-24.85-109.63a7.5 7.5 0 0 0-8.78-7.18 134.25 134.25 0 0 1-45.5 0 7.5 7.5 0 0 0-8.78 7.18c-2.52 91.22-22.54 108-24.85 109.63-3.54.96-5.43 4.25-5.01 7.95.43 3.78 4.13 6.5 7.94 6.5h106.9c3.81 0 7.5-2.72 7.94-6.5.42-3.7-1.47-7-5.01-7.95z"/><path fill="#ffae47" d="M311.86 440.72c-2.31-1.63-22.33-18.41-24.85-109.63a7.5 7.5 0 0 0-8.78-7.18 133.06 133.06 0 0 1-29.98 1.74 7.5 7.5 0 0 1 2.58 5.44c2.52 91.21 22.54 108 24.85 109.63 3.54.95 5.43 4.25 5.01 7.94-.43 3.8-4.12 6.5-7.94 6.5h36.18c3.81 0 7.5-2.7 7.94-6.5.42-3.7-1.47-6.98-5.01-7.94z"/><path fill="#ffd039" d="M17.72 91.94a56.43 56.43 0 0 1 44.36-21.37h53.08a7.5 7.5 0 0 1 7.5 7.5v32.77a7.5 7.5 0 0 1-7.5 7.5H62.08a8.9 8.9 0 0 0-7 3.37 8.64 8.64 0 0 0-1.7 7.35c4.06 17.72 12.6 42.9 30.22 62.25A91.44 91.44 0 0 0 120.9 216a7.5 7.5 0 0 1 4.8 5.47 131.9 131.9 0 0 0 13.3 35.42 7.5 7.5 0 0 1-7.82 11c-33.28-5.61-61.18-20.55-82.9-44.41-19.47-21.38-33.8-50.34-41.46-83.75a56.17 56.17 0 0 1 10.9-47.78z"/><path fill="#f4b70c" d="M81.34 193.03v-4.34a91.44 91.44 0 0 0 39.58 27.32 7.5 7.5 0 0 1 4.8 5.47 131.9 131.9 0 0 0 13.27 35.41 7.5 7.5 0 0 1-7.82 11 152.74 152.74 0 0 1-34.9-10.14 146.93 146.93 0 0 1-14.93-64.72zm41.32-114.96v32.77a7.5 7.5 0 0 1-7.5 7.5H81.34V70.57h33.81a7.5 7.5 0 0 1 7.5 7.5z"/><path fill="#ffdf65" d="M395.8 43.37H115.15a7.5 7.5 0 0 0-7.5 7.5v142.16c0 81.51 66.32 147.83 147.83 147.83S403.3 274.54 403.3 193.03V50.87a7.5 7.5 0 0 0-7.5-7.5z"/><path fill="#ffcd2c" d="M395.8 43.37h-35a7.5 7.5 0 0 1 7.5 7.5v142.16c0 75.6-57.03 138.1-130.32 146.79a148.7 148.7 0 0 0 17.5 1.04c81.51 0 147.82-66.32 147.82-147.83V50.87a7.5 7.5 0 0 0-7.5-7.5z"/><path fill="#ffa035" d="M320.63 175.55a16.45 16.45 0 0 0 4.19-16.96 16.44 16.44 0 0 0-13.36-11.26l-27.62-4.01a1.6 1.6 0 0 1-1.17-.85l-12.35-25.03a16.44 16.44 0 0 0-14.84-9.23 16.44 16.44 0 0 0-14.84 9.23l-12.35 25.03c-.23.46-.66.77-1.17.85l-27.62 4.01a16.44 16.44 0 0 0-13.36 11.26 16.44 16.44 0 0 0 4.19 16.96l19.99 19.49c.36.35.53.86.44 1.37l-4.72 27.51a16.44 16.44 0 0 0 6.59 16.18 16.44 16.44 0 0 0 17.42 1.26l24.71-12.99c.45-.23.99-.23 1.44 0l24.71 13a16.48 16.48 0 0 0 17.42-1.26 16.44 16.44 0 0 0 6.59-16.19l-4.72-27.52c-.09-.5.08-1 .44-1.36l20-19.49z"/><path fill="#f78819" d="M311.46 147.33l-7.08-1.03-35.97 34.37a9.04 9.04 0 0 0-2.6 8l8.06 49 7.04 3.7a16.48 16.48 0 0 0 17.42-1.26 16.44 16.44 0 0 0 6.59-16.19l-4.72-27.51c-.09-.5.08-1.02.44-1.37l20-19.49a16.45 16.45 0 0 0 4.18-16.96 16.45 16.45 0 0 0-13.36-11.26z"/><path fill="#ffdf65" d="M400.11 501.14c-12.05-37.04-40.97-60.97-73.68-60.97h-141.9c-32.7 0-61.63 23.93-73.68 60.97a7.5 7.5 0 0 0 7.13 9.82h275a7.5 7.5 0 0 0 7.13-9.82z"/><path fill="#ffcd2c" d="M400.11 501.14c-12.05-37.04-40.97-60.97-73.68-60.97h-57.54c32.7 0 61.62 23.93 73.68 60.97a7.5 7.5 0 0 1-7.14 9.82h57.55a7.5 7.5 0 0 0 7.13-9.82z"/><path fill="#ffd039" d="M407.94 0H103.02a29.22 29.22 0 0 0-29.18 29.19 29.21 29.21 0 0 0 29.18 29.18h304.92a29.2 29.2 0 0 0 29.18-29.18A29.22 29.22 0 0 0 407.94 0z"/><path fill="#f4b70c" d="M407.94 0h-33.82c16.1 0 29.18 13.1 29.18 29.19a29.21 29.21 0 0 1-29.18 29.18h33.82a29.21 29.21 0 0 0 29.18-29.18A29.22 29.22 0 0 0 407.94 0z"/></svg>