<svg xmlns="http://www.w3.org/2000/svg" viewBox="0 0 509.63 509.63" width="509px" height="509px"><path fill="#d62d2d" d="M416.53 3.43a7.5 7.5 0 0 0-6.3-3.43H296.7a7.5 7.5 0 0 0-6.84 4.42l-41.89 93.1a7.5 7.5 0 0 0 0 6.16l37.08 82.41a7.5 7.5 0 0 0 6.84 4.43h39.38a7.5 7.5 0 0 0 6.84-4.43l78.96-175.51a7.5 7.5 0 0 0-.54-7.15z"/><path fill="#9e1219" d="M264.2 61.45l-16.23 36.08a7.5 7.5 0 0 0 0 6.15l37.08 82.41a7.5 7.5 0 0 0 6.84 4.43h30.37L264.2 61.45z"/><path fill="#ffa035" d="M254.81 232.4a28.47 28.47 0 0 1-28.44-28.44 28.47 28.47 0 0 1 28.44-28.44 28.47 28.47 0 0 1 28.44 28.44 28.47 28.47 0 0 1-28.44 28.44zm0-41.88a13.46 13.46 0 0 0-13.44 13.44 13.45 13.45 0 1 0 13.44-13.44z"/><path fill="#ff3d43" d="M298.73 179.94L219.77 4.42A7.5 7.5 0 0 0 212.93 0H99.4a7.5 7.5 0 0 0-6.84 10.58l78.96 175.51a7.5 7.5 0 0 0 6.84 4.43h113.53a7.5 7.5 0 0 0 6.84-10.58z"/><path fill="#d72e2e" d="M268.26 190.52h23.63a7.5 7.5 0 0 0 6.84-10.58L219.77 4.42A7.5 7.5 0 0 0 212.93 0h-30.37l85.7 190.52z"/><path fill="#ffd039" d="M255.02 217.4c-80.56 0-146.11 65.54-146.11 146.11 0 80.57 65.55 146.12 146.11 146.12 80.57 0 146.12-65.55 146.12-146.12 0-80.56-65.55-146.11-146.12-146.11z"/><path fill="#f4b70c" d="M255.02 217.4c-5.9 0-11.73.36-17.46 1.05 72.37 8.65 128.66 70.4 128.66 145.06s-56.3 136.41-128.66 145.07c5.73.69 11.56 1.05 17.46 1.05 80.57 0 146.12-65.55 146.12-146.12 0-80.56-65.55-146.11-146.12-146.11z"/><path fill="#fff5cf" d="M255.02 257.56c-58.42 0-105.95 47.53-105.95 105.95 0 58.43 47.53 105.96 105.95 105.96s105.95-47.53 105.95-105.96c0-58.42-47.53-105.95-105.95-105.95z"/><path fill="#ffeca1" d="M255.02 257.56c-5.58 0-11.06.44-16.41 1.28 50.65 7.9 89.54 51.83 89.54 104.67s-38.89 96.77-89.54 104.68c5.35.84 10.83 1.28 16.41 1.28 58.42 0 105.95-47.53 105.95-105.96 0-58.42-47.53-105.95-105.95-105.95z"/><path fill="#ffa035" d="M315.1 359.81a16.81 16.81 0 0 0 4.29-17.34 16.81 16.81 0 0 0-13.66-11.51l-23.56-3.43a1.91 1.91 0 0 1-1.44-1.05l-10.54-21.34a16.81 16.81 0 0 0-15.17-9.43 16.8 16.8 0 0 0-15.17 9.43l-10.53 21.34c-.28.57-.82.96-1.45 1.05l-23.55 3.43a16.81 16.81 0 0 0-13.66 11.51 16.8 16.8 0 0 0 4.28 17.34l17.05 16.62c.45.44.65 1.08.55 1.7l-4.03 23.46a16.81 16.81 0 0 0 6.73 16.55 16.86 16.86 0 0 0 17.82 1.29l21.07-11.08a1.9 1.9 0 0 1 1.79 0l21.07 11.08a16.81 16.81 0 0 0 17.81-1.3 16.81 16.81 0 0 0 6.73-16.54l-4.02-23.46c-.1-.62.1-1.26.55-1.7l17.05-16.62z"/><path fill="#f78819" d="M315.1 359.81a16.81 16.81 0 0 0 4.29-17.34 16.81 16.81 0 0 0-13.66-11.51l-1.13-.17-34.38 33.06a9.41 9.41 0 0 0-2.71 8.34l7.9 46.4 1.58.84a16.81 16.81 0 0 0 17.81-1.3 16.81 16.81 0 0 0 6.73-16.54l-4.02-23.46c-.1-.63.1-1.26.55-1.7l17.05-16.62z"/><path fill="#ffd039" d="M353.27 190.52h-196.9a7.5 7.5 0 0 1 0-15h196.9a7.5 7.5 0 1 1 0 15z"/></svg>