<svg xmlns="http://www.w3.org/2000/svg" width="512px" height="512px"><path fill="#5d5360" d="M474.12 164.84l9.15-9.64a6.56 6.56 0 0 0 .38-8.7c-9.6-11.75-37.82-43.03-74.97-54.67l7.58-12.78c1.89-3.2.78-7.4-2.47-9.2-99.11-55.06-177.4-21.89-208.26-2.47a6.6 6.6 0 0 0-.56 10.77l13.1 10.4c-20.27 13.52-37.2 28.67-47.59 38.74a6.61 6.61 0 0 0 4.6 11.37h168.86l142.2 181.82c8.47 10.84 25.86 4.84 25.86-8.91V231.7c0-9.08-2.46-18.07-7.22-25.8-16.66-27.07-30.66-41.07-30.66-41.07z"/><path fill="#4b3f4e" d="M454.03 193.16l-9-11.4a6.61 6.61 0 0 0-10.9.76l-5.57 9.52c-16.8-40.18-58.33-117.14-129.72-117.15-10.28 0-20.84 1.65-31.39 4.89a108.57 108.57 0 0 0-38.96 21.53l-41.66 37.35h157.11l142.2 181.82c8 10.24 23.79 5.36 25.52-6.8-14.65-40.38-36.4-93.65-57.63-120.52z"/><path fill="#c0826c" d="M508.74 355.82c-9.78-29.81-39.9-117.26-67.68-152.41l-8.72 14.88c-2.85 4.88-10.15 4.2-11.94-1.17C406.45 175.5 358.17 69.2 272.3 95.58a91.7 91.7 0 0 0-33.05 18.29L4.46 324.37c-3.3 2.96-5.09 7.45-4.26 11.81C2.11 346.25 8 350.94 14.24 353c2.74.9 5 2.79 6.28 5.38l8.84 17.84a16.48 16.48 0 0 0 22.69 7.27c3.04-1.66 6.38-3.7 9.8-5.88l28.86 17.58a16.4 16.4 0 0 0 16.16.54c24.73-12.9 100.8-50.75 157.17-58.7a135.51 135.51 0 0 0 32.8-8.95l62.05 162.89c2.08 5.45 9 7.1 13.31 3.15l131.99-121a16.47 16.47 0 0 0 4.55-17.3z"/><path fill="#f5dcb4" d="M145.57 288.81c-27.26-4.05-49.59-12.82-56.79-40.05l-84.32 75.6c-3.3 2.97-5.09 7.46-4.26 11.82 1.9 10.03 7.75 14.72 13.97 16.78 2.71.9 4.95 2.8 6.23 5.35l8.96 17.9a16.48 16.48 0 0 0 22.69 7.27c3-1.63 6.27-3.63 9.63-5.77l29.02 17.47a16.49 16.49 0 0 0 16.17.54c15.48-8.08 51.07-25.92 89.34-40.1 12.32-34.45-12.91-61.2-50.64-66.8z"/><path fill="#af6e5a" d="M266.63 23.04v82.43c0 9 7.2 16.68 17.03 18.16l19.24 2.9c13.16 1.98 24.96-7.87 23.69-19.86-5.79-54.5-31.16-79.22-46.98-89.52-5.43-3.53-12.99-.16-12.99 5.89z"/><path fill="#4b3f4e" d="M239.25 229.58a24.8 24.8 0 0 1-24.8-24.8v-8.26a24.8 24.8 0 1 1 49.6 0v8.26a24.8 24.8 0 0 1-24.8 24.8z"/><path fill="#5d5360" d="M239.25 171.72v28.93a12.4 12.4 0 0 0 24.8 0v-4.13a24.8 24.8 0 0 0-24.8-24.8z"/><circle cx="239.25" cy="188.25" r="8.27" fill="#fff"/><path fill="#af6e5a" d="M349.6 323.9a16.57 16.57 0 0 1 1.28-18.03c4.4-5.9 8.16-12.2 11.16-18.87 12.15-27 11.95-57.34-.56-87.73a8.26 8.26 0 1 0-15.29 6.3c10.75 26.07 11.01 51.89.77 74.65-9.32 20.73-27.1 37.58-50.16 47.78l62.09 162.96c2.08 5.45 9 7.1 13.3 3.15l48.05-44.04L349.6 323.9z"/><path fill="#965a50" d="M37.44 339.27c-2.5-5.06-10.66-5.45-16.19 2.23-2.7 3.76-5.07 7.3-12.55 8.72a21.5 21.5 0 0 0 5.47 2.74 10.6 10.6 0 0 1 5 3.77c15.86-1.28 21.12-11.66 18.27-17.46zm40.73 48.37c14.11-8.87 29.9-20.64 42.78-33.65a8.27 8.27 0 0 0-11.74-11.63c-14.29 14.42-34.06 26.7-47.53 35.35l16.5 9.93z"/></svg>