<svg xmlns="http://www.w3.org/2000/svg" width="512px" height="512px"><circle cx="256" cy="256" r="256" fill="#fddf6d"/><path fill="#fcc56b" d="M310.86 474.2c-141.39 0-256-114.6-256-256 0-75.53 32.72-143.41 84.76-190.27C56.74 70.3 0 156.53 0 256c0 141.38 114.61 256 256 256a255.04 255.04 0 0 0 171.24-65.72 254.92 254.92 0 0 1-116.38 27.93z"/><path fill="#7f184c" d="M245.9 187.17a10.41 10.41 0 0 1-10.42-10.41 24.39 24.39 0 0 0-24.36-24.36 24.4 24.4 0 0 0-24.36 24.36 10.41 10.41 0 1 1-20.83 0c0-24.92 20.28-45.2 45.2-45.2s45.18 20.28 45.18 45.2a10.4 10.4 0 0 1-10.41 10.41zm175.9 0a10.41 10.41 0 0 1-10.42-10.41c0-13.43-10.92-24.36-24.36-24.36s-24.36 10.93-24.36 24.36a10.41 10.41 0 1 1-20.83 0c0-24.92 20.28-45.2 45.2-45.2s45.18 20.28 45.18 45.2a10.4 10.4 0 0 1-10.41 10.41z"/><path fill="#fff" d="M293.25 443.08c-74 0-134-60-134-134h268c0 74-60 134-134 134z"/><path fill="#e6e6e6" d="M172.43 367.1a133.7 133.7 0 0 0 12.47 20.82h216.7a133.9 133.9 0 0 0 12.47-20.83H172.43z"/><path fill="#f9a880" d="M145.99 240.15a34.42 34.42 0 0 0-34.43 34.42h68.85A34.43 34.43 0 0 0 146 240.15zm300.26 0a34.42 34.42 0 0 0-34.42 34.42h68.85a34.42 34.42 0 0 0-34.43-34.42z"/><ellipse cx="292.91" cy="73.35" fill="#fceb88" rx="29.85" ry="53.46" transform="rotate(-74.2 292.91 73.35)"/></svg>