<svg xmlns="http://www.w3.org/2000/svg" width="512px" height="512px"><circle cx="338.58" cy="57.81" r="24.77" fill="#edebed"/><path fill="#dbd9dc" d="M350.97 70.2a24.77 24.77 0 0 1-24.78-24.78c0-3.63.83-7.05 2.23-10.16a24.74 24.74 0 1 0 32.7 32.7 24.6 24.6 0 0 1-10.15 2.23z"/><circle cx="255.91" cy="371.61" r="140.39" fill="#edebed"/><path fill="#dbd9dc" d="M301.33 466.58c-77.53 0-140.39-62.85-140.39-140.39 0-27.12 7.82-52.35 21.14-73.82-39.9 24.76-66.56 68.83-66.56 119.24 0 77.54 62.86 140.39 140.4 140.39 50.4 0 94.48-26.66 119.24-66.56a139.52 139.52 0 0 1-73.83 21.14z"/><path fill="#8b534f" d="M154.47 299.7l-47.12-47.02v-29.71a8.25 8.25 0 1 0-16.51 0v13.23L71.8 217.21a8.25 8.25 0 1 0-11.67 11.7l18.88 18.83H66.06a8.25 8.25 0 1 0 0 16.52h29.52l47.23 47.13a8.24 8.24 0 0 0 11.68-.01 8.25 8.25 0 0 0-.02-11.68zm291.38-51.96H432.9l18.86-18.85a8.25 8.25 0 1 0-11.67-11.67l-19.03 19v-13.25a8.25 8.25 0 1 0-16.51 0v29.75l-47.04 46.99a8.25 8.25 0 1 0 11.67 11.68l47.18-47.13h29.48a8.25 8.25 0 1 0 0-16.52z"/><circle cx="255.91" cy="363.36" r="16.52" fill="#dc4655"/><path fill="#e6646e" d="M255.91 214.71c-37.73 0-72.27 13.4-99.32 35.61a11.69 11.69 0 0 0-1.55 16.54c24.22 28.68 60.38 46.95 100.87 46.95s76.65-18.27 100.88-46.95a11.69 11.69 0 0 0-1.56-16.54 155.95 155.95 0 0 0-99.32-35.61z"/><g fill="#dc4655"><path d="M255.91 214.71c-37.73 0-72.27 13.4-99.32 35.61a11.69 11.69 0 0 0-1.55 16.54 132.07 132.07 0 0 0 70.9 43.49 136.94 136.94 0 0 1 14.42-25.02l11.43-15.54 13.03-54.69c-2.96-.16-5.9-.39-8.91-.39z"/><circle cx="255.91" cy="437.68" r="16.52"/></g><path fill="#e6646e" d="M197.4 260.13c-12.76 18.4-29.97 50.73-32.04 93.33a8.2 8.2 0 0 0 8.27 8.48h16.55a8.34 8.34 0 0 0 8.24-8.02c2.14-37.07 18.64-64.8 28.63-78.38l-29.64-15.42z"/><path fill="#d1f4ff" d="M421.16 132.13h-8.26v-8.26a8.25 8.25 0 1 0-16.51 0v8.26h-8.26a8.25 8.25 0 1 0 0 16.52h8.26v8.25a8.25 8.25 0 1 0 16.51 0v-8.25h8.26a8.25 8.25 0 1 0 0-16.52z"/><path fill="#b2edff" d="M82.58 305.55h-8.26v-8.26a8.25 8.25 0 1 0-16.51 0v8.26h-8.26a8.25 8.25 0 1 0 0 16.51h8.26v8.26a8.25 8.25 0 1 0 16.51 0v-8.26h8.26a8.25 8.25 0 1 0 0-16.51z"/><path fill="#d1f4ff" d="M114.9 136.26l6.55-6.55a8.25 8.25 0 1 0-11.68-11.68l-6.54 6.55-6.55-6.55A8.25 8.25 0 1 0 85 129.71l6.55 6.55L85 142.8a8.25 8.25 0 1 0 11.68 11.67l6.54-6.54 6.55 6.54a8.23 8.23 0 0 0 11.68 0 8.25 8.25 0 0 0 0-11.67l-6.55-6.55z"/><path fill="#b2edff" d="M461.74 317.94l6.55-6.55a8.25 8.25 0 1 0-11.68-11.68l-6.55 6.55-6.54-6.55a8.25 8.25 0 1 0-11.68 11.68l6.55 6.55-6.55 6.54a8.25 8.25 0 1 0 11.68 11.68l6.54-6.55 6.55 6.55a8.23 8.23 0 0 0 11.68 0 8.25 8.25 0 0 0 0-11.68l-6.55-6.54zM146.22 35.45a8.14 8.14 0 0 0-9.96-1.13 8.14 8.14 0 0 0-9.97 1.13 8.14 8.14 0 0 0-1.14 9.97 8.14 8.14 0 0 0 6.98 12.39c1.45 0 2.84-.53 4.13-1.29a8.18 8.18 0 0 0 4.13 1.29 8.14 8.14 0 0 0 6.97-12.39 8.14 8.14 0 0 0-1.13-9.97z"/><path fill="#d1f4ff" d="M468.29 398.8a8.14 8.14 0 0 0-9.97-1.13 8.14 8.14 0 0 0-9.97 1.14 8.14 8.14 0 0 0-1.13 9.96 8.14 8.14 0 0 0 6.97 12.4c1.45 0 2.84-.53 4.13-1.3a8.18 8.18 0 0 0 4.13 1.3 8.14 8.14 0 0 0 6.98-12.39 8.14 8.14 0 0 0-1.14-9.97z"/><path fill="#b2edff" d="M437.76 82.58c-4.57 0-8.3-3.7-8.3-8.26a8.22 8.22 0 0 1 8.22-8.25h.08a8.25 8.25 0 1 1 0 16.51z"/><path fill="#d1f4ff" d="M82.66 412.9c-4.57 0-8.3-3.7-8.3-8.25a8.22 8.22 0 0 1 8.22-8.26h.08a8.25 8.25 0 1 1 0 16.51z"/><circle cx="255.91" cy="181.68" r="99.1" fill="#edebed"/><path fill="#dbd9dc" d="M287.97 248.71c-54.73 0-99.1-44.36-99.1-99.1a98.5 98.5 0 0 1 14.93-52.1c-28.17 17.47-46.99 48.58-46.99 84.17 0 54.73 44.37 99.1 99.1 99.1 35.59 0 66.7-18.82 84.17-46.99a98.49 98.49 0 0 1-52.1 14.92z"/><path fill="#5d5360" d="M256 247.74c-10.21 0-20.12-3.27-29.47-9.72a8.27 8.27 0 0 1 9.39-13.6c13.05 9.02 27.05 9.02 40.17 0a8.25 8.25 0 1 1 9.37 13.6c-9.35 6.46-19.27 9.72-29.46 9.72z"/><path fill="#4b3f4e" d="M214.62 198.2c-9.12 0-16.52-7.4-16.52-16.52v-8.26a16.52 16.52 0 1 1 33.03 0v8.26a16.5 16.5 0 0 1-16.51 16.51z"/><path fill="#5d5360" d="M214.62 156.9v24.78a8.26 8.26 0 0 0 16.52 0v-8.26c0-9.12-7.4-16.52-16.52-16.52z"/><circle cx="214.62" cy="173.42" r="8.26" fill="#fff"/><path fill="#4b3f4e" d="M297.2 198.2c-9.12 0-16.51-7.4-16.51-16.52v-8.26a16.52 16.52 0 0 1 33.03 0v8.26c0 9.12-7.4 16.51-16.52 16.51z"/><path fill="#5d5360" d="M297.2 156.9v24.78a8.26 8.26 0 0 0 16.52 0v-8.26c0-9.12-7.4-16.52-16.52-16.52z"/><circle cx="297.2" cy="173.42" r="8.26" fill="#fff"/><path fill="#ff8087" d="M338.58 82.58H173.42a8.26 8.26 0 0 0-8.26 8.26v16.51c0 4.56 3.7 8.26 8.26 8.26h165.16c4.56 0 8.26-3.7 8.26-8.26V90.84c0-4.56-3.7-8.26-8.26-8.26z"/><path fill="#e6646e" d="M274.25 5.34a33.83 33.83 0 0 0-36.5 0c-44.81 29.13-64.33 77.24-64.33 77.24h165.16s-19.52-48.11-64.33-77.23z"/><path fill="#dc4655" d="M173.42 82.58h57.8s5.86-48.11 19.3-77.23C252.17 1.77 254.08 0 256 0a33.5 33.5 0 0 0-18.25 5.34c-44.81 29.12-64.33 77.24-64.33 77.24z"/><path fill="#e6646e" d="M214.7 107.36V90.84c0-4.56 3.7-8.26 8.27-8.26h-49.55a8.26 8.26 0 0 0-8.26 8.26v16.51c0 4.56 3.7 8.26 8.26 8.26h49.55a8.26 8.26 0 0 1-8.26-8.25z"/></svg>