<svg xmlns="http://www.w3.org/2000/svg" width="512px" height="512px"><path fill="#ebaf4b" d="M297.27 468.43h-54.32l26.9-54.67a8.5 8.5 0 0 0-15.25-7.5L224 468.43h-45.68a8.5 8.5 0 0 0 0 17h118.95a8.5 8.5 0 0 0 0-17z"/><path fill="#ffc850" d="M297.27 468.43h-20.33l26.9-54.67a8.5 8.5 0 0 0-15.25-7.5l-30.6 62.17h-45.68a8.5 8.5 0 0 0 0 17h84.97a8.5 8.5 0 0 0 0-17zM3.45 187.23l41.33 32.7 6.08-67.26-45.29 19.05a9.1 9.1 0 0 0-2.12 15.51z"/><path fill="#00c3ff" d="M427.12 268.22c-69.66-6.55-119.93-92.94-150.03-144.99-20.12-34.8-47.08-56.29-87-64.08l25.05-32.57S59.36 23.75 34.98 188.02c-16.33 144.46 100.88 237.92 236.8 237.92 110.28 0 205.91-65.68 239.61-156.47 2.86-7.7-4.91-15.04-12.5-11.89a150.71 150.71 0 0 1-71.77 10.64z"/><g fill="#00aaf0"><path d="M337.64 413.2c-135.93 0-253.14-93.47-236.81-237.92C114.5 83.2 169.43 43.63 215.1 26.63l.04-.05S59.36 23.75 34.98 188.02c-16.33 144.46 100.88 237.92 236.8 237.92 29.71 0 58.36-4.77 85.01-13.5-6.34.43-12.7.76-19.15.76z"/><path d="M299.46 155.6c-14.1-18.38-39.29-24.07-59.63-13l-.29.15c-114.98 62.6 8.56 278.38 197.88 112.14 7.02-6.17 2.67-17.8-6.68-17.8-30.2 0-79-13.35-131.28-81.5z"/></g><path fill="#0096dc" d="M411.46 235.3c-59.52 55.91-206.57 88.15-215.63-30.26-9.79 80.44 96.67 177.24 241.74 49.71 7.04-6.19 2.47-17.68-6.9-17.69-5.76 0-12.2-.5-19.2-1.76z"/><path fill="#4b3f4e" d="M110.34 188.03a25.5 25.5 0 0 1-25.5-25.5v-8.5a25.5 25.5 0 0 1 50.98 0v8.5a25.5 25.5 0 0 1-25.48 25.5z"/><path fill="#5d5360" d="M110.34 128.55v29.74a12.75 12.75 0 1 0 25.5 0v-4.25a25.5 25.5 0 0 0-25.5-25.5z"/><circle cx="110.34" cy="145.54" r="8.5" fill="#fff"/></svg>