<svg xmlns="http://www.w3.org/2000/svg" width="512px" height="512px"><path fill="#ffc850" d="M444.38 3.74c10.83-8.8 27.02-1.1 27.02 12.86v222.01l-182.26-107.7L444.38 3.74z"/><path fill="#ebaf4b" d="M454.83 228.82l-110.98-65.58L436.32 59c6.46-7.28 18.5-2.71 18.5 7.03v162.79z"/><path fill="#ffc850" d="M67.62 3.74C56.79-5.06 40.6 2.64 40.6 16.6v222.01l182.26-107.7L67.62 3.74z"/><path fill="#ebaf4b" d="M57.17 228.82l110.97-65.58L75.68 59c-6.46-7.28-18.51-2.71-18.51 7.03v162.79z"/><ellipse cx="256" cy="292.46" fill="#ffdc64" rx="231.97" ry="219.54"/><path fill="#ff8087" d="M289.14 429.15v16.57a33.14 33.14 0 1 1-66.28 0v-16.57L256 412.6l33.14 16.56z"/><path fill="#5d5360" d="M274.3 343.86h-36.6a9.4 9.4 0 0 0-7.3 15.3l18.3 22.64a9.4 9.4 0 0 0 14.6 0l18.3-22.64a9.4 9.4 0 0 0-7.3-15.3z"/><path fill="#e1a546" d="M479.67 437.44a8.3 8.3 0 0 1-3.81-.93c-50.1-26.05-128.5-41.53-129.28-41.68a8.28 8.28 0 0 1 3.17-16.26c3.3.64 81.51 16.07 133.75 43.23a8.29 8.29 0 0 1-3.83 15.64zm16.58-57.99c-.7 0-1.43-.1-2.15-.29-46.44-12.48-130.87-10.1-131.7-10.07a8.28 8.28 0 1 1-.5-16.56c3.55-.12 87.73-2.48 136.5 10.63a8.29 8.29 0 0 1-2.14 16.3z"/><path fill="#ffc850" d="M314 495.43c-128.12 0-231.98-98.29-231.98-219.54 0-89.03 56.04-165.63 136.52-200.08-110.3 16.95-194.5 107.47-194.5 216.65C24.03 413.71 127.88 512 256 512c34.04 0 66.33-7 95.45-19.46a246.34 246.34 0 0 1-37.46 2.9z"/><path fill="#e1a546" d="M32.32 437.44a8.28 8.28 0 0 1-3.83-15.64c52.24-27.16 130.46-42.6 133.76-43.23a8.29 8.29 0 0 1 3.17 16.26c-.79.15-79.19 15.63-129.28 41.68a8.25 8.25 0 0 1-3.82.93zm-16.58-57.99a8.3 8.3 0 0 1-2.14-16.29c48.77-13.11 132.94-10.74 136.5-10.63a8.29 8.29 0 0 1 8.03 8.53 8.36 8.36 0 0 1-8.53 8.03c-.85-.03-85.3-2.41-131.7 10.07a8.3 8.3 0 0 1-2.16.3z"/><path fill="#4b3f4e" d="M160.73 321.46c-15.95 0-29-13.05-29-29v-16.57c0-15.95 13.05-29 29-29s29 13.05 29 29v16.57c0 15.95-13.05 29-29 29z"/><path fill="#5d5360" d="M160.73 246.9c-1.42 0-2.78.22-4.14.42v41a16.57 16.57 0 1 0 33.13 0v-12.43c0-15.95-13.05-29-29-29z"/><circle cx="160.73" cy="267.61" r="12.43" fill="#fff"/><path fill="#4b3f4e" d="M351.27 321.46c-15.95 0-29-13.05-29-29v-16.57c0-15.95 13.05-29 29-29s29 13.05 29 29v16.57c0 15.95-13.05 29-29 29z"/><path fill="#5d5360" d="M351.27 246.9c-1.42 0-2.78.22-4.14.42v41a16.57 16.57 0 1 0 33.14 0v-12.43c0-15.95-13.05-29-29-29z"/><circle cx="351.27" cy="267.61" r="12.43" fill="#fff"/><path fill="#4b3f4e" d="M262.4 382.15l-18.29-36.22c-.33-.65-.52-1.37-.77-2.07h-5.64a9.4 9.4 0 0 0-7.3 15.3l18.3 22.63a9.3 9.3 0 0 0 13.86.6c-.05-.1-.1-.15-.15-.24z"/><path fill="#e6646e" d="M256 412.59l-33.14 16.57v16.56a33 33 0 0 0 .96 7.61 74.65 74.65 0 0 0 23.9-7.15V454a8.29 8.29 0 0 0 16.56 0v-7.83a74.64 74.64 0 0 0 23.9 7.15 33 33 0 0 0 .96-7.6v-16.57L256 412.59z"/><path fill="#ebaf4b" d="M297.42 437.44a57.62 57.62 0 0 1-32.65-10.07 15.87 15.87 0 0 0-17.54 0 57.88 57.88 0 0 1-71.32-4.78 8.3 8.3 0 0 1 11.06-12.34c13.91 12.48 35.69 13.85 50.9 3.44a32.35 32.35 0 0 1 36.25 0c15.22 10.4 37 9.04 50.91-3.43a8.28 8.28 0 1 1 11.06 12.33 57.87 57.87 0 0 1-38.67 14.85z"/></svg>