<svg xmlns="http://www.w3.org/2000/svg" width="512px" height="512px"><path fill="#867e88" d="M322.16 370.95v38.27l-13.28 1.66a13.18 13.18 0 0 0 1.64 26.27h44.74c9.14 0 16.55-7.41 16.55-16.55v-49.65h-49.65zm-182.05 9.83v28.44l-13.27 1.66a13.18 13.18 0 0 0 1.63 26.27h36.47c9.14 0 16.55-7.41 16.55-16.55v-39.82H140.1z"/><path fill="#9c969e" d="M363.53 370.95v38.27l-13.27 1.66a13.18 13.18 0 0 0 1.63 26.27h44.74c9.14 0 16.55-7.41 16.55-16.55v-49.65h-49.65zm-182.04 9.83v28.44l-13.28 1.66a13.18 13.18 0 0 0 1.64 26.27h36.46c9.14 0 16.55-7.41 16.55-16.55v-39.82h-41.37z"/><path fill="#f5dcb4" d="M144.51 239.6c-40-6.21-61.63 26.54-120.24 32.06C8.46 273.14 2.72 282.89.63 289.7A14.25 14.25 0 0 0 1.89 301c64.86 111.63 419.25 132.44 498.86 9.95l-47.58-47.58-308.66-23.79z"/><path fill="#ebc9a0" d="M5.16 281.06a26.13 26.13 0 0 0-4.53 8.65 14.25 14.25 0 0 0 1.26 11.3c64.86 111.63 419.25 132.44 498.86 9.95l-7.63-7.63c-198.45 139.6-443 25.73-487.96-22.27z"/><path fill="#9c969e" d="M144.51 239.6a62.83 62.83 0 0 0-16.3-.39c-3.27.55-6.61 1.14-10.02 1.76-26.15 6.58-49.35 26.5-93.92 30.69C8.45 273.15 2.7 282.9.63 289.73a14.22 14.22 0 0 0 1.25 11.26c19.13 32.92 63.5 57.9 118.52 73.67a91.22 91.22 0 0 0 37.95-74.04c0-21.91-9.53-37.95 3.42-59.7l-17.26-1.33z"/><path fill="#867e88" d="M508.83 219.24c-10.93-8.15-44.54-31.88-73.93-39.12l23.99-14.9a3.97 3.97 0 0 0-.34-6.96c-14.42-6.9-52.2-22.56-101.23-24.17l22.93-21.23a3.98 3.98 0 0 0-1.55-6.75c-16.38-4.73-61.25-14.31-108.95 4.88l9.02-31.01a3.97 3.97 0 0 0-4.95-4.95c-17.89 5.51-66.9 23.49-107.5 64.92l-5.91-16.66a3.96 3.96 0 0 0-5.94-2.01c-16.42 11-73.8 55.3-57.8 127.62 85.28-25.39 185.4 41.12 211.77 59.8a3.95 3.95 0 0 0 5.9-1.63l16.1-35.41s35.9 13.7 87.37 44.93a4 4 0 0 0 5.9-2.13l8.78-26.94c37.04 9.38 62.06 24.43 73.27 32.2a3.96 3.96 0 0 0 6.22-3.6c-1.33-14.52-6.23-44.65-24.33-69.29l21.6-21.6a3.97 3.97 0 0 0-.42-6z"/><path fill="#6f6571" d="M434.9 180.12l23.99-14.9a3.97 3.97 0 0 0-.34-6.96c-14.42-6.9-52.2-22.56-101.23-24.17l22.93-21.23a3.98 3.98 0 0 0-1.55-6.75c-16.38-4.73-61.25-14.31-108.95 4.88l9.02-31.01a3.97 3.97 0 0 0-4.95-4.95c-17.9 5.51-66.9 23.49-107.5 64.92l-5.92-16.66a3.96 3.96 0 0 0-5.93-2.01c-16.42 11-73.8 55.3-57.8 127.62 27.2-8.1 55.88-6.83 83.21-.77 0 0 22.81-51.98 75.56-76.29l10.35 27.93s67.06-34.65 169.11-19.65z"/><circle cx="107.02" cy="296.48" r="16.55" fill="#4b3f4e"/><path fill="#867e88" d="M193.37 184.5a8.28 8.28 0 0 1-6.6-13.26c9.82-13.01 26.01-31.53 47.36-45.76a8.28 8.28 0 0 1 9.18 13.77c-19.41 12.95-34.28 29.97-43.33 41.97a8.28 8.28 0 0 1-6.61 3.29zm83.83-18.31a8.27 8.27 0 0 1-4.72-15.08 142.43 142.43 0 0 1 47.78-21.29 8.33 8.33 0 0 1 9.96 6.16 8.29 8.29 0 0 1-6.16 9.96 125.56 125.56 0 0 0-42.16 18.78 8.25 8.25 0 0 1-4.7 1.47z"/><path fill="#9c969e" d="M357.35 182.46a8.27 8.27 0 0 1-1.03-16.48 232.53 232.53 0 0 1 43.75-1.17 8.26 8.26 0 0 1 7.56 8.92 8.39 8.39 0 0 1-8.92 7.57c-.2-.03-19.38-1.55-40.32 1.1-.35.04-.7.06-1.04.06zm102.71 58.84a8.22 8.22 0 0 1-4.72-1.47c-.07-.05-7.5-5.16-18.6-9.35a8.27 8.27 0 1 1 5.84-15.48c13.15 4.96 21.87 11 22.24 11.26a8.27 8.27 0 0 1-4.76 15.05z"/><path fill="#ebc9a0" d="M170.8 231a28.86 28.86 0 0 0-20.18 39.25c1.1 2.62 4.82 3.21 6.62 1.02 3.8-4.6 9.54-7.54 15.97-7.54 8.78 0 16.22 5.47 19.2 13.19 1.13 2.92 5.17 3.25 7.18.85a28.77 28.77 0 0 0 6.72-18.53 29 29 0 0 0-35.5-28.24z"/><path fill="#867e88" d="M5.16 281.06c-2.31 2.9-3.72 6-4.53 8.67a14.22 14.22 0 0 0 1.25 11.26c19.13 32.92 63.5 57.9 118.53 73.67a92.26 92.26 0 0 0 22.69-23.68C75.04 331.16 23.5 300.64 5.16 281.06z"/><path fill="#5d5360" d="M32.79 280.53c0-3.4-.65-6.6-1.58-9.7-2.27.31-4.56.6-6.94.83C8.45 273.15 2.7 282.9.63 289.73a14.22 14.22 0 0 0 1.25 11.26 92.18 92.18 0 0 0 7.94 11.46 33.77 33.77 0 0 0 22.97-31.92z"/></svg>