<svg xmlns="http://www.w3.org/2000/svg" width="512" height="512"><path fill="#f73e3e" d="M104.73 233.52v78.4H56.3a9.69 9.69 0 0 1-9.68-9.67V243.2a9.68 9.68 0 0 1 9.68-9.68h48.44z"/><path fill="#eb1410" d="M72.75 233.52h31.98v78.41H72.75z"/><path fill="#f86260" d="M149.26 341.79H95.02a9.68 9.68 0 0 1-9.69-9.68V229.9a9.68 9.68 0 0 1 9.69-9.69h54.24V341.8z"/><path fill="#f73e3e" d="M465.4 243.2v59.05a9.69 9.69 0 0 1-9.69 9.68h-48.44v-78.41h48.44a9.68 9.68 0 0 1 9.68 9.68z"/><path fill="#eb1410" d="M407.27 233.52h31.98v78.41h-31.98z"/><path fill="#f86260" d="M362.74 341.79h54.24a9.68 9.68 0 0 0 9.68-9.68V229.9a9.68 9.68 0 0 0-9.68-9.69h-54.25V341.8z"/><path fill="#f88280" d="M274.63 51.85h-37.26V18.63a18.63 18.63 0 0 1 37.27 0v33.22z"/><path fill="#f73e3e" d="M387.04 170.07v295.4H124.96v-295.4c0-8.56.82-16.93 2.38-25.02C139.02 84.65 192.18 39.03 256 39.03c36.2 0 68.95 14.67 92.66 38.38a130.8 130.8 0 0 1 38.38 92.66z"/><path fill="#eb1410" d="M387.04 170.07v295.4h-33.98v-295.4a130.8 130.8 0 0 0-38.38-92.66 130.67 130.67 0 0 0-75.64-37.29c5.54-.73 11.2-1.1 16.96-1.1 36.2 0 68.95 14.68 92.66 38.39a130.8 130.8 0 0 1 38.38 92.66z"/><path fill="#eb1410" d="M124.96 434.68h262.08v30.79H124.96zm262.08-264.61v26.72H124.96v-26.72c0-8.56.82-16.93 2.38-25.02h257.32c1.56 8.1 2.38 16.46 2.38 25.02z"/><path fill="#f86260" d="M408.84 486.29H101.12v-29.34a9.68 9.68 0 0 1 9.68-9.68h288.36a9.68 9.68 0 0 1 9.68 9.68v29.34z"/><path fill="#f88280" d="M415.26 512H96.74a15.8 15.8 0 0 1 0-31.62h318.52a15.8 15.8 0 0 1 0 31.62z"/><path fill="#f86260" d="M395.2 184.2H116.8a13.29 13.29 0 0 1 0-26.57h278.4a13.29 13.29 0 1 1 0 26.57z"/><path fill="#eb1410" d="M256 348.36a66.6 66.6 0 0 1-66.52-66.52c0-36.68 29.84-66.52 66.52-66.52s66.52 29.84 66.52 66.52A66.6 66.6 0 0 1 256 348.36z"/><circle cx="256" cy="281.84" r="53.93" fill="#f86260"/><circle cx="256" cy="281.84" r="19.72" fill="#b70e0a"/><path fill="#f86260" d="M265.68 391.2h-19.36a7.73 7.73 0 1 1 0-15.45h19.36a7.73 7.73 0 1 1 0 15.45z"/></svg>