<svg xmlns="http://www.w3.org/2000/svg" width="512px" height="512px"><g fill="#35c931"><path d="M512 256.07a115.94 115.94 0 0 1-7.71 7.83 120 120 0 0 1-81.78 32.25c-3.95 0-8.04-.17-11.82-.5H101.32c-3.78.33-7.88.5-11.82.5-10.42 0-20.53-1.34-30.15-3.84A120.48 120.48 0 0 1 0 256.07c2.44-2.72 5-5.34 7.67-7.84a119.87 119.87 0 0 1 51.67-28.54c9.64-2.5 19.73-3.85 30.16-3.85 3.94 0 8.04.17 11.83.5h309.36c3.78-.33 7.88-.5 11.83-.5 31.52 0 60.34 12.33 81.8 32.39 2.68 2.48 5.24 5.1 7.68 7.84z"/><path d="M296.1 418.63a119.57 119.57 0 0 1-32.3 85.64 114.8 114.8 0 0 1-7.87 7.73c-2.72-2.44-5.33-5-7.8-7.69a120.03 120.03 0 0 1-32.28-81.8c0-3.94.17-8.05.5-11.83V101.3c-.33-3.78-.5-7.88-.5-11.83 0-31.68 12.33-60.38 32.28-81.81 2.48-2.68 5.08-5.24 7.8-7.67 2.73 2.44 5.37 5.02 7.88 7.71a119.3 119.3 0 0 1 32.28 85.7c-.06 2.68-.2 5.36-.43 7.9v309.37c.22 2.55.37 5.25.44 7.95z"/></g><g fill="#2eaf27"><path d="M367.13 295.65A86.24 86.24 0 0 0 350 271.31c-6.47-6.47-13.85-11.3-21.55-15.29 7.7-4 15.08-8.83 21.55-15.29a86.2 86.2 0 0 0 17.15-24.4h-71.48V101.32a127 127 0 0 0 .43-7.9 86.32 86.32 0 0 0-68.4 25.02A78.97 78.97 0 0 0 216.35 133v83.33H101.33c-3.79-.32-7.9-.49-11.83-.49-10.43 0-20.52 1.34-30.16 3.85a86.2 86.2 0 0 0 15.49 21.04c6.47 6.46 13.85 11.3 21.55 15.29-7.7 3.98-15.08 8.82-21.55 15.29a86.44 86.44 0 0 0-15.48 21 119.9 119.9 0 0 0 30.15 3.83c3.94 0 8.04-.16 11.83-.49h115.02v83.39a79.16 79.16 0 0 0 11.35 14.56 86.3 86.3 0 0 0 68.4 25.03c-.07-2.7-.21-5.4-.43-7.96V295.65h71.46z"/><path d="M263.8 7.71v195.4h-15.67V7.68c2.48-2.68 5.08-5.24 7.8-7.67 2.73 2.44 5.37 5.03 7.88 7.71zm0 301.31v195.25c-2.5 2.7-5.13 5.27-7.87 7.73-2.72-2.44-5.33-5-7.8-7.69v-195.3h15.68zM512 256.07a115.94 115.94 0 0 1-7.71 7.83H7.69c-2.68-2.5-5.25-5.11-7.69-7.83 2.43-2.72 5-5.34 7.67-7.84h496.64a116 116 0 0 1 7.69 7.84z"/></g><path fill="#fcd42d" d="M372 256.02c7.72-4 15.1-8.83 21.57-15.29a86.48 86.48 0 1 0-122.3-122.3c-6.47 6.47-11.3 13.85-15.3 21.56-3.98-7.7-8.81-15.1-15.28-21.56a86.48 86.48 0 1 0-122.3 122.3c6.47 6.46 13.85 11.3 21.56 15.29-7.7 3.99-15.1 8.82-21.56 15.28a86.48 86.48 0 1 0 122.3 122.3c6.47-6.46 11.3-13.85 15.29-21.56 3.99 7.71 8.82 15.1 15.29 21.56a86.48 86.48 0 1 0 122.3-122.3c-6.47-6.46-13.86-11.3-21.56-15.28z"/><g fill="#e2bd23"><path d="M148.04 393.6a86.48 86.48 0 0 1 0-122.3c6.46-6.46 13.85-11.3 21.56-15.28-7.71-4-15.1-8.83-21.56-15.3A86.48 86.48 0 0 1 194.36 94.4a86.48 86.48 0 0 0-75.97 146.33c6.47 6.46 13.85 11.3 21.56 15.29-7.7 3.99-15.1 8.82-21.56 15.28a86.48 86.48 0 0 0 75.97 146.33 86.07 86.07 0 0 1-46.32-24.03z"/><path d="M168 351.83a7.84 7.84 0 0 1-5.54-13.38L338.42 162.5a7.84 7.84 0 0 1 11.08 11.09L173.54 349.54a7.81 7.81 0 0 1-5.54 2.3z"/><path d="M343.96 351.83c-2 0-4.01-.76-5.54-2.3L162.46 173.59a7.84 7.84 0 1 1 11.08-11.09L349.5 338.47a7.84 7.84 0 0 1-5.54 13.37z"/></g><circle cx="255.98" cy="256.01" r="46.55" fill="#dd8d19"/></svg>