<svg xmlns="http://www.w3.org/2000/svg" width="512px" height="512px"><path fill="#afd755" d="M452.34 125.5c-5.22-16.3-15.96-27.9-28.9-34.46-4.8-2.44-7.99-7-8.63-12.34-1.74-14.4-8.96-28.46-22.48-38.95-11.5-8.92-26.3-13.28-40.72-11.35-54.2 7.26-79.65 90.45-89.84 137.93 6.68-48.1 11.25-134.98-37.2-160.34C211.7-.76 196.3-1.73 182.44 2.7c-16.29 5.23-27.89 15.97-34.45 28.9-2.43 4.8-7 8-12.34 8.64-14.4 1.73-28.46 8.96-38.94 22.48-8.92 11.5-13.28 26.3-11.35 40.72 7.25 54.2 90.44 79.64 137.93 89.83-48.1-6.68-134.98-11.24-160.35 37.2-6.75 12.89-7.72 28.29-3.27 42.14 5.22 16.3 15.96 27.9 28.9 34.46a15.82 15.82 0 0 1 8.63 12.34c1.74 14.4 8.96 28.46 22.48 38.94 11.5 8.92 26.3 13.28 40.72 11.35 54.2-7.25 79.65-90.44 89.83-137.93-6.68 48.1-11.24 134.98 37.2 160.35 12.9 6.75 28.3 7.72 42.14 3.27 16.3-5.22 27.9-15.96 34.46-28.9 2.43-4.8 7-8 12.34-8.64 14.4-1.73 28.46-8.96 38.94-22.48 8.92-11.5 13.28-26.3 11.35-40.71-7.25-54.2-90.44-79.65-137.93-89.84 48.1 6.68 134.98 11.25 160.35-37.2 6.75-12.89 7.72-28.28 3.27-42.14z"/><path fill="#bee86e" d="M62.93 230.48c-6.75 12.89-7.72 28.29-3.27 42.14 5.22 16.3 15.96 27.9 28.9 34.46a15.9 15.9 0 0 1 5.98 5.28L256 199.06s-157.4-36.7-193.07 31.42zm386.14-62.85c6.75-12.89 7.72-28.28 3.27-42.14-5.22-16.29-15.96-27.9-28.9-34.45a15.94 15.94 0 0 1-5.87-5.08L256 199.06s157.4 36.7 193.07-31.43zM256 199.06s36.7-157.4-31.42-193.07c-12.9-6.75-28.3-7.72-42.15-3.28-16.29 5.23-27.89 15.97-34.45 28.9a15.96 15.96 0 0 1-5.08 5.88L256 199.06zm0 0s-36.7 157.4 31.42 193.07c12.9 6.75 28.3 7.72 42.14 3.27 16.3-5.22 27.9-15.96 34.46-28.9 1.22-2.4 2.96-4.4 5.08-5.88L256 199.06z"/><path fill="#96be4b" d="M118.61 303.36a8.14 8.14 0 0 1-4.67-14.8l12.5-8.73a8.13 8.13 0 1 1 9.32 13.33l-12.5 8.73a8.1 8.1 0 0 1-4.65 1.47zm37.48-26.22a8.13 8.13 0 0 1-4.67-14.8l56.2-39.35a8.13 8.13 0 1 1 9.33 13.33l-56.2 39.35a8.07 8.07 0 0 1-4.66 1.47zm224.82-157.38a8.14 8.14 0 0 1-4.67-14.8l12.5-8.74a8.13 8.13 0 1 1 9.32 13.33l-12.5 8.74a8.1 8.1 0 0 1-4.65 1.47zm-81.19 56.84a8.13 8.13 0 0 1-4.67-14.8l56.2-39.36a8.13 8.13 0 1 1 9.33 13.33l-56.2 39.35a8.07 8.07 0 0 1-4.66 1.47zM168.57 82.29a8.11 8.11 0 0 1-6.67-3.48l-8.74-12.48A8.14 8.14 0 0 1 166.5 57l8.74 12.49a8.14 8.14 0 0 1-6.66 12.8zm56.83 81.19a8.12 8.12 0 0 1-6.67-3.48l-39.34-56.2a8.13 8.13 0 1 1 13.33-9.33l39.34 56.2a8.13 8.13 0 0 1-6.65 12.8zm126.78 181.11a8.08 8.08 0 0 1-6.67-3.48l-8.74-12.48a8.14 8.14 0 0 1 13.33-9.33l8.74 12.49a8.14 8.14 0 0 1-6.66 12.8zm-26.22-37.48a8.1 8.1 0 0 1-6.68-3.47l-39.34-56.2a8.13 8.13 0 1 1 13.33-9.33l39.34 56.2a8.13 8.13 0 0 1-6.65 12.8zm-58 204.89a8.12 8.12 0 0 1-7.13-4.22c-30.51-55.51-40.26-131.05-28.97-224.53 5.65-46.82 15.85-84.73 16.3-86.32a8.13 8.13 0 1 1 15.7 4.26c-.11.38-10.34 38.42-15.84 84.01-10.88 90.03-1.77 162.28 27.06 214.75a8.12 8.12 0 0 1-7.12 12.05z"/></svg>