<svg xmlns="http://www.w3.org/2000/svg" width="512px" height="512px"><path fill="#eb9500" d="M498.26 338.89a255 255 0 0 1-61.25 98.13 254.78 254.78 0 0 1-150.28 73.13h-.01a256.44 256.44 0 0 1-137.54-21.43A255.1 255.1 0 0 1 126.66 477a256.66 256.66 0 0 1-51.68-39.98 255.02 255.02 0 0 1-61.16-97.88 257.2 257.2 0 0 1-2.81-157.55A254.43 254.43 0 0 1 74.98 74.97c3.23-3.22 6.52-6.35 9.87-9.36C144.46 11.94 223.2-8.8 297.62 3.4a254.74 254.74 0 0 1 143.05 75.32c5.14 5.34 10 10.85 14.59 16.52 56.44 69.78 70.77 162.32 43 243.66z"/><path fill="#cc7a05" d="M92.41 256.17c0-125.5 90.38-229.9 209.6-251.65A256.75 256.75 0 0 0 255.82.34C114.54.34 0 114.88 0 256.17S114.54 512 255.83 512c15.77 0 31.2-1.44 46.17-4.18C182.78 486.06 92.41 381.67 92.41 256.17z"/><path fill="#a05802" d="M498.26 338.89a244.39 244.39 0 0 1-6.06 15.96l-3.56-3.75a557.29 557.29 0 0 0-254.58-143.38h-.01c-48.68 86.16-34.83 194.83 34.6 266.15A226.38 226.38 0 0 0 301 501.4l7.17 5.26a244.66 244.66 0 0 1-20.35 3.35l-1.1.14h-.02v-.01c-3.7-2.73-7.3-5.58-10.83-8.54a239.23 239.23 0 0 1-18.32-16.94c-73.16-75.19-88.6-189.17-39.13-280.65a561.1 561.1 0 0 0-71.87-11.14 370.67 370.67 0 0 0-28.88 174.3 368.03 368.03 0 0 0 26.3 111.56l5.2 9.99A255.1 255.1 0 0 1 126.65 477a385.31 385.31 0 0 1-25.2-153.17 384.97 384.97 0 0 1 28.83-132.17 560.2 560.2 0 0 0-43.35-.92A385.04 385.04 0 0 1 23.2 352.82l-2.8 3.5a249.64 249.64 0 0 1-6.58-17.18 369.3 369.3 0 0 0 57.4-147.9c-20.55.94-41.2 3.02-61.47 6.18l-3.1.52h-.02A253.7 253.7 0 0 1 11 181.6l.05-.01a583.88 583.88 0 0 1 62.23-5.9 369.91 369.91 0 0 0-1.93-96.76l-.03-.21a253.98 253.98 0 0 1 13.52-13.1l.04.23.8 4.75a385.44 385.44 0 0 1 3.2 104.66 582.03 582.03 0 0 1 48 1.34 382.47 382.47 0 0 1 80.53-113.24 384.82 384.82 0 0 1 79.7-59.67l.5-.29c8.07 1.32 16.1 3.03 24.03 5.12L312.3 13a368.37 368.37 0 0 0-84.09 61.43 367.12 367.12 0 0 0-74.84 103.54 578.92 578.92 0 0 1 73.27 12.04 239.84 239.84 0 0 1 35.54-43.79 239.44 239.44 0 0 1 178.5-67.51c5.14 5.34 10 10.85 14.58 16.52l-9.17-.7a224 224 0 0 0-203.56 99.39 572.72 572.72 0 0 1 255.74 144.97z"/><path fill="#cc7a05" d="M437.3 202.34a7.8 7.8 0 0 1-7.33-5.31 7.78 7.78 0 0 1 2.3-8.28c5.33-4.57 13.69.06 12.68 6.99a7.8 7.8 0 0 1-7.64 6.6zm27.84-15.46c-6.8 0-10.26-8.61-5.35-13.32 5-4.8 13.56-.75 13.06 6.15a7.8 7.8 0 0 1-7.71 7.17zm3.09 34.37c-6.7 0-10.16-8.3-5.57-13.1a7.8 7.8 0 0 1 9.22-1.45 7.8 7.8 0 0 1 4 7.95 7.82 7.82 0 0 1-7.65 6.6zm-135.55 255.8c-6.92 0-10.32-8.82-5.19-13.46a7.8 7.8 0 0 1 9.32-.8 7.78 7.78 0 0 1 3.47 7.96 7.8 7.8 0 0 1-7.6 6.3zm-36.08-27.32a7.8 7.8 0 0 1-7.33-5.3 7.79 7.79 0 0 1 2.55-8.5c5.38-4.2 13.46.4 12.42 7.2a7.8 7.8 0 0 1-7.64 6.6zm32.47 0c-3.3 0-6.3-2.17-7.33-5.3a7.8 7.8 0 0 1 2.58-8.52c5.38-4.16 13.43.45 12.4 7.23a7.8 7.8 0 0 1-7.65 6.6zm35.66 9.27a7.8 7.8 0 0 1-7.28-5.12 7.8 7.8 0 0 1 2.92-8.98c5.62-3.82 13.34 1.28 11.93 7.97a7.8 7.8 0 0 1-7.57 6.14z"/><path fill="#eb9500" d="M44.56 367.79a7.8 7.8 0 0 1-7.27-5.14 7.8 7.8 0 0 1 2.67-8.81c5.63-4.16 13.69 1.04 12.15 7.9a7.8 7.8 0 0 1-7.55 6.05z"/><path fill="#cc7a05" d="M302.79 482.2c-7.02 0-10.38-9.05-5.02-13.6 5.4-4.6 13.85.22 12.63 7.2a7.8 7.8 0 0 1-7.61 6.4z"/><path fill="#eb9500" d="M64.66 392.53c-6.83 0-10.27-8.63-5.33-13.34a7.8 7.8 0 0 1 8.98-1.21 7.8 7.8 0 0 1 3.97 8.13 7.8 7.8 0 0 1-7.62 6.42z"/><path fill="#894802" d="M143.98 478.73l5.2 9.99A255.1 255.1 0 0 1 126.66 477a385.31 385.31 0 0 1-25.2-153.17 253.8 253.8 0 0 0 16.22 43.34 368.02 368.02 0 0 0 26.3 111.56zm131.9 22.87a252 252 0 0 0 26.12 6.22c-4.68.86-9.4 1.59-14.17 2.19l-1.13.13c-3.69-2.73-7.3-5.58-10.82-8.53zM105.47 175.27a257.9 257.9 0 0 0-4.6 15.41c-4.65-.04-9.3-.02-13.93.06A385.05 385.05 0 0 1 23.2 352.82l-2.8 3.5a249.64 249.64 0 0 1-6.58-17.18 369.3 369.3 0 0 0 57.4-147.9c-20.56.94-41.2 3.02-61.47 6.18l-3.1.52a247.76 247.76 0 0 1 4.4-16.36 583.88 583.88 0 0 1 62.24-5.9 369.91 369.91 0 0 0-1.93-96.76c4.34-4.53 8.86-8.9 13.53-13.08l.8 4.75a385.44 385.44 0 0 1 3.2 104.66c5.52-.07 11.04-.07 16.58.02zM302 4.51c-3.3.61-6.6 1.28-9.86 2.01 1.65-.96 3.3-1.91 4.98-2.84 1.64.26 3.26.53 4.88.83z"/></svg>