<svg xmlns="http://www.w3.org/2000/svg" width="512px" height="512px"><path fill="#aea8af" d="M478.97 0S475 183.68 373.67 267.87L299.88 208C366.57 66.72 478.97 0 478.97 0z"/><path fill="#9c969e" d="M373.68 267.87l-32.69-26.51-2.45-21.75C356.36 178.72 403.17 82.11 478.97 0c0 0-3.97 183.68-105.3 267.87z"/><path fill="#aea8af" d="M33.03 0S37 183.68 138.33 267.87l73.8-59.87C145.43 66.72 33.03 0 33.03 0z"/><path fill="#9c969e" d="M138.32 267.87l32.69-26.51 2.45-21.75C155.64 178.72 108.83 82.11 33.03 0c0 0 3.97 183.68 105.3 267.87z"/><path fill="#c9c6ca" d="M401.64 361.41c-8.92-15.48-14.2-32.58-13.57-50.21.04-1.06.06-2.11.06-3.17 0-60.66-59.16-109.84-132.13-109.84s-132.13 49.18-132.13 109.83c0 1.07.02 2.12.06 3.18.64 17.63-4.65 34.73-13.57 50.21-7.25 12.6-11.26 26.34-11.26 40.76C99.1 462.83 169.35 512 256 512s156.9-49.17 156.9-109.83c0-14.42-4.01-28.16-11.26-40.76z"/><path fill="#c0bcc1" d="M159.66 415.1c0-16.69 4.01-32.6 11.26-47.19 8.92-17.92 14.2-37.72 13.57-58.14a117.9 117.9 0 0 1-.06-3.67c0-45.3 24.69-84.97 61.74-107.5-68.36 4.2-122.3 51.53-122.3 109.42 0 1.07.02 2.12.06 3.18.64 17.63-4.65 34.73-13.57 50.21-7.25 12.6-11.26 26.34-11.26 40.76 0 48.9 45.67 90.28 108.75 104.51-29.66-23.14-48.2-55.57-48.2-91.57z"/><path fill="#4b3f4e" d="M181.68 388.13a24.77 24.77 0 0 1-24.78-24.77v-8.26a24.77 24.77 0 0 1 49.55 0v8.26a24.77 24.77 0 0 1-24.77 24.77z"/><path fill="#5d5360" d="M181.68 330.32v28.9a12.39 12.39 0 0 0 24.77 0v-4.12a24.77 24.77 0 0 0-24.77-24.78z"/><circle cx="181.68" cy="346.84" r="8.26" fill="#fff"/><path fill="#4b3f4e" d="M330.32 388.13a24.77 24.77 0 0 1-24.77-24.77v-8.26a24.77 24.77 0 0 1 49.55 0v8.26a24.77 24.77 0 0 1-24.78 24.77z"/><path fill="#5d5360" d="M330.32 330.32v28.9a12.39 12.39 0 0 0 24.78 0v-4.12a24.77 24.77 0 0 0-24.78-24.78z"/><circle cx="330.32" cy="346.84" r="8.26" fill="#fff"/><path fill="#dbd9dc" d="M330.32 412.9c-49.55-16.51-57.8-41.29-57.8-57.8s-8.26-24.78-16.52-24.78-16.52 8.26-16.52 24.78-8.25 41.29-57.8 57.8c-34.59 11.53-44.99 35.14-42.53 62.39C167.88 497.77 209.52 512 256 512s88.12-14.23 116.85-36.71c2.46-27.25-7.94-50.86-42.53-62.39z"/><path fill="#c0bcc1" d="M284.01 500.99a42.76 42.76 0 0 1-26.87-9.48 1.86 1.86 0 0 0-2.28 0 42.75 42.75 0 0 1-26.87 9.48c-14.78 0-28.51-7.59-36.73-20.29a8.26 8.26 0 0 1 13.87-8.97c5.16 7.98 13.7 12.74 22.86 12.74a26.4 26.4 0 0 0 16.58-5.88 18.47 18.47 0 0 1 22.87 0 26.4 26.4 0 0 0 16.57 5.88c9.16 0 17.7-4.76 22.86-12.74a8.26 8.26 0 0 1 13.87 8.97c-8.22 12.7-21.95 20.29-36.73 20.29z"/><path fill="#ff96a0" d="M256 412.9c20.79 0 37.64 12.27 37.64 27.4 0 14.58-15.82 22.26-27.24 27.94a23.15 23.15 0 0 1-20.8 0c-11.42-5.68-27.24-13.36-27.24-27.95 0-15.12 16.85-27.39 37.64-27.39z"/><path fill="#ff8087" d="M264.42 464.76c-11.42-6.73-27.24-15.83-27.24-33.1 0-6.24 2.08-12.05 5.61-16.99-14.26 3.9-24.43 13.88-24.43 25.62 0 14.59 15.82 22.27 27.24 27.95a23.15 23.15 0 0 0 20.8 0l2.84-1.42a21.47 21.47 0 0 1-4.82-2.06z"/><path fill="#c9c6ca" d="M207.85 506.68c-27.3-21.29-44.97-50.5-47.65-83.07-17.48 12.79-22.9 31.2-21.05 51.68l-.02.04c18.35 14.33 41.94 25.3 68.72 31.35z"/></svg>