<svg xmlns="http://www.w3.org/2000/svg" width="512px" height="512px"><path fill="#ebaf4b" d="M201.01 401.56a8.46 8.46 0 0 0-11.75-2.26l-57.95 39.26-39.68-22.29a8.46 8.46 0 1 0-8.29 14.75l66.36 37.27a8.46 8.46 0 0 0 8.28-14.75l-10.18-5.72 50.95-34.51a8.47 8.47 0 0 0 2.26-11.75zm106.33 82.77h-9.56l-9.84-68.85a8.46 8.46 0 0 0-16.74 2.4l9.5 66.45h-41.01a8.46 8.46 0 0 0 0 16.92h67.65a8.46 8.46 0 0 0 0-16.92z"/><path fill="#ffdc64" d="M442.93 276.74c-73.35-9.44-174.47-55.02-177.83-146.82-2.3-62.88-50.42-116.4-113.29-119.06A118.43 118.43 0 0 0 37.1 84.26c-6.78 16.53-8.76 34.64-6.33 52.34l2.3 16.72a100.74 100.74 0 0 0 20.02 48.13 24.7 24.7 0 0 1 5.12 15.54c-1.83 108.17 75.5 216.73 217.63 216.73 109 0 201.68-64.48 235.52-153.88 3.03-8.01-5.1-15.66-12.93-12.18-13.84 6.14-33.57 11.9-55.49 9.08z"/><g fill="#ffc850"><path d="M335.03 423.15c-141.88 0-272.65-124.62-239.22-348.27 3.82-25.59 19.35-48.5 37.7-63.37a118.49 118.49 0 0 0-96.9 73.94c-6.58 16.56-8.1 34.7-5.68 52.36l1.9 13.83c2.47 18 9.07 35.35 20.18 49.71l.28.36c3.5 4.49 4.99 10.14 4.9 15.83-1.56 108 75.76 216.18 217.64 216.18 26.79 0 52.5-4.08 76.68-11.27-5.8.37-11.6.7-17.48.7z"/><path d="M298.02 185.46c-29.74-23.5-71.66-21.6-100.6 2.88-110.14 93.15 93.02 279.84 252.42 72.89a10.39 10.39 0 0 0-6.01-16.46c-31.64-7.03-103.46-25.85-145.8-59.3z"/></g><path fill="#eb914b" d="M25.88 126.48L2.4 146.44a6.8 6.8 0 0 0 1.7 11.41l28.25 12.2a6.8 6.8 0 0 0 9.1-3.97c3.25-8.9 6.45-25.24-6.05-38.98a6.9 6.9 0 0 0-9.52-.62z"/><path fill="#ebaf4b" d="M443.83 244.77c-7.65-1.7-17.66-4.1-29.02-7.22C347.34 338.95 215.64 361 170.9 278.2c27.12 77.12 164.33 131.84 278.94-17a10.38 10.38 0 0 0-6.02-16.43z"/><path fill="#4b3f4e" d="M104.4 146.06a25.37 25.37 0 0 1-25.37-25.37v-8.46a25.37 25.37 0 1 1 50.74 0v8.46a25.37 25.37 0 0 1-25.37 25.37z"/><path fill="#5d5360" d="M104.4 86.86v29.6a12.68 12.68 0 1 0 25.37 0v-4.23a25.37 25.37 0 0 0-25.37-25.37z"/><circle cx="104.4" cy="103.78" r="8.46" fill="#fff"/></svg>