<svg xmlns="http://www.w3.org/2000/svg" width="512px" height="512px"><path fill="#4b3f4e" d="M328 512a8 8 0 0 1-7.66-10.34l43.99-144a8 8 0 1 1 15.3 4.67l-43.98 144A8 8 0 0 1 328 512z"/><path fill="#aea8af" d="M320 264c23.4 87.74 76.74 154.1 103.72 183.43 6.26 6.8 17.6 2.72 18.1-6.51C445.28 375.38 443.08 189.88 312 144l-24 72 32 48z"/><path fill="#9c969e" d="M385.64 400.23C361.25 365.87 334.7 319.17 320 264l-32-48 18.67-56H312c79.02 59.27 98.41 145.64 98.33 232.34 0 13.21-17.04 18.66-24.7 7.89z"/><path fill="#867e88" d="M309.33 152H312a8 8 0 0 1 4.8 1.6c81.63 61.22 100.89 151 101.52 234.16.06 7.42-9.22 10.85-14.05 5.22a7.88 7.88 0 0 1-1.9-5.1c-.33-80.72-18.31-162.56-93.06-219.88H304l5.33-16z"/><path fill="#4b3f4e" d="M184 512a8 8 0 0 1-7.65-5.67l-43.98-144a8 8 0 0 1 15.3-4.67l43.98 144A8 8 0 0 1 184 512z"/><path fill="#ffdc64" d="M328 270.52C328 381.33 295.76 472 256 472s-72-89.41-72-201.48c0-55.64 32.24-70.52 72-70.52s72 14.88 72 70.52z"/><path fill="#ffc850" d="M224 274.67c0-48.78 22.13-67.93 52.3-73.09A122.9 122.9 0 0 0 256 200c-39.76 0-72 14.88-72 70.52C184 382.59 216.24 472 256 472c3.66 0 7.25-.78 10.76-2.26C241.57 436.72 224 362.25 224 274.67z"/><path fill="#4b3f4e" d="M88 192a8 8 0 0 1-2.53-15.6l120-40a8 8 0 0 1 5.06 15.18l-120 40c-.84.29-1.7.42-2.53.42z"/><path fill="#aea8af" d="M192 264c-23.4 87.74-76.74 154.1-103.72 183.43-6.26 6.8-17.6 2.72-18.1-6.51C66.72 375.38 68.92 189.88 200 144l24 72-32 48z"/><path fill="#9c969e" d="M126.36 400.23C150.75 365.87 177.29 319.17 192 264l32-48-18.67-56H200c-79.02 59.27-98.41 145.64-98.33 232.34 0 13.21 17.04 18.66 24.69 7.89z"/><path fill="#867e88" d="M202.67 152H200a8 8 0 0 0-4.8 1.6c-81.63 61.22-100.9 151-101.52 234.16-.06 7.42 9.22 10.85 14.05 5.22a7.88 7.88 0 0 0 1.9-5.1c.33-80.72 18.31-162.56 93.06-219.88H208l-5.33-16z"/><g fill="#4b3f4e"><path d="M224 136a7.96 7.96 0 0 1-3.97-1.05l-52.9-30.23-44.6 14.87a8 8 0 1 1-5.06-15.18l44.6-14.87a16.02 16.02 0 0 1 13 1.29l52.9 30.22a8 8 0 0 1-3.98 14.95zm200 56a8 8 0 0 0 2.53-15.6l-120-40a8 8 0 0 0-5.06 15.18l120 40c.84.29 1.7.42 2.53.42zm-136-56c1.35 0 2.72-.34 3.97-1.05l52.9-30.23 44.6 14.87a8 8 0 1 0 5.06-15.18l-44.6-14.87a16.02 16.02 0 0 0-13 1.29l-52.9 30.22a8 8 0 0 0 3.98 14.95z"/><path d="M356.44 17.34l-24-16a8 8 0 0 0-9.09.15l-41.63 29.74a15.9 15.9 0 0 1-13.38 2.39 47.8 47.8 0 0 0-24.69 0 15.9 15.9 0 0 1-13.37-2.4L188.65 1.5a8 8 0 0 0-9.09-.15l-24 16a8 8 0 0 0 8.88 13.32l19.4-12.94 38.86 27.75a48.01 48.01 0 0 0-13.55 45.18 47.75 47.75 0 0 0 36.52 36.27A48.06 48.06 0 0 0 304 80c0-13.57-5.65-25.8-14.7-34.53l38.85-27.75 19.41 12.94a8 8 0 0 0 8.88-13.32z"/></g><circle cx="256" cy="168" r="64" fill="#5d5360"/><path fill="#4b3f4e" d="M288 200a64 64 0 0 1-64-64c0-9.38 2.07-18.27 5.7-26.3A63.97 63.97 0 0 0 256 232a63.96 63.96 0 0 0 58.3-37.7A63.63 63.63 0 0 1 288 200z"/><path fill="#ffdc64" d="M288 80a16 16 0 0 1-16-16v-8a16 16 0 1 1 32 0v8a16 16 0 0 1-16 16zm-64 0a16 16 0 0 0 16-16v-8a16 16 0 1 0-32 0v8a16 16 0 0 0 16 16z"/><path fill="#fff082" d="M224 40v24a8 8 0 0 0 16 0v-8a16 16 0 0 0-16-16zm64 0v24a8 8 0 0 0 16 0v-8a16 16 0 0 0-16-16z"/><g fill="#5d5360"><path d="M256 245.33c-35.8 0-65.5 12.65-71.06 57.73.52 9.17 1.26 18.13 2.21 26.82 8.96-35.63 36.36-46.13 68.85-46.13 32.45 0 59.82 10.48 68.81 46 .96-8.68 1.7-17.61 2.24-26.73-5.59-45.04-35.26-57.69-71.05-57.69z"/><path d="M320.39 359.56c-11.83-26.65-36.22-34.9-64.39-34.9-28.3 0-52.8 8.33-64.56 35.29v.12a376.08 376.08 0 0 0 6.14 28.5C210.66 370.16 231.9 364 256 364c24.03 0 45.24 6.11 58.32 24.42a377.78 377.78 0 0 0 6.07-27.96v-.9zM216.1 438.42c11.68-4.47 25.3-6.28 39.9-6.28 14.55 0 28.12 1.77 39.77 6.2a187.9 187.9 0 0 0 11.45-26.45c-13.69-8.7-31.58-11.9-51.2-11.9-19.72 0-37.66 3.22-51.37 12a186.6 186.6 0 0 0 11.44 26.43z"/></g><path fill="#4b3f4e" d="M224 274.67c0-9.64.9-18.07 2.51-25.52-21.65 6.46-37.64 22.07-41.57 53.9v.02c.52 9.16 1.26 18.11 2.21 26.8 5.8-23.07 19.37-35.56 37.02-41.53-.1-4.53-.17-9.07-.17-13.67zm2.35 54.03c-15.17 4.79-27.54 14.36-34.91 31.25v.12a376.08 376.08 0 0 0 6.14 28.51c8.3-11.7 19.9-18.42 33.42-21.79a531.77 531.77 0 0 1-4.65-38.1zm21.15 103.72a294.25 294.25 0 0 1-9.53-31.34c-12.55 1.55-23.94 4.9-33.32 10.91a186.6 186.6 0 0 0 11.44 26.43c9.38-3.59 20.04-5.4 31.42-6z"/></svg>