<svg xmlns="http://www.w3.org/2000/svg" width="512px" height="512px"><circle cx="421.16" cy="90.84" r="90.84" fill="#4b3f4e"/><circle cx="421.16" cy="90.84" r="57.81" fill="#6f6571"/><circle cx="90.84" cy="90.84" r="90.84" fill="#4b3f4e"/><circle cx="90.84" cy="90.84" r="57.81" fill="#6f6571"/><ellipse cx="256" cy="280.77" fill="#edebed" rx="239.48" ry="231.23"/><ellipse cx="370.77" cy="286.13" fill="#4b3f4e" rx="82.58" ry="70.15" transform="rotate(60 370.78 286.13)"/><path fill="#dbd9dc" d="M90.84 272.52c0-91.78 45.2-172.24 113.09-217.43C96.7 78.06 16.52 170.35 16.52 280.77c0 124.15 101.33 225.41 228.5 230.96-90.13-36.75-154.18-129.96-154.18-239.21z"/><path fill="#5d5360" d="M355.1 305.55a24.77 24.77 0 0 1-24.78-24.78v-8.25a24.77 24.77 0 0 1 49.55 0v8.25a24.77 24.77 0 0 1-24.77 24.78z"/><path fill="#6f6571" d="M355.1 247.74v28.9a12.39 12.39 0 0 0 24.77 0v-4.12a24.77 24.77 0 0 0-24.77-24.78z"/><g fill="#fff"><circle cx="355.1" cy="264.26" r="8.26"/><path d="M338.58 404.64c0-18.24-22.6-33.03-50.46-33.03-12.2 0-23.4 2.84-32.12 7.55-8.73-4.71-19.91-7.55-32.12-7.55-27.87 0-50.46 14.8-50.46 33.03 0 10.97 8.2 20.66 20.76 26.67 1.25 26.48 28.41 47.66 61.82 47.66s60.57-21.18 61.82-47.66c12.56-6 20.76-15.7 20.76-26.67z"/></g><path fill="#5d5360" d="M297.29 371.61c0 13.68-18.49 33.03-41.29 33.03s-41.29-19.35-41.29-33.03 18.49-24.77 41.29-24.77 41.29 11.09 41.29 24.77z"/><path fill="#6f6571" d="M338.42 403.02a8.21 8.21 0 0 0-9.57-6.43 8.32 8.32 0 0 0-6.65 9.55c.04.25.96 6.2-3.73 11.07-4.03 4.17-15.37 10.56-45.98 6.6-2.73-.36-5.48-.63-8.23-.8v-20.84c0-4.56-3.7-5.78-8.26-5.78s-8.26 1.22-8.26 5.78V423c-2.75.18-5.5.45-8.24.8-30.6 3.97-41.95-2.42-45.97-6.6-4.7-4.85-3.77-10.81-3.76-10.93a8.26 8.26 0 1 0-16.2-3.25c-1.03 5.21-.58 16.4 7.72 25.28 8.24 8.82 21.87 13.26 40.62 13.26 6.04 0 12.62-.46 19.72-1.38 9.53-1.24 19.2-1.24 28.74 0 29.12 3.8 49.43-.21 60.34-11.88 8.3-8.88 8.75-20.07 7.7-25.28z"/><g fill="#4b3f4e"><path d="M272.52 396.39c-22.8 0-41.3-22.12-41.3-37.75 0-2.64.7-5.14 1.68-7.56-10.97 4.45-18.2 11.98-18.2 20.53 0 13.69 18.5 33.04 41.3 33.04 10.5 0 19.98-4.2 27.27-9.96a36.46 36.46 0 0 1-10.75 1.7z"/><ellipse cx="141.25" cy="286.12" rx="82.58" ry="70.15" transform="rotate(-60 141.25 286.12)"/></g><path fill="#5d5360" d="M156.9 305.55a24.77 24.77 0 0 1-24.77-24.78v-8.25a24.77 24.77 0 0 1 49.55 0v8.25a24.77 24.77 0 0 1-24.78 24.78z"/><path fill="#6f6571" d="M156.9 247.74v28.9a12.39 12.39 0 0 0 24.78 0v-4.12a24.77 24.77 0 0 0-24.78-24.78z"/><circle cx="156.9" cy="264.26" r="8.26" fill="#fff"/></svg>