<svg xmlns="http://www.w3.org/2000/svg" width="512px" height="512px"><path fill="#965a50" d="M290.25 270.15l69.75-36 8-144s48-40 136-64c0 0-24 64 0 144 0 0-56 56-56 136 0 0-64.61 15.68-144.48 131.38"/><path fill="#824d51" d="M196.65 115.39c-6.74-7.24-18.93-3.08-19.7 6.79-1.48 19.03-4.35 47.97 19.65 79.97l50-34-49.95-52.76zm118.7 0c6.74-7.24 18.93-3.08 19.7 6.79 1.48 19.03 4.35 47.97-19.65 79.97l-50-34 49.95-52.76z"/><path fill="#965a50" d="M221.75 270.15l-69.75-36-8-144s-48-40-136-64c0 0 24 64 0 144 0 0 56 56 56 136 0 0 64.6 15.68 144.48 131.38"/><path fill="#824d51" d="M387.25 86.2c19.92-13.18 60.5-36.42 118.85-52.33a8 8 0 0 0-4.2-15.44c-88.67 24.18-137.01 63.9-139.03 65.58a7.97 7.97 0 0 0-2.86 5.7l-7.75 139.43-52.1 26.89h-88.33l-52.1-26.9L152 89.72a7.97 7.97 0 0 0-2.86-5.7C147.1 82.33 98.77 42.6 10.1 18.43a8 8 0 0 0-4.2 15.44c58.35 15.91 98.92 39.15 118.85 52.33C39.4 106.89 2.82 163.35 1.22 165.9a7.99 7.99 0 0 0 13.55 8.5c.36-.57 34.1-52.57 111.42-72.27-21 32.9-63.98 110.59-70.17 203.48a8 8 0 0 0 15.96 1.06c5.67-85 44.6-158.34 65.37-191.99l6.67 119.9a8 8 0 0 0 4.32 6.67l35.1 18.12c10.97 5.67 15.69 18.65 11.3 30.19-5.91 15.5-10.74 34.82-10.74 56.58 0 75.03 43.98 125.63 63.2 144.15a12.71 12.71 0 0 0 17.6 0c19.22-18.52 63.2-69.12 63.2-144.15 0-21.76-4.83-41.08-10.73-56.58-4.4-11.54.32-24.52 11.29-30.19l35.1-18.11a8 8 0 0 0 4.32-6.67l6.67-119.9c20.76 33.64 59.7 106.98 65.36 191.98a8 8 0 0 0 15.97-1.06c-6.2-92.89-49.18-170.58-70.18-203.48 77.33 19.7 111.07 71.7 111.42 72.27a8 8 0 0 0 13.56-8.5c-1.6-2.56-38.18-59.02-123.53-79.71z"/><path fill="#965a50" d="M256 154.15c39.77 0 72 20.66 72 56s-41.07 72-72 72-72-36.65-72-72 32.24-56 72-56z"/><path fill="#fff" d="M216 226.15a8 8 0 0 1-8-8v-8a8 8 0 1 1 16 0v8a8 8 0 0 1-8 8zm80 0a8 8 0 0 1-8-8v-8a8 8 0 1 1 16 0v8a8 8 0 0 1-8 8z"/><ellipse cx="256" cy="246.15" fill="#af6e5a" rx="24" ry="28"/><path fill="#64464b" d="M247.2 490.3a12.71 12.71 0 0 0 17.6 0 217.34 217.34 0 0 0 29.77-36.03c-81.97-8.23-109.89-137.98-99.84-164.7-5.9 15.5-10.73 34.82-10.73 56.58 0 75.03 43.98 125.63 63.2 144.15z"/></svg>