<svg xmlns="http://www.w3.org/2000/svg" width="512px" height="512px"><ellipse cx="408.03" cy="117.91" fill="#c0bcc1" rx="113.11" ry="92.17" transform="rotate(114.17 408.03 117.9)"/><ellipse cx="418.04" cy="122.58" fill="#aea8af" rx="88.86" ry="65.55" transform="rotate(114.17 418.04 122.58)"/><ellipse cx="104.02" cy="117.91" fill="#c0bcc1" rx="113.11" ry="92.17" transform="rotate(-114.17 104.02 117.9)"/><ellipse cx="94.02" cy="122.59" fill="#aea8af" rx="88.86" ry="65.55" transform="rotate(-114.17 94.02 122.59)"/><path fill="#c9c6ca" d="M456 334.15C456 211.08 360 88 256 88S56 211.08 56 334.15c0 66.78 54.8 128.32 141.65 147.6C213.2 495.55 233.58 504 256 504s42.8-8.45 58.35-22.25C401.2 462.47 456 400.93 456 334.15z"/><g fill="#c0bcc1"><path d="M120 338.56c0-99.28 43.19-198.52 100.92-245.88C131.4 116.11 56 225.1 56 334.15c0 65.94 53.48 126.69 138.44 146.77C147.8 449.3 120 395.69 120 338.56z"/><path d="M288 475.25h-64l-32-9.39c0 6.94 2.87 13.7 8.22 18.1A87.42 87.42 0 0 0 256 504c21.2 0 40.6-7.54 55.78-20.04 5.35-4.4 8.22-11.16 8.22-18.1l-32 9.39z"/></g><path fill="#f5dcb4" d="M256 384c22.1 0 40 14.33 40 32 0 17.04-16.81 26.02-28.94 32.65a22.63 22.63 0 0 1-22.12 0C232.81 442.02 216 433.05 216 416c0-17.67 17.9-32 40-32z"/><path fill="#aea8af" d="M284 488a43.32 43.32 0 0 1-23.6-6.99 7.92 7.92 0 0 0-8.8 0A43.32 43.32 0 0 1 228 488a43.76 43.76 0 0 1-36.44-19.56 8 8 0 1 1 13.31-8.88A27.8 27.8 0 0 0 228 472c5.29 0 10.44-1.53 14.9-4.42a23.83 23.83 0 0 1 26.2 0A27.37 27.37 0 0 0 284 472c9.28 0 17.93-4.65 23.12-12.44a8 8 0 1 1 13.32 8.88A43.75 43.75 0 0 1 284 488z"/><path fill="#9c969e" d="M472 472c-1.1 0-2.2-.22-3.26-.7-56.8-25.29-133.4-39.29-134.16-39.43a8 8 0 1 1 2.84-15.74c3.2.58 79.23 14.47 137.83 40.56A8 8 0 0 1 472 472zm32-56c-.59 0-1.2-.07-1.8-.2-52.62-12.12-148.86-7.85-149.83-7.8-4.37.02-8.16-3.22-8.36-7.63a8 8 0 0 1 7.62-8.36c4.03-.19 99.42-4.4 154.16 8.2A8 8 0 0 1 504 416zM40 472a8 8 0 0 1-3.25-15.31c58.6-26.1 134.62-39.98 137.83-40.56a8 8 0 1 1 2.84 15.74c-.77.14-77.36 14.14-134.16 39.44a8.2 8.2 0 0 1-3.25.7zM8 416a8 8 0 0 1-1.79-15.8c54.73-12.6 150.12-8.38 154.16-8.2a8 8 0 1 1-.74 16c-.97-.06-97.23-4.31-149.83 7.8-.6.13-1.21.2-1.8.2z"/><path fill="#4b3f4e" d="M172 352c-15.4 0-28-12.6-28-28v-16c0-15.4 12.6-28 28-28s28 12.6 28 28v16c0 15.4-12.6 28-28 28z"/><path fill="#5d5360" d="M172 280c-1.37 0-2.68.21-4 .4V320a16 16 0 0 0 32 0v-12c0-15.4-12.6-28-28-28z"/><circle cx="172" cy="300" r="12" fill="#fff"/><path fill="#4b3f4e" d="M340 352c-15.4 0-28-12.6-28-28v-16c0-15.4 12.6-28 28-28s28 12.6 28 28v16c0 15.4-12.6 28-28 28z"/><path fill="#5d5360" d="M340 280c-1.37 0-2.68.21-4 .4V320a16 16 0 0 0 32 0v-12c0-15.4-12.6-28-28-28z"/><circle cx="340" cy="300" r="12" fill="#fff"/><path fill="#ebc9a0" d="M240 407.58a39.1 39.1 0 0 1 7.38-22.8C229.44 387.95 216 400.7 216 416c0 17.04 16.81 26.02 28.94 32.65a22.63 22.63 0 0 0 22.12 0l1.6-.88c-12.12-8.19-28.66-19.27-28.66-40.2z"/></svg>