<svg xmlns="http://www.w3.org/2000/svg" width="512px" height="512px"><path fill="#3d6638" d="M256 106.12a7.73 7.73 0 0 1-7.73-7.73V40.18a7.73 7.73 0 0 1 15.46 0v58.21a7.73 7.73 0 0 1-7.73 7.73zm116.97 40.64a7.72 7.72 0 0 1-5.46-13.2l64.56-64.55a7.72 7.72 0 1 1 10.92 10.92l-64.56 64.56a7.7 7.7 0 0 1-5.46 2.27zm98.85 116.97h-45.85a7.73 7.73 0 1 1 0-15.46h45.85a7.73 7.73 0 0 1 0 15.46zm-44.72 171.1a7.72 7.72 0 0 1-5.46-2.26l-21.98-21.99a7.72 7.72 0 1 1 10.92-10.92l21.99 21.98a7.73 7.73 0 0 1-5.46 13.2zm-39.24-39.24a7.7 7.7 0 0 1-5.46-2.26l-14.46-14.46a7.73 7.73 0 0 1 10.93-10.93l14.46 14.46a7.73 7.73 0 0 1-5.47 13.19zM256 479.55a7.73 7.73 0 0 1-7.73-7.73v-58.21a7.73 7.73 0 0 1 15.46 0v58.21a7.73 7.73 0 0 1-7.73 7.73zm-152.6-63.21a7.73 7.73 0 0 1-5.46-13.2l37.02-37.03a7.72 7.72 0 1 1 10.93 10.93l-37.03 37.03a7.71 7.71 0 0 1-5.47 2.27zM86.03 263.73H40.18a7.73 7.73 0 0 1 0-15.46h45.85a7.73 7.73 0 1 1 0 15.46zm54.4-115.58a7.7 7.7 0 0 1-5.47-2.26L79.4 90.32a7.73 7.73 0 0 1 10.93-10.93l55.57 55.57a7.72 7.72 0 0 1-5.46 13.2zm0 0"/><path fill="#74c26c" d="M321.93 112.57c-9.64-6.22-16.93-19.78-28.1-22.32-11.73-2.66-25.3 8.14-37.83 8.14s-26.1-10.8-37.83-8.14c-12.1 2.76-19.64 18.44-30.56 23.71-11.1 5.36-28.06 1.53-37.59 9.15-9.58 7.65-9.6 25.04-17.25 34.62-7.62 9.54-24.59 13.4-29.94 24.5-5.27 10.93 2.23 26.58-.52 38.68-2.67 11.73-16.28 22.56-16.28 35.09s13.61 23.36 16.28 35.09c2.75 12.1-4.75 27.75.52 38.68 5.35 11.1 22.32 14.96 29.94 24.5 7.65 9.58 7.67 26.97 17.25 34.62 9.53 7.62 26.48 3.8 37.59 9.15 10.92 5.27 18.46 20.96 30.56 23.7 11.73 2.67 25.3-8.13 37.83-8.13s26.1 10.8 37.83 8.14c12.1-2.75 19.64-18.44 30.56-23.71 11.1-5.36 28.06-1.53 37.59-9.15 9.58-7.65 9.6-25.04 17.25-34.62 7.62-9.54 24.59-13.4 29.94-24.5 5.27-10.93-2.23-26.58.52-38.68 2.67-11.73 16.28-22.56 16.28-35.09s-13.61-23.36-16.28-35.09c-2.75-12.1 4.75-27.75-.52-38.68-5.35-11.1-22.32-14.96-29.94-24.5-7.65-9.58-7.67-26.97-17.25-34.62-3.6-2.88-8.26-4.12-13.27-4.84zm0 0"/><path fill="#63a65c" d="M409.7 291.09c2.66-11.73 16.27-22.56 16.27-35.09s-13.61-23.36-16.28-35.09c-2.75-12.1 4.75-27.75-.52-38.68-5.35-11.1-22.32-14.96-29.94-24.5-7.65-9.58-7.67-26.97-17.25-34.62-3.6-2.88-8.26-4.12-13.27-4.84l-21.77-4.64a164.42 164.42 0 0 1 43.3 111.43c0 91.14-73.88 165.03-165.03 165.03a164.5 164.5 0 0 1-62.55-12.28c1.76 4.4 3.95 8.36 7.36 11.08 9.53 7.62 26.48 3.8 37.59 9.15 10.92 5.27 18.46 20.96 30.56 23.7 11.73 2.67 25.3-8.13 37.83-8.13s26.1 10.8 37.83 8.14c12.1-2.75 19.64-18.44 30.56-23.71 11.1-5.36 28.06-1.53 37.59-9.15 9.58-7.65 9.6-25.04 17.25-34.62 7.62-9.54 24.59-13.4 29.94-24.5 5.27-10.93-2.23-26.58.52-38.68zm0 0"/><path fill="#9dcb3b" d="M224.07 173.8a20.1 20.1 0 1 1-40.19 0 20.1 20.1 0 0 1 40.19 0zm52.02-153.71a20.1 20.1 0 1 1-40.18 0 20.1 20.1 0 0 1 40.18 0zm78.22 220.11a20.1 20.1 0 1 1-40.18 0 20.1 20.1 0 0 1 40.18 0zm-118.65 76.36a31.68 31.68 0 1 1-63.37 0 31.68 31.68 0 0 1 63.37 0zM473.85 38.15A24.72 24.72 0 1 0 438.9 73.1a24.72 24.72 0 0 0 34.95-34.96zM512 256a20.1 20.1 0 1 1-40.18 0 20.1 20.1 0 0 1 40.18 0zm-47.75 171.7a25.85 25.85 0 1 0-36.57 36.55 25.85 25.85 0 0 0 36.57-36.56zm-188.16 64.21a20.1 20.1 0 1 1-40.18 0 20.1 20.1 0 0 1 40.18 0zm-172.7-83.31A20.08 20.08 0 1 0 74.98 437a20.08 20.08 0 0 0 28.4-28.4zM40.18 256A20.1 20.1 0 1 1 0 256a20.1 20.1 0 0 1 40.18 0zm44.5-208.82a26.51 26.51 0 1 0-37.5 37.5 26.51 26.51 0 0 0 37.5-37.5zm0 0"/></svg>