<svg xmlns="http://www.w3.org/2000/svg" width="512" height="512"><path fill="#e6646e" d="M478.94 174.89l16.23-7.8a8.24 8.24 0 0 0 2.62-12.93c-12.74-14.29-42.43-43.69-84.97-61.92l12.22-8.15c5.56-3.71 4.7-12.16-1.55-14.57-38.06-14.7-145.34-42.93-225.57 64.04l250.89 198.07c25.59 20.2 63.19 1.98 63.19-30.62v-30.08c0-62.98-33.06-96.04-33.06-96.04z"/><path fill="#dc4655" d="M487.2 268.5c-13.61-32.14-19.02-41.7-32.17-62.5-20.64-32.62-75.45-119.28-155.82-119.28a116.8 116.8 0 0 0-31.34 4.37c-13.87 3.86-27.12 11.15-39.38 21.66l-26.65 23.9 236.42 170.48c32.41 24.8 61.6-8.75 48.94-38.63z"/><path fill="#e6646e" d="M6.44 10.18l174.95 197.77 57.86-66.12L10.9 4.82c-3.46-2.08-7.13 2.34-4.46 5.36z"/><path fill="#edebed" d="M508.74 367.25c-9.78-29.8-43.73-114.54-67.68-152.41C414.3 172.53 354.96 83.97 272.3 107c-11.54 3.22-22.63 9.35-33.06 18.29L4.46 335.8c-3.3 2.96-5.09 7.45-4.26 11.82 1.92 10.08 7.82 14.77 14.07 16.81 2.72.9 4.96 2.77 6.24 5.34l8.85 17.87a16.48 16.48 0 0 0 22.69 7.28c3.04-1.67 6.38-3.7 9.8-5.88l28.85 17.58c4.95 3 11.04 3.21 16.16.54 24.73-12.91 100.81-50.76 157.18-58.7a135.51 135.51 0 0 0 32.8-8.96l62.05 162.89c2.08 5.45 9 7.1 13.3 3.15l132-121a16.47 16.47 0 0 0 4.55-17.3z"/><path fill="#dbd9dc" d="M266.62 34.47v82.43c0 9 7.21 16.68 17.04 18.16l19.24 2.9c13.16 1.98 24.96-7.86 23.69-19.86-5.79-54.49-31.16-79.21-46.98-89.52-5.44-3.53-12.99-.15-12.99 5.89zm82.98 300.87a16.57 16.57 0 0 1 1.28-18.03c4.4-5.9 8.16-12.2 11.16-18.88 12.15-27 11.95-57.34-.56-87.73a8.26 8.26 0 1 0-15.29 6.3c10.75 26.08 11.01 51.9.77 74.65-9.32 20.74-27.1 37.58-50.16 47.78l62.09 162.96c2.08 5.46 9 7.1 13.3 3.15l48.05-44.04-70.64-126.16z"/><path fill="#9c969e" d="M37.44 350.7c-2.5-5.06-10.66-5.45-16.2 2.24-2.7 3.75-5.06 7.29-12.54 8.71a21.5 21.5 0 0 0 5.47 2.74 10.6 10.6 0 0 1 5 3.77c15.85-1.27 21.12-11.65 18.27-17.46z"/><path fill="#c0bcc1" d="M78.17 399.07c14.11-8.87 29.9-20.63 42.78-33.64a8.27 8.27 0 1 0-11.74-11.64c-14.29 14.42-34.06 26.7-47.53 35.35l16.49 9.93z"/><path fill="#4b3f4e" d="M239.25 224.58c-11.82 0-22.86-3.81-30.3-10.47a8.27 8.27 0 0 1 11-12.32c4.4 3.92 11.6 6.26 19.3 6.26s14.9-2.34 19.29-6.26a8.27 8.27 0 0 1 11 12.32c-7.44 6.66-18.48 10.47-30.3 10.47z"/><path fill="#00c3ff" d="M123.53 142.55l41.33 46.71V97.2l-41.33-24.8z"/><path fill="#d4f582" d="M82.2 95.83l41.33 46.72V72.4L82.2 47.6z"/><path fill="#ffc850" d="M40.88 49.11L82.2 95.83V47.6L40.88 22.8z"/><path fill="#e6646e" d="M40.88 22.8L10.9 4.83c-3.46-2.08-7.13 2.34-4.46 5.36l34.44 38.94V22.8z"/></svg>