<svg xmlns="http://www.w3.org/2000/svg" viewBox="0 0 511.04 511.04" width="511px" height="511px"><path fill="#ff3d43" d="M233.2 104.74c-2.96-3.76-73.29-91.91-128.8-84.25C84.7 23.2 69.54 37.04 59.32 61.6c-14.09 33.9-15.26 61.45-3.48 81.89 14.67 25.45 43.74 29.55 44.97 29.72.33.04.66.06.98.06h125.52a7.5 7.5 0 0 0 7.5-7.5v-56.4a7.5 7.5 0 0 0-1.61-4.64zM451.7 61.6c-10.2-24.56-25.37-38.4-45.05-41.11-55.51-7.67-125.85 80.5-128.82 84.25a7.5 7.5 0 0 0-1.61 4.65v56.4a7.5 7.5 0 0 0 7.5 7.5h125.52c.32 0 .65-.03.98-.07 1.23-.17 30.3-4.27 44.97-29.72 11.78-20.44 10.6-48-3.48-81.9z"/><path fill="#d62d2d" d="M227.32 138.78H101.8c-.32 0-.65-.02-.98-.06-1.23-.17-30.3-4.27-44.97-29.72a58.33 58.33 0 0 1-6.23-15.94c-3.73 19.85-1.66 36.74 6.23 50.44 14.67 25.45 43.74 29.55 44.97 29.72.33.04.66.06.98.06h125.52a7.5 7.5 0 0 0 7.5-7.5v-34.5a7.5 7.5 0 0 1-7.5 7.5zM455.19 109c-14.67 25.45-43.74 29.55-44.97 29.72-.33.04-.66.06-.98.06H283.72a7.5 7.5 0 0 1-7.5-7.5v34.5a7.5 7.5 0 0 0 7.5 7.5h125.52c.32 0 .65-.02.98-.06 1.23-.17 30.3-4.27 44.97-29.72 7.89-13.7 9.96-30.6 6.23-50.44A58.3 58.3 0 0 1 455.2 109z"/><path fill="#d62d2d" d="M283.72 101.89h-56.4a7.5 7.5 0 0 0-7.5 7.5v56.4a7.5 7.5 0 0 0 7.5 7.5h56.4a7.5 7.5 0 0 0 7.5-7.5v-56.4a7.5 7.5 0 0 0-7.5-7.5z"/><path fill="#9e1219" d="M219.82 138.78v27a7.5 7.5 0 0 0 7.5 7.5h56.4a7.5 7.5 0 0 0 7.5-7.5v-27h-71.4z"/><path fill="#ffd039" d="M465.65 232.37H45.39a7.5 7.5 0 0 0-7.5 7.5v218.56a32.63 32.63 0 0 0 32.6 32.6h370.07a32.63 32.63 0 0 0 32.59-32.6V239.87a7.5 7.5 0 0 0-7.5-7.5z"/><path fill="#f4b70c" d="M465.65 232.37H45.39a7.5 7.5 0 0 0-7.5 7.5v32.22h435.26v-32.22a7.5 7.5 0 0 0-7.5-7.5z"/><path fill="#ffdf65" d="M503.54 158.28H7.5a7.5 7.5 0 0 0-7.5 7.5v74.09a7.5 7.5 0 0 0 7.5 7.5h496.04a7.5 7.5 0 0 0 7.5-7.5v-74.09a7.5 7.5 0 0 0-7.5-7.5z"/><path fill="#ffcd2c" d="M0 212.87v27a7.5 7.5 0 0 0 7.5 7.5h496.04a7.5 7.5 0 0 0 7.5-7.5v-27H0z"/><path fill="#ff3d43" d="M292.6 158.28h-74.16a7.5 7.5 0 0 0-7.5 7.5v317.75a7.5 7.5 0 0 0 7.5 7.5h74.16a7.5 7.5 0 0 0 7.5-7.5V165.78a7.5 7.5 0 0 0-7.5-7.5z"/><path fill="#d62d2d" d="M292.6 158.28h-27v332.75h27a7.5 7.5 0 0 0 7.5-7.5V165.78a7.5 7.5 0 0 0-7.5-7.5z"/></svg>