<svg xmlns="http://www.w3.org/2000/svg" width="512px" height="512px"><path fill="#c0bcc1" d="M239.47 112.94l-36.24-57.99a8.26 8.26 0 0 1 3.67-11.97C324.45-6.77 429.25 51.75 506.57 147.4a24.73 24.73 0 0 1 5.43 15.54V319.4L239.47 112.94z"/><path fill="#4b3f4e" d="M390.19 159.73c-5.43-63.24-28-105.59-42.9-127.32C303.48 20.34 256.32 22.07 206.9 43a8.26 8.26 0 0 0-3.67 11.96l36.24 57.99 114.72 86.9c23.3-4.6 38.02-16.5 36-40.1zm15.65 79.24l26.91 20.4c17.8-42.16 26.29-98.57 13.55-173.44a315.52 315.52 0 0 0-39.48-27.85c19.41 80.1 14.48 138.6-.98 180.9zm65.7-130.28c5.77 68.36-5.93 120.87-25.25 160.93l26.48 20.06c18.82-36.58 32.55-83.54 33.2-143.02a457.85 457.85 0 0 0-34.43-37.97z"/><path fill="#dbd9dc" d="M322.05 87.17s-49.55-15.53-115.62 34.02C169.45 148.94 37.8 265.62 5.5 294.63a16.43 16.43 0 0 0-4.94 16.48c5.15 19.24 21.3 61.64 51.87 64.72 2.87.3 7.7-1.31 13.52-4.03L94.32 391a16.38 16.38 0 0 0 14.84 2.13c35.12-12.26 130.27-50.58 194.52-74.71 17.8 39.4 48.22 108.35 70.59 167.58a16.42 16.42 0 0 0 21.31 9.53c24.15-9.32 71.31-30.73 106.89-66.7a33.13 33.13 0 0 0 9.53-23.28V284.86c0-10.2-2.8-20.22-7.94-29.04C415.48 103.67 322.05 87.17 322.05 87.17z"/><path fill="#5d5360" d="M113.75 288.24c-37.1-10.42-47.27-38.45-49.36-45.88a9437.46 9437.46 0 0 0-58.9 52.27 16.43 16.43 0 0 0-4.93 16.48c5.14 19.24 21.3 61.64 51.86 64.72 2.87.3 7.7-1.31 13.53-4.03L94.32 391a16.38 16.38 0 0 0 14.84 2.13c18.2-6.35 52.5-19.7 90.27-34.44-1.85-11.73-13.41-50.17-85.68-70.45z"/><path fill="#4b3f4e" d="M33 337.98a10.32 10.32 0 0 1-7.3-17.62l8.26-8.26a10.32 10.32 0 1 1 14.6 14.6l-8.26 8.26a10.3 10.3 0 0 1-7.3 3.02z"/><path fill="#c0bcc1" d="M270.76 19.48c-10.55 37.06-3.61 73.07-.02 87.2a8.27 8.27 0 0 0 8.01 6.26h34.9a8.32 8.32 0 0 0 8.25-8.71c-2.36-63.87-30.55-83-43.26-88.4a5.8 5.8 0 0 0-7.88 3.65z"/><path fill="#4b3f4e" d="M132.28 339.47a8.26 8.26 0 0 0-11.52-1.92C101.95 351 79.66 365.07 66 371.86l15.5 10.48c17.68-9.55 37.93-23.53 48.86-31.34a8.26 8.26 0 0 0 1.92-11.52z"/><path fill="#5d5360" d="M196.8 239.57c-61.94-7.67-79.09-33.48-82.73-40.72-6.43 5.59-12.87 11.2-19.27 16.8 17.32 39.92 60.43 50.07 66.9 51.45 69.06 14.73 79.88 60.27 81.58 74.5 15.1-5.88 29.94-11.61 43.88-16.92-1.6-35.48-23.98-76.9-90.36-85.11z"/><path fill="#4b3f4e" d="M239.47 216.17a24.78 24.78 0 0 1-24.78-24.78v-8.26a24.78 24.78 0 1 1 49.55 0v8.26a24.78 24.78 0 0 1-24.77 24.78z"/><path fill="#5d5360" d="M239.47 158.36v28.9a12.39 12.39 0 1 0 24.77 0v-4.13a24.78 24.78 0 0 0-24.77-24.77z"/><circle cx="239.47" cy="174.87" r="8.26" fill="#fff"/><path fill="#c9c6ca" d="M320.76 153.67a8.25 8.25 0 0 0-1.94 11.51c.46.66 46.37 66.08 31.02 112.93-6.1 18.62-21.63 32.18-46.16 40.3 2.09 4.62 4.38 9.72 6.78 15.09 28.85-9.96 47.42-26.83 55.1-50.28 17.9-54.8-31.18-124.66-33.29-127.61a8.25 8.25 0 0 0-11.5-1.94z"/><g fill="#5d5360"><path d="M309.44 197.21c-3.16-3.06-8.2.26-6.84 4.45 15.83 49.02 6.18 91.02-6.26 119.53l7.34-2.78.37-.12c20.32-6.8 34.4-25.95 35.34-47.36 1.6-36.53-16.94-61.12-29.95-73.72zm17.43 173.48c39.77-21.06 115.38-77.42 124.52-190.45l-1.45-1.7a440.23 440.23 0 0 0-5.88-6.8l-2.33-2.59a412.51 412.51 0 0 0-5.61-6.11l-2.64-2.78a385.62 385.62 0 0 0-12.86-12.83l-1.25-1.16c3.22 121.89-53.7 178.62-101.4 204.13a4021.6 4021.6 0 0 1 8.9 20.29z"/><path d="M336.65 393.36a2686.1 2686.1 0 0 1 7.98 18.82c20.89-10.5 52.75-29.35 77.4-53.44 26.5-25.92 55.07-65.03 71.14-120.84l-.33-.52a577.6 577.6 0 0 0-12.19-18.57l-.06-.09a514.38 514.38 0 0 0-12.06-16.84l-.43-.57c-19.03 106.56-84.21 166.92-131.45 192.05z"/><path d="M511.54 278.06c-.1-.8-.25-1.6-.39-2.4a57.68 57.68 0 0 0-2.92-10.81c-.34-.91-.64-1.84-1.02-2.73-35.98 96-102.94 151.35-153.08 172.94a2052.3 2052.3 0 0 1 7.81 19.3c20.38-8.67 51.46-24.07 77.08-44.2A306.7 306.7 0 0 0 512 327.32v-42.47c0-2.28-.19-4.55-.46-6.8zM371.31 478.25c1 2.59 1.98 5.17 2.95 7.73a16.42 16.42 0 0 0 21.32 9.56c24.14-9.33 71.3-30.74 106.89-66.7a33.13 33.13 0 0 0 9.53-23.3v-48.98c-32.48 57-85.7 98.65-140.69 121.69z"/></g></svg>