<svg xmlns="http://www.w3.org/2000/svg" width="512px" height="512px"><path fill="#4b3f4e" d="M272 52.7l17.34-14.18c16.45-13.46 30.65-25.1 33.85-27.49C332.57 4 338.26 4 351.99 4a8 8 0 0 1 0 16c-13.1 0-14.21.1-19.2 3.84-2.92 2.19-18.38 14.83-33.32 27.07-9.49 7.77-19.37 15.85-27.47 22.44V52.71zm80 63.3h55.76c7.73 0 15.04-3.76 19.53-10.05l35.22-49.3a8 8 0 0 0-13.02-9.3l-35.22 49.3a8.02 8.02 0 0 1-6.5 3.35H352a8 8 0 0 0 0 16zm151.99 208a7.99 7.99 0 0 0 3.58-15.16l-25.18-12.6a7.98 7.98 0 0 1-4.24-5.41l-11.56-52.04a23.86 23.86 0 0 0-23.43-18.8H416a8 8 0 0 0 0 16h27.16c3.78 0 7 2.59 7.81 6.27l11.57 52.04a23.92 23.92 0 0 0 12.69 16.26l25.19 12.6c1.15.57 2.37.84 3.57.84zM440 476a8 8 0 0 0 7.97-7.28l7.24-79.71a24.04 24.04 0 0 0-8.4-20.5l-33.85-26.78a7.99 7.99 0 1 0-9.93 12.54l33.65 26.63a7.91 7.91 0 0 1 2.6 6.66l-7.25 79.72A8 8 0 0 0 440 476zM240 52.7l-17.34-14.18c-16.45-13.46-30.65-25.1-33.85-27.49C179.43 4 173.74 4 160.01 4a8 8 0 0 0 0 16c13.1 0 14.21.1 19.2 3.84 2.92 2.19 18.38 14.83 33.32 27.07 9.49 7.77 19.37 15.85 27.47 22.44V52.71zM160 116h-55.76a24.06 24.06 0 0 1-19.53-10.05l-35.22-49.3a8 8 0 0 1 13.02-9.3l35.22 49.3a8.02 8.02 0 0 0 6.5 3.35H160a8 8 0 1 1 0 16zM8.01 324a7.99 7.99 0 0 1-3.59-15.16l25.2-12.6a7.98 7.98 0 0 0 4.23-5.41l11.56-52.04A23.86 23.86 0 0 1 68.84 220H96a8 8 0 0 1 0 16H68.84c-3.78 0-7 2.59-7.81 6.27L49.46 294.3a23.92 23.92 0 0 1-12.69 16.26l-25.19 12.6a7.97 7.97 0 0 1-3.57.84zM72 476a8 8 0 0 1-7.97-7.28l-7.24-79.71a24.04 24.04 0 0 1 8.4-20.5l33.85-26.78a7.99 7.99 0 1 1 9.93 12.54L75.32 380.9a7.91 7.91 0 0 0-2.6 6.66l7.25 79.72A8 8 0 0 1 72 476z"/><path fill="#e6646e" d="M404.4 157.48c-5.33-10.81-16.52-17.48-28.57-17.48H136.18c-12.05 0-23.24 6.67-28.58 17.48C90.15 192.86 80 234.88 80 280c0 125.92 78.8 228 176 228s176-102.08 176-228c0-45.12-10.14-87.14-27.6-122.52z"/><path fill="#4b3f4e" d="M248 140v336a8 8 0 0 0 16 0V140h-16z"/><path fill="#dc4655" d="M182.96 140h-46.78c-12.05 0-23.24 6.67-28.58 17.48-17.36 35.19-27.47 76.95-27.58 121.79.03 7.3.28 14.54.75 21.68.05.59.06 1.19.1 1.78l.2 2.18C90.65 419.11 165.3 508 256 508c1.19 0 2.36-.09 3.54-.12-60.45-27.12-105-119.69-105-229.8 0-47.07 8.17-90.92 22.22-127.84a32.47 32.47 0 0 1 6.2-10.24z"/><path fill="#5d5360" d="M256 44c66.27 0 120 37.6 120 84 0 36-53.73 44-120 44s-120-8-120-44c0-46.4 53.73-84 120-84z"/><path fill="#4b3f4e" d="M192 133.25c0-44.87 35.66-81.9 82.04-88.2A170.8 170.8 0 0 0 256 44c-66.27 0-120 37.6-120 84 0 29.24 35.45 40 84.27 43.02-17.46-6.9-28.27-18.6-28.27-37.77z"/><path fill="#edebed" d="M324 100a28 28 0 0 0 27.47-22.74c-12.07-11.1-27.94-20.04-46.32-25.84A27.83 27.83 0 0 0 296 72a28 28 0 0 0 28 28zm-136 0a28 28 0 0 0 28-28c0-8.17-3.56-15.46-9.14-20.58-18.39 5.8-34.26 14.73-46.33 25.84A27.98 27.98 0 0 0 188 100z"/><circle cx="188" cy="328" r="28" fill="#5d5360"/><g fill="#4b3f4e"><path d="M128.95 437.68A198.99 198.99 0 0 0 156 467.6a23.96 23.96 0 0 0-4-47.6 23.93 23.93 0 0 0-23.06 17.7z"/><circle cx="116" cy="240" r="20"/></g><g fill="#5d5360"><circle cx="324" cy="328" r="28"/><path d="M383.05 437.68A198.99 198.99 0 0 1 356 467.6a23.96 23.96 0 0 1 4-47.6 23.93 23.93 0 0 1 23.05 17.7z"/><circle cx="396" cy="240" r="20"/></g></svg>