<svg xmlns="http://www.w3.org/2000/svg" width="512px" height="512px"><path fill="#0096dc" d="M318.41 372.42l-142.65 41.96s76.33 36.29 141.4 28.38a8.42 8.42 0 0 0 6.95-11.3c-4.8-12.67-11.41-36.18-5.7-59.04zM182.62 72.14l-40.43 65.32 251.75 75.52C361 163.6 295.78 96.03 191.98 68.4a8.5 8.5 0 0 0-9.36 3.75z"/><path fill="#87dcff" d="M492.65 253.07l19.15-88.43c1.73-7.96-8.3-12.98-13.58-6.78-21.14 24.8-58.16 58.03-112.68 71.9l1.33 83.92c53.7 14.16 90.27 47.07 111.25 71.72 5.31 6.25 15.4 1.32 13.66-6.7l-19.13-88.32a109.57 109.57 0 0 1 0-37.31z"/><path fill="#00c3ff" d="M150.58 120.68C24.27 120.68 3.22 239.1.06 266.23a8.2 8.2 0 0 0 4.5 8.37c9 4.42 30.28 12 65.6 8.31-8.48 17.58-28.26 29.38-46.59 33.58a8.3 8.3 0 0 0-6.28 10.26c6.94 25.3 35.1 96.02 133.3 96.02 83.42 0 285.3-67.62 285.3-151.04 0-83.43-201.88-151.05-285.3-151.05z"/><path fill="#00aaf0" d="M167.37 338.86c-57.97 0-91.41-19.18-110.61-38.93-9.52 8.23-21.64 13.91-33.19 16.56a8.3 8.3 0 0 0-6.28 10.26c6.93 25.3 35.1 96.02 133.3 96.02 83.42 0 285.3-67.62 285.3-151.04 0-5.24-.8-10.41-2.3-15.5-52.28 47.86-198.4 82.63-266.22 82.63z"/><path fill="#87dcff" d="M131.31 121.76C22.21 133.17 3.1 240.47.07 266.2a8.23 8.23 0 0 0 4.5 8.4c8.26 4.06 26.88 10.78 57.2 9 3.6-.21 5.97 3.96 3.83 6.86-9.85 13.42-26.46 22.46-42.03 26.03a8.35 8.35 0 0 0-6.24 10.4c6.54 23.67 31.49 86.28 113.89 94.86 46.8-31.01 78.1-86.51 78.1-150.03 0-63.47-31.26-118.94-78-149.96z"/><path fill="#00c3ff" d="M197.59 337.11a303.27 303.27 0 0 1-30.22 1.74c-57.96 0-91.4-19.17-110.6-38.92-9.52 8.23-21.64 13.91-33.2 16.56a8.35 8.35 0 0 0-6.24 10.4c6.54 23.67 31.49 86.28 113.89 94.86 29.75-19.72 53.2-49.36 66.37-84.64z"/><path fill="#87dcff" d="M349.18 263.33c-5.13-9.7-51.68-10.55-68.66-10.54-3.9 0-7.6 1.66-10.22 4.56l-18.84 20.93a13.8 13.8 0 0 0 .7 19.16c17.72 17.15 43.01 35.41 56.46 30.93 16.79-5.6 45.09-56.5 40.56-65.04z"/><path fill="#4b3f4e" d="M66.67 246.55a16.78 16.78 0 0 1-16.78-16.78v-8.4a16.78 16.78 0 0 1 33.57 0v8.4c0 9.27-7.52 16.78-16.79 16.78z"/><circle cx="66.67" cy="221.37" r="8.39" fill="#fff"/><path fill="#00aaf0" d="M345.75 279.64c-29.53-7.77-59.28-7.92-60.9-7.92a8.39 8.39 0 0 0 0 16.79c.35 0 26.75.14 53.16 6.5a143.79 143.79 0 0 0 7.74-15.37z"/></svg>