<svg xmlns="http://www.w3.org/2000/svg" width="512px" height="512px"><path fill="#23b75f" d="M417.78 163.17c-27.11 4.48-34.03 42.8-53.8 52.36-40.51 19.6-80.96 13.44-80.96 13.44s-.5-38.94 19.77-85.41c7.72-17.69 42.27-26.56 46.04-49.34a215.7 215.7 0 0 1 87.25-18.3 215.8 215.8 0 0 1-18.3 87.25z"/><g fill="#a3e261"><path d="M512 166.17s-75.46 149.88-228.98 62.8c0 0 52.14-52.13 134.76-65.8a241.74 241.74 0 0 1 94.22 3z"/><path d="M348.83 94.22c-13.68 82.62-65.81 134.76-65.81 134.76C196.46 76.37 344.02.9 345.82 0h.01a241.6 241.6 0 0 1 3 94.2z"/></g><path fill="#93cc52" d="M283.02 228.98C196.46 76.37 344.02.9 345.82 0c-1.12 1.89-79.95 136.12-62.8 228.97z"/><path fill="#f94848" d="M295.02 216.98s86.81 48.67 59.12 172.11C327.38 508.37 51.5 532.77 15.36 496.64c-36.13-36.13-11.72-312.02 107.55-338.78 123.44-27.7 172.11 59.12 172.11 59.12z"/><g fill="#e23d3d"><path d="M122.9 157.86C4.56 184.41-20.37 456.27 14.55 495.76c.26.3.54.6.82.88 12.98 12.97 56.88 18.14 109.05 13.91-21.36-2.21-37.3-6.93-44.27-13.91-18.29-18.28-21.07-97.96-3.9-175.68 28.2-47.34 63.42-90.5 100.75-109.01 61.74-30.61 92.1-21.92 106.37-10.55-20.88-23.6-71.05-63.6-160.45-43.54z"/><circle cx="244.92" cy="321.99" r="22.35"/><circle cx="211.92" cy="406.88" r="22.35"/><circle cx="74.8" cy="387.1" r="22.35"/><circle cx="157.57" cy="356.51" r="22.35"/><circle cx="303.3" cy="372.7" r="22.35"/><circle cx="107.18" cy="300.73" r="22.35"/><circle cx="192.98" cy="263.06" r="22.35"/><circle cx="128.78" cy="441.06" r="22.35"/></g><path fill="#ffd41d" d="M135.1 221.17a9 9 0 0 1-6.36-15.36l14.23-14.23a9 9 0 1 1 12.73 12.72l-14.24 14.23a8.97 8.97 0 0 1-6.36 2.64zm54.91 54.91a9 9 0 0 1-6.36-15.36l14.23-14.23a9 9 0 1 1 12.73 12.72l-14.24 14.23a8.98 8.98 0 0 1-6.36 2.64zM299.83 385.9a9 9 0 0 1-6.36-15.36l14.23-14.24a9 9 0 1 1 12.72 12.73l-14.23 14.23a8.96 8.96 0 0 1-6.36 2.63zm-54.91-54.91a9 9 0 0 1-6.36-15.36l14.23-14.23a9 9 0 1 1 12.72 12.72l-14.23 14.23a8.97 8.97 0 0 1-6.36 2.64zm-143.56-21.17A9 9 0 0 1 95 294.46l14.23-14.23a9 9 0 1 1 12.72 12.73l-14.23 14.23a8.97 8.97 0 0 1-6.36 2.63zm109.81 109.82a9 9 0 0 1-6.36-15.36l14.24-14.23a9 9 0 1 1 12.72 12.72l-14.23 14.24a8.98 8.98 0 0 1-6.37 2.63zm-54.91-54.91a9 9 0 0 1-6.36-15.36l14.24-14.23a9 9 0 1 1 12.72 12.72l-14.23 14.24a8.97 8.97 0 0 1-6.37 2.63zm-33.74 88.66a9 9 0 0 1-6.36-15.36l14.23-14.23a9 9 0 1 1 12.72 12.72l-14.23 14.23a8.97 8.97 0 0 1-6.36 2.64zM67.6 398.48a9 9 0 0 1-6.36-15.36l14.24-14.23A9 9 0 1 1 88.2 381.6l-14.23 14.23a8.97 8.97 0 0 1-6.36 2.64z"/></svg>