<svg xmlns="http://www.w3.org/2000/svg" width="512px" height="512px"><path fill="#a56247" d="M512 389.95c0 37.16-5.2 73.1-14.9 107.14A390.16 390.16 0 0 1 389.94 512C174.6 512 0 337.41 0 122.05 0 84.89 5.2 48.95 14.9 14.9A390.24 390.24 0 0 1 122.06 0C337.4 0 512 174.59 512 389.95z"/><path fill="#8c4d37" d="M123.81 106.38c0-36.76 5.1-72.32 14.6-106.04A390.22 390.22 0 0 0 14.91 14.9 390.2 390.2 0 0 0 0 122.06C0 337.4 174.59 512 389.95 512c37.16 0 73.1-5.2 107.14-14.9l.3-1.12c-207.76-8.58-373.58-179.72-373.58-389.6z"/><path fill="#eaeae4" d="M223.72 13.4c-25.02 40.1-56.35 79.72-93.47 116.85a653.16 653.16 0 0 1-5.36 5.3c-35.58 34.81-73.31 64.35-111.5 88.17a385.83 385.83 0 0 1-10.61-54.94C34.43 149.02 65.69 124.3 94.99 95a547.37 547.37 0 0 0 31.47-34.25 506.86 506.86 0 0 0 42.32-57.96c18.76 2.23 37.1 5.8 54.94 10.62zm285.5 329.82C477.56 362.97 446.31 387.7 417 417a538.77 538.77 0 0 0-46.04 52.33 492.49 492.49 0 0 0-27.75 39.88 387.4 387.4 0 0 1-54.94-10.62 630.72 630.72 0 0 1 35.84-51.43 682.79 682.79 0 0 1 57.64-65.42c37.13-37.12 76.75-68.46 116.86-93.47a387.37 387.37 0 0 1 10.61 54.94z"/><path fill="#b3b3b3" d="M123.81 106.37c0 9.81.37 19.54 1.08 29.17-35.58 34.82-73.31 64.36-111.5 88.18a385.83 385.83 0 0 1-10.61-54.94C34.43 149.02 65.69 124.3 94.99 95a547.37 547.37 0 0 0 31.47-34.25 391.79 391.79 0 0 0-2.65 45.63zm247.15 362.97a492.49 492.49 0 0 0-27.75 39.88 387.4 387.4 0 0 1-54.94-10.62 630.72 630.72 0 0 1 35.84-51.43 386.66 386.66 0 0 0 46.85 22.17z"/><path fill="#4d4d4d" d="M159.13 179.47l173.4 173.4a12.18 12.18 0 0 0 17.22-17.22l-173.4-173.4a12.18 12.18 0 1 0-17.22 17.22z"/><path fill="#723a2a" d="M155.02 226.29a7.83 7.83 0 0 1-5.54-13.38l60.31-60.31a7.83 7.83 0 1 1 11.08 11.08l-60.31 60.31a7.8 7.8 0 0 1-5.54 2.3zm138.53 138.53a7.84 7.84 0 0 1-5.54-13.38l60.3-60.31a7.84 7.84 0 0 1 11.1 11.08l-60.32 60.31a7.8 7.8 0 0 1-5.54 2.3zm-46.18-46.18a7.83 7.83 0 0 1-5.54-13.38l60.31-60.3a7.84 7.84 0 0 1 11.09 11.07l-60.32 60.32a7.8 7.8 0 0 1-5.54 2.3zm-46.17-46.18a7.83 7.83 0 0 1-5.54-13.38l60.3-60.3a7.84 7.84 0 1 1 11.09 11.08l-60.31 60.3a7.8 7.8 0 0 1-5.55 2.3z"/><path fill="#a56247" d="M267.56 472.92a7.9 7.9 0 0 1-7.24-4.84 7.91 7.91 0 0 1 2.41-9.17c5.38-4.16 13.47.32 12.6 7.14a7.9 7.9 0 0 1-7.77 6.87zM53.2 248.8a7.89 7.89 0 0 1-7.17-4.7 7.9 7.9 0 0 1 2.23-9.21c5.46-4.41 13.86.37 12.68 7.37a7.91 7.91 0 0 1-7.73 6.54zm13.75 32.91a7.9 7.9 0 0 1-7.44-5.37 7.9 7.9 0 0 1 2.7-8.7c5.55-4.17 13.69.7 12.45 7.58a7.9 7.9 0 0 1-7.71 6.5zm15.67-54.85a7.9 7.9 0 0 1-7.5-5.56 7.9 7.9 0 0 1 3.15-8.79c5.91-3.92 13.82 1.74 11.9 8.6a7.9 7.9 0 0 1-7.55 5.75z"/></svg>