<svg xmlns="http://www.w3.org/2000/svg" width="512px" height="512px"><path fill="#ebaf4b" d="M152.33 89.38l175.65 15.96c10.02-41.04 43-76.5 62.65-94.67 4.43-4.1.92-11.44-5.06-10.6C341.55 6.2 234.2 26.9 152.33 89.37zm0 333.24l175.65-15.97c10.02 41.05 43 76.51 62.65 94.67 4.43 4.1.92 11.45-5.06 10.61-44.02-6.14-151.38-26.83-233.24-89.3z"/><path fill="#ffdc64" d="M493.44 242.83l14.96-44.9a8 8 0 0 0-10.75-9.89l-60.48 25.92c-9 3.86-19.6-.77-22.4-10.16C392.16 128.01 321.6 72.71 238 72.71c-144.4 0-173.52 100.3-230.8 171.82a18.35 18.35 0 0 0 0 22.93C64.49 339 93.59 439.3 238 439.3c83.59 0 154.14-55.3 176.76-131.1 2.8-9.38 13.4-14.01 22.4-10.16l60.48 25.93a8 8 0 0 0 10.75-9.9l-14.96-44.89a41.65 41.65 0 0 1 0-26.34z"/><path fill="#ffc850" d="M103.73 142.49c0-8.4.44-16.7 1.18-24.9C63.6 153.18 40 203.56 7.19 244.53a18.35 18.35 0 0 0 0 22.94C64.5 339 93.6 439.29 238.01 439.29c34.45 0 66.6-9.51 94.19-25.86-129.7-22.1-228.47-134.95-228.47-270.94z"/><circle cx="76.65" cy="243.5" r="20.83" fill="#4b3f4e"/><circle cx="80.86" cy="239.29" r="8.33" fill="#fff"/><path fill="#00c3ff" d="M173.56 255.95c0-67 7.06-128.85 18.95-179.38-15.61 2.79-29.58 7-42.15 12.4-18.12 47.19-28.87 104.73-28.87 167 0 62.31 10.76 119.87 28.9 167.06a191.41 191.41 0 0 0 42.15 12.4c-11.9-50.54-18.98-112.44-18.98-179.48z"/><path fill="#00aaf0" d="M121.82 240.67c-.14 5.08-.33 10.15-.33 15.3 0 62.31 10.76 119.87 28.9 167.06a191.41 191.41 0 0 0 42.15 12.4c-7.46-31.65-13.01-67.76-16.13-106.8a274.8 274.8 0 0 1-54.59-87.96z"/><path fill="#00c3ff" d="M224.52 256c0 69.55 8 133.21 21.25 182.97a184.76 184.76 0 0 0 44.6-7.34c-10.75-47.98-17.24-109-17.24-175.63 0-66.62 6.5-127.65 17.25-175.63a184.76 184.76 0 0 0-44.6-7.34c-13.25 49.76-21.26 113.43-21.26 182.98z"/><path fill="#00aaf0" d="M245.78 438.97a184.76 184.76 0 0 0 44.6-7.34 594.42 594.42 0 0 1-5.95-30.88 274 274 0 0 1-51.47-25.18c3.4 22.88 7.7 44.2 12.81 63.4z"/><path fill="#00c3ff" d="M383.73 368.05c-8.36-32.42-13.24-70.85-13.24-112.15 0-41.24 4.87-79.6 13.2-112a184.71 184.71 0 0 0-37.44-36.15c-12.73 42.63-20.2 93.38-20.2 148 0 54.79 7.52 105.69 20.32 148.41a184.69 184.69 0 0 0 37.36-36.1z"/></svg>