<svg xmlns="http://www.w3.org/2000/svg" width="512px" height="512px"><path fill="#eaeae4" d="M512 254.64a253 253 0 0 1-.42 15.69c-4.32 76.16-42.5 149.6-110.13 196.3a254.7 254.7 0 0 1-148.06 45.35c-80.3-.9-158.93-39.43-208.03-110.53A254.76 254.76 0 0 1 .35 242.9c3.98-76.6 42.2-150.59 110.2-197.54A254.65 254.65 0 0 1 257.33.01c80.73.48 159.94 39.06 209.3 110.54A254.8 254.8 0 0 1 512 254.64z"/><path fill="#d6d6d2" d="M147.24 401.45C66.91 285.12 96.1 125.7 212.43 45.37a255.13 255.13 0 0 1 94.33-40.25C241-8.18 170.12 4.22 110.55 45.37-5.78 125.69-34.97 285.12 45.36 401.45c60.06 86.97 164.33 125.23 261.75 105.43a255.1 255.1 0 0 1-159.87-105.43z"/><path fill="#bcbcbc" d="M269.07 511.67c-5.23.26-10.47.37-15.68.3v-.2a246.25 246.25 0 0 0-43.9-146.1A247.66 247.66 0 0 0 .23 258.6h-.2c-.06-5.22.06-10.46.33-15.68A263.3 263.3 0 0 1 222.4 356.78c31.66 45.86 47.8 99.42 46.67 154.9z"/><path fill="#e22342" d="M54.72 290.75h-.12a7.84 7.84 0 0 1-7.72-7.95l.84-55.8a7.84 7.84 0 1 1 15.67.23l-.83 55.8a7.84 7.84 0 0 1-7.84 7.72zm47.9 20.18a7.84 7.84 0 0 1-7.28-10.74l20.62-51.85a7.84 7.84 0 0 1 14.57 5.8l-20.63 51.85a7.84 7.84 0 0 1-7.28 4.94zm45.4 25.12a7.84 7.84 0 0 1-6.05-12.81l35.41-43.13a7.84 7.84 0 0 1 12.12 9.95l-35.42 43.13a7.82 7.82 0 0 1-6.06 2.86zm82.27 130.27a7.84 7.84 0 0 1-.12-15.67l55.8-.83a7.84 7.84 0 1 1 .23 15.67l-55.8.83h-.11zm-20.18-47.9a7.84 7.84 0 0 1-2.9-15.12l51.86-20.62a7.84 7.84 0 1 1 5.79 14.56l-51.85 20.63c-.95.37-1.93.55-2.9.55zM185 373.01a7.82 7.82 0 0 1-4.98-13.9l43.13-35.4a7.84 7.84 0 0 1 9.94 12.11l-43.12 35.41a7.81 7.81 0 0 1-4.97 1.78z"/><path fill="#bcbcbc" d="M512 254.64a253 253 0 0 1-.42 15.69l-.75.02c-1.96.04-3.9.06-5.84.06-53.56 0-105.13-16.1-149.5-46.72A263.32 263.32 0 0 1 241.63 1.2l.01-.81A265 265 0 0 1 257.33 0l-.03 1.5a247.72 247.72 0 0 0 107.1 209.3c43.25 29.85 93.75 45.03 146.08 43.88l1.52-.03z"/><path fill="#e22342" d="M225.83 64.68A7.84 7.84 0 0 1 225.7 49l55.8-.83h.12a7.84 7.84 0 0 1 .11 15.67l-55.8.84h-.11zm24.13 67.69a7.84 7.84 0 0 1-2.9-15.12l51.85-20.63a7.84 7.84 0 0 1 5.8 14.57l-51.86 20.62c-.95.38-1.93.56-2.9.56zm33.84 60.19a7.82 7.82 0 0 1-4.98-13.89l43.13-35.41a7.84 7.84 0 0 1 9.95 12.11l-43.13 35.41a7.8 7.8 0 0 1-4.97 1.78zm172.57 102.65h-.12a7.84 7.84 0 0 1-7.72-7.95l.83-55.8a7.84 7.84 0 0 1 15.67.23l-.83 55.8a7.84 7.84 0 0 1-7.83 7.72zm-67.7-24.12a7.84 7.84 0 0 1-7.28-10.74L402 208.5a7.84 7.84 0 0 1 14.57 5.8l-20.63 51.85a7.84 7.84 0 0 1-7.28 4.94zm-60.2-33.85a7.84 7.84 0 0 1-6.05-12.81l35.41-43.13a7.84 7.84 0 0 1 12.12 9.95l-35.42 43.13a7.82 7.82 0 0 1-6.06 2.86z"/></svg>