<svg xmlns="http://www.w3.org/2000/svg" width="512px" height="512px"><ellipse cx="108.28" cy="101.78" fill="#ebaf4b" rx="88.81" ry="72.09" transform="rotate(-116.48 108.28 101.77)"/><ellipse cx="96.1" cy="108.1" fill="#ff8087" rx="69.99" ry="47.01" transform="rotate(-116.48 96.1 108.1)"/><ellipse cx="404.27" cy="101.78" fill="#ebaf4b" rx="88.81" ry="72.09" transform="rotate(116.48 404.26 101.78)"/><ellipse cx="416.45" cy="108.11" fill="#ff8087" rx="69.99" ry="47.01" transform="rotate(116.48 416.44 108.12)"/><path fill="#ffc850" d="M256 492.63c18.53 0 37.05.87 55.49 2.6 9.92.92 20.08 1.03 30.42.23 86.81-6.73 156.82-78.2 161.8-165.13a175.28 175.28 0 0 0-35.98-117.3c-19.27-25.11-37.09-51.48-49.26-80.7C391.97 68.72 329.22 24 256 24S120.04 68.72 93.53 132.33c-12.17 29.22-29.99 55.59-49.25 80.7A175.27 175.27 0 0 0 8.3 330.32c4.97 86.93 74.98 158.4 161.8 165.13 10.33.8 20.5.7 30.42-.23a594.59 594.59 0 0 1 55.48-2.6z"/><path fill="#ebaf4b" d="M81.3 352.8c-7.41-46.71 2.33-91.63 24.17-128.4 17.05-28.7 32.47-58.58 41.78-90.9 13.03-45.18 42.32-83.6 81.48-107.39-61.26 9.54-112.05 50.67-135.2 106.23-12.17 29.2-29.99 55.58-49.25 80.68A175.27 175.27 0 0 0 8.3 330.33c4.97 86.93 74.98 158.4 161.8 165.13 6.86.53 13.6.52 20.29.28C134.46 470.77 91.6 417.67 81.3 352.8z"/><path fill="#faebc8" d="M368 334c-57.84 15.57-89.68-21.1-85.67-56.67 4.67-41.34-41-45.67-49.33-11.67-12.8 52.2-32.92 71.93-107.5 65.83-68.42-5.59-97.89 63.98-60.8 117.27 28.27 26.25 64.95 43.56 105.4 46.7 10.33.8 20.5.7 30.42-.24a594.63 594.63 0 0 1 110.97 0 178.3 178.3 0 0 0 30.42.23c47.76-3.7 90.37-27.07 119.92-61.76 34.7-61.7-19.56-119.7-93.83-99.7z"/><path fill="#ff96a0" d="M256 352c26.51 0 48 14.32 48 32 0 17.04-20.17 26.01-34.73 32.65a31.95 31.95 0 0 1-26.54 0C228.17 410 208 401.04 208 384c0-17.68 21.49-32 48-32z"/><path fill="#ebc9a0" d="M287.01 464a50.33 50.33 0 0 1-25.35-6.79 11.22 11.22 0 0 0-11.31 0 50.3 50.3 0 0 1-25.36 6.78c-15.78 0-30.51-7.19-39.42-19.23a8 8 0 0 1 12.87-9.52c5.9 7.99 15.83 12.76 26.55 12.76 6.15 0 12.13-1.6 17.28-4.6a27.2 27.2 0 0 1 27.46 0 34.3 34.3 0 0 0 17.28 4.6c10.73 0 20.66-4.77 26.56-12.76a8 8 0 0 1 12.87 9.51C317.52 456.8 302.79 464 287 464z"/><path fill="#dcb996" d="M437.5 425c-1.05 0-2.11-.2-3.14-.65-32.34-13.79-74.4-16.34-74.82-16.37a8 8 0 1 1 .92-15.97c1.83.1 45.3 2.75 80.18 17.63A8 8 0 0 1 437.5 425zm66.5-33c-.94 0-1.9-.17-2.82-.52-54.7-20.63-151.67-14.36-152.64-14.3a7.92 7.92 0 0 1-8.52-7.44 8 8 0 0 1 7.44-8.52c4.1-.28 101.4-6.58 159.36 15.29A8 8 0 0 1 504 392z"/><path fill="#4b3f4e" d="M172 304c-15.4 0-28-12.6-28-28v-16c0-15.4 12.6-28 28-28s28 12.6 28 28v16c0 15.4-12.6 28-28 28z"/><path fill="#5d5360" d="M172 232c-1.37 0-2.68.2-4 .4V272a16 16 0 0 0 32 0v-12c0-15.4-12.6-28-28-28z"/><circle cx="172" cy="251.99" r="12" fill="#fff"/><path fill="#4b3f4e" d="M340 304c-15.4 0-28-12.6-28-28v-16c0-15.4 12.6-28 28-28s28 12.6 28 28v16c0 15.4-12.6 28-28 28z"/><path fill="#5d5360" d="M340 232c-1.37 0-2.68.2-4 .4V272a16 16 0 0 0 32 0v-12c0-15.4-12.6-28-28-28z"/><circle cx="340" cy="251.99" r="12" fill="#fff"/><path fill="#ff8087" d="M266.73 412.58c-14.56-7.86-34.73-18.5-34.73-38.68 0-7.28 2.65-14.06 7.16-19.84C220.96 358.61 208 370.28 208 384c0 17.04 20.17 26.01 34.73 32.65a31.96 31.96 0 0 0 26.54 0l3.61-1.66a28.62 28.62 0 0 1-6.15-2.41z"/><path fill="#f5dcb4" d="M81.3 352.8c-.6-3.87-.93-7.7-1.31-11.55-33.75 20.42-42.57 68.32-15.3 107.51 28.28 26.25 64.96 43.56 105.4 46.7 6.86.53 13.61.52 20.3.28C134.46 470.77 91.6 417.67 81.3 352.8z"/><path fill="#dcb996" d="M74.5 425a8 8 0 0 1-3.14-15.36c34.89-14.88 78.35-17.53 80.18-17.63a8.07 8.07 0 0 1 8.45 7.52 8 8 0 0 1-7.53 8.45c-.42.03-42.55 2.61-74.82 16.37a7.95 7.95 0 0 1-3.14.65zM8 392a8 8 0 0 1-2.82-15.49c57.95-21.86 155.25-15.58 159.36-15.29a8 8 0 0 1 7.44 8.52 7.94 7.94 0 0 1-8.52 7.44c-.98-.06-97.95-6.33-152.64 14.3-.92.35-1.88.52-2.82.52z"/></svg>