<svg xmlns="http://www.w3.org/2000/svg" width="512px" height="512px"><path fill="#e6646e" d="M470.09 272.52c22.74 0 41.85-18.13 41.9-40.87l.01-.42C512 117.2 397.39 24.77 256 24.77S0 117.21 0 231.23v.42c.06 22.74 19.17 40.87 41.91 40.87H470.1z"/><path fill="#dc4655" d="M156.9 231.65v-.42c0-108.1 53.18-196.73 120.89-205.66-7.2-.49-14.45-.8-21.79-.8-141.39 0-256 92.44-256 206.46v.42c.06 22.74 19.17 40.87 41.91 40.87h136.63c-11.74 0-21.6-18.13-21.64-40.87z"/><path fill="#f5dcb4" d="M346.03 421.52l-20.55-149H186.52l-20.55 149a57.8 57.8 0 0 0 57.26 65.7h65.54a57.8 57.8 0 0 0 57.26-65.7z"/><path fill="#ebc9a0" d="M223.52 454.55l16.62-120.48a33.03 33.03 0 0 1 32.72-28.52h57.18l-4.56-33.03H186.52l-20.55 149a57.8 57.8 0 0 0 57.26 65.7h5.4a57.33 57.33 0 0 1-5.11-32.67z"/><g fill="#faebc8"><ellipse cx="206.45" cy="140.39" rx="66.06" ry="57.81"/><path d="M362.02 43.32c-9.43 9.42-15.18 21.68-15.18 35.13 0 29.65 27.73 53.68 61.93 53.68 21.89 0 41.08-9.86 52.1-24.71-25.62-27.53-59.6-49.67-98.85-64.1zM451.83 256c0-41.05-35.91-74.32-80.22-74.32-44.3 0-80.22 33.27-80.22 74.32 0 5.68.76 11.2 2.06 16.52h156.33a69.2 69.2 0 0 0 2.05-16.52z"/></g><path fill="#f5dcb4" d="M36.28 125.27C16.16 152.34 3.57 183.44.7 216.7a49.55 49.55 0 0 0 73.62-43.29 49.53 49.53 0 0 0-38.04-48.15zm104.11 15.12c0 16.42 7.86 31.2 20.43 41.73 5.99-38.3 18.77-72.33 36.3-98.9-32.05 3.98-56.73 28.02-56.73 57.17z"/></svg>