<svg xmlns="http://www.w3.org/2000/svg" width="512px" height="512px"><circle cx="66.06" cy="222.97" r="66.06" fill="#965a50"/><circle cx="66.06" cy="222.97" r="41.29" fill="#ebc9a0"/><circle cx="445.94" cy="222.97" r="66.06" fill="#965a50"/><circle cx="445.94" cy="222.97" r="41.29" fill="#ebc9a0"/><path fill="#af6e5a" d="M442.59 262.05c-8.37-14.44-13.17-30.66-13.17-47.34 0-72.38-44.36-134.33-107.36-160.32V24.77L280.77 41.3l-8.25-33.03c-21.78 7.26-40.36 22.5-54.36 37.3C140.6 62.84 82.58 131.95 82.58 214.7c0 16.68-4.8 32.9-13.17 47.34-12.72 21.95-19.86 46.48-19.86 72.4 0 93.5 92.43 169.3 206.45 169.3s206.45-75.8 206.45-169.3c0-25.92-7.14-50.45-19.86-72.4z"/><path fill="#965a50" d="M140.39 364.04a189.2 189.2 0 0 1 19.86-84.47 124.48 124.48 0 0 0 13.17-55.23c0-84.03 43.97-155.95 106.5-186.5l-7.4-29.58c-21.78 7.26-40.36 22.5-54.36 37.3C140.6 62.84 82.58 131.95 82.58 214.7c0 16.68-4.8 32.9-13.17 47.34-12.72 21.95-19.86 46.48-19.86 72.4 0 75.47 60.23 139.37 143.41 161.23-32.68-34.95-52.57-81.06-52.57-131.64z"/><path fill="#faebc8" d="M256 470.71c68.41 0 123.87-44.37 123.87-99.1a80.66 80.66 0 0 0-6.83-32.38c-6.41-14.71-4.23-31.59 6.07-43.9a74.18 74.18 0 0 0 16.33-59.63c-4.91-31.26-30.18-56.48-61.45-61.35a74.15 74.15 0 0 0-61.9 18.44 23.83 23.83 0 0 1-16.09 6.17 23.83 23.83 0 0 1-16.09-6.17 74.15 74.15 0 0 0-61.9-18.44c-31.27 4.87-56.54 30.1-61.45 61.35a74.19 74.19 0 0 0 16.33 59.64c10.3 12.3 12.48 29.18 6.07 43.89a80.68 80.68 0 0 0-6.83 32.38c0 54.73 55.46 99.1 123.87 99.1z"/><path fill="#f5dcb4" d="M132.13 371.61c0 18.52 6.47 35.8 17.52 50.63a189.1 189.1 0 0 1-9.26-58.2 189.2 189.2 0 0 1 19.86-84.47 124.48 124.48 0 0 0 13.17-55.23c0-17.3 1.96-34.05 5.47-50.08-.3.05-.59.04-.88.09-31.27 4.87-56.54 30.1-61.45 61.35a74.19 74.19 0 0 0 16.33 59.64c10.3 12.3 12.48 29.18 6.07 43.89a80.67 80.67 0 0 0-6.83 32.38z"/><path fill="#5d5360" d="M239.48 330.32a8.2 8.2 0 0 1-3.69-.87l-16.51-8.26a8.26 8.26 0 1 1 7.38-14.77l16.52 8.26a8.26 8.26 0 0 1-3.7 15.64zm33.04 0a8.26 8.26 0 0 1-3.7-15.64l16.52-8.26a8.26 8.26 0 0 1 7.39 14.77l-16.52 8.26c-1.19.6-2.44.87-3.69.87z"/><path fill="#4b3f4e" d="M182.32 363.36a8.3 8.3 0 0 0-8.25 9.38c5.13 36.62 39.85 64.94 81.93 64.94 42.08 0 76.8-28.32 81.93-64.94a8.3 8.3 0 0 0-8.25-9.38H182.32z"/><path fill="#e6646e" d="M208.42 424.04c13.45 8.56 29.85 13.64 47.58 13.64s34.13-5.08 47.58-13.64c-5.96-20.67-25.06-35.91-47.58-35.91s-41.62 15.24-47.58 35.9z"/><path fill="#4b3f4e" d="M181.68 272.52a24.77 24.77 0 0 1-24.78-24.78v-8.26a24.77 24.77 0 0 1 49.55 0v8.26a24.77 24.77 0 0 1-24.77 24.78z"/><path fill="#5d5360" d="M181.68 214.71v28.9a12.39 12.39 0 0 0 24.77 0v-4.13a24.77 24.77 0 0 0-24.77-24.77z"/><circle cx="181.68" cy="231.23" r="8.26" fill="#fff"/><path fill="#4b3f4e" d="M330.32 272.52a24.77 24.77 0 0 1-24.77-24.78v-8.26a24.77 24.77 0 0 1 49.55 0v8.26a24.77 24.77 0 0 1-24.78 24.78z"/><path fill="#5d5360" d="M330.32 214.71v28.9a12.39 12.39 0 0 0 24.78 0v-4.13a24.77 24.77 0 0 0-24.78-24.77z"/><circle cx="330.32" cy="231.23" r="8.26" fill="#fff"/><path fill="#ff8087" d="M256 437.68c2.8 0 5.54-.17 8.26-.42v-16.1a8.26 8.26 0 1 0-16.52 0v16.1c2.72.25 5.47.42 8.26.42z"/></svg>