<svg xmlns="http://www.w3.org/2000/svg" width="512px" height="512px"><path fill="#707487" d="M146.69 440.97l-14.7 58.77a9.87 9.87 0 1 0 17.64 8.07l31.08-44.15-34.02-22.69zm218.62 0l14.7 58.77a9.87 9.87 0 1 1-17.64 8.07l-31.08-44.15 34.02-22.69z"/><path fill="#5b5d6e" d="M139.42 470.04a221.28 221.28 0 0 0 26.85 14.14l14.44-20.52-34.02-22.69-7.27 29.07zm225.89-29.07l-34.02 22.69 14.44 20.52a220.6 220.6 0 0 0 26.85-14.14l-7.27-29.07z"/><path fill="#c89650" d="M247.12 50.3h17.76v35.52h-17.76z"/><circle cx="256" cy="281.16" r="168.7" fill="#ffeae0"/><circle cx="256" cy="281.16" r="62.15" fill="#ffe0cc"/><path fill="#c89650" d="M129.58 126.92l-16.63-23.76 35.12-24.58 16.63 23.75zm269.46-23.68l-15.67 22.38-35.24-24.67 15.67-22.4z"/><path fill="#ffc855" d="M273.76 59.18h-35.52a8.88 8.88 0 0 1-8.88-8.88v-8.88c0-4.9 3.98-8.88 8.88-8.88h35.52c4.9 0 8.88 3.98 8.88 8.88v8.88c0 4.9-3.98 8.88-8.88 8.88z"/><path fill="#00bea5" d="M256 76.94c-112.78 0-204.21 91.43-204.21 204.22S143.22 485.37 256 485.37s204.21-91.43 204.21-204.21-91.43-204.22-204.2-204.22zm0 372.91c-93.17 0-168.7-75.53-168.7-168.7 0-93.16 75.53-168.7 168.7-168.7S424.7 188 424.7 281.16s-75.53 168.7-168.7 168.7z"/><path fill="#5b5d6e" d="M256 156.85a8.88 8.88 0 0 1-8.88-8.88v-26.63a8.88 8.88 0 0 1 17.76 0v26.63c0 4.9-3.98 8.88-8.88 8.88zm0 293a8.88 8.88 0 0 1-8.88-8.88v-26.63a8.88 8.88 0 0 1 17.76 0v26.63c0 4.9-3.98 8.88-8.88 8.88zM122.82 290.04H96.18a8.88 8.88 0 0 1 0-17.76h26.64a8.88 8.88 0 0 1 0 17.76zm293 0h-26.64a8.88 8.88 0 0 1 0-17.76h26.64a8.88 8.88 0 0 1 0 17.76z"/><path fill="#959cb3" d="M140.65 223.44c-1.5 0-3.03-.38-4.43-1.18l-23.07-13.32a8.88 8.88 0 0 1 8.88-15.39l23.07 13.32a8.88 8.88 0 0 1-4.45 16.57zm253.75 146.5c-1.5 0-3.03-.38-4.43-1.18l-23.07-13.32a8.88 8.88 0 0 1 8.88-15.38l23.07 13.31a8.88 8.88 0 0 1-4.45 16.57zm-218.32 58.5a8.86 8.86 0 0 1-7.68-13.32l13.32-23.06a8.88 8.88 0 0 1 15.38 8.88L183.78 424a8.88 8.88 0 0 1-7.7 4.44zm146.5-253.74a8.86 8.86 0 0 1-7.68-13.32l13.32-23.07a8.88 8.88 0 0 1 15.38 8.88l-13.32 23.07a8.88 8.88 0 0 1-7.7 4.44zm48.77 48.74a8.88 8.88 0 0 1-4.45-16.57l23.07-13.31a8.87 8.87 0 1 1 8.88 15.38l-23.07 13.32a8.85 8.85 0 0 1-4.43 1.18zM117.6 369.94a8.88 8.88 0 0 1-4.45-16.56l23.07-13.32a8.88 8.88 0 1 1 8.88 15.38l-23.07 13.32a8.86 8.86 0 0 1-4.43 1.19zm218.32 58.5a8.88 8.88 0 0 1-7.7-4.44l-13.32-23.07a8.88 8.88 0 0 1 15.38-8.87l13.32 23.06a8.88 8.88 0 0 1-7.68 13.32zM189.42 174.7a8.88 8.88 0 0 1-7.7-4.44l-13.32-23.07a8.88 8.88 0 0 1 15.38-8.88l13.32 23.07a8.88 8.88 0 0 1-7.68 13.32z"/><path fill="#464655" d="M214.14 362.53a8.86 8.86 0 0 1-7.69-13.32L239 292.85a8.87 8.87 0 1 1 15.38 8.88l-32.54 56.36a8.88 8.88 0 0 1-7.7 4.44zM256 272.28a8.88 8.88 0 0 1-8.88-8.88v-79.91a8.88 8.88 0 0 1 17.76 0v79.9a8.89 8.89 0 0 1-8.88 8.89z"/><path fill="#ffd6b3" d="M256 112.46c-93.17 0-168.7 75.53-168.7 168.7 0 93.16 75.53 168.7 168.7 168.7s168.7-75.53 168.7-168.7-75.53-168.7-168.7-168.7zm0 319.64c-83.36 0-150.94-67.58-150.94-150.94 0-83.37 67.58-150.94 150.94-150.94s150.94 67.57 150.94 150.94S339.36 432.1 256 432.1z"/><g fill="#ffc855"><circle cx="256" cy="281.16" r="22.2"/><path d="M200.24 37.83c-28.1-40.1-83.56-49.87-123.67-21.8-40.1 28.08-49.88 83.56-21.8 123.66a8.87 8.87 0 0 0 12.37 2.18L198.05 50.2a8.88 8.88 0 0 0 2.19-12.37zm235.19-21.8c-40.11-28.08-95.58-18.3-123.66 21.8a8.9 8.9 0 0 0 2.18 12.37l130.91 91.67a8.91 8.91 0 0 0 12.37-2.18c28.08-40.1 18.3-95.58-21.8-123.66z"/></g><path fill="#ffb44b" d="M95 118.96C69.02 81.86 75.5 31.64 108.37 2.08a88.32 88.32 0 0 0-31.8 13.95C36.47 44.1 26.7 99.59 54.77 139.69a8.87 8.87 0 0 0 12.37 2.18l29.91-20.95a8.8 8.8 0 0 1-2.05-1.96zm251.4-50c25.6-36.57 73.97-47.83 112.72-28.22a88.25 88.25 0 0 0-23.7-24.72c-40.11-28.08-95.58-18.29-123.66 21.8a8.9 8.9 0 0 0 2.18 12.37L345.06 72c.26-1.08.69-2.1 1.33-3.03z"/></svg>