<svg xmlns="http://www.w3.org/2000/svg" width="512px" height="512px"><path fill="#d2a582" d="M70.94 161.03a8.26 8.26 0 0 1-8.13-9.76L82.7 43.91a8.26 8.26 0 0 1 16.25 3.01l-19.9 107.36a8.26 8.26 0 0 1-8.11 6.75zm-26.06 0a8.26 8.26 0 0 1-8.11-6.74L16.66 46.94a8.26 8.26 0 1 1 16.23-3.04L53 151.26a8.26 8.26 0 0 1-8.12 9.77z"/><path fill="#f5dcb4" d="M488.3 453.53l-42.36-28.24-323.1-98.08a49.52 49.52 0 0 1-23.74-42.3V177.54a41.29 41.29 0 0 0-41.3-41.3H24.78A24.77 24.77 0 0 0 0 161.04v8.26a49.52 49.52 0 0 0 33.03 46.67v101.98c0 91.21 73.95 165.16 165.16 165.16h281.16a16.14 16.14 0 0 0 8.95-29.57z"/><circle cx="90.84" cy="45.42" r="16.52" fill="#5d5360"/><circle cx="94.28" cy="43.09" r="6.98" fill="#fff"/><circle cx="24.77" cy="45.42" r="16.52" fill="#5d5360"/><circle cx="27.11" cy="43.09" r="6.98" fill="#fff"/><path fill="#ebc9a0" d="M462.45 466.58H231.23c-91.22 0-165.16-73.94-165.16-165.16v-80.39c0-6.07-3.48-11.42-8.7-14.52a49.44 49.44 0 0 1-24.34-42.6v-27.65h-8.26A24.77 24.77 0 0 0 0 161.03v8.26a49.52 49.52 0 0 0 33.03 46.67v101.98c0 91.21 73.95 165.16 165.16 165.16h264.26a8.26 8.26 0 0 0 0-16.52z"/><path fill="#af6e5a" d="M324.48 112.53c-129.46 0-210.4 105.06-199.65 222.54 2.98 32.61 46.22 102.82 132.3 53.22 20.49 36.82 59.73 61.78 104.85 61.78 82.86 0 150.02-67.17 150.02-150.02 0-103.57-83.96-187.52-187.52-187.52z"/><g fill="#965a50"><path d="M174.37 358.8c-10.75-117.48 70.2-222.54 199.66-222.54 19.25 0 37.82 2.9 55.3 8.3a186.65 186.65 0 0 0-104.85-32.03c-129.46 0-210.4 105.06-199.65 222.54 2.18 23.84 25.9 67.71 72.1 70.25-13.9-14.91-21.38-33.64-22.56-46.52z"/><path d="M421.33 310.85c0-46.9-38.16-85.07-85.07-85.07-35.73 0-71.48 21.32-91.08 54.32-11.92 20.07-26.83 60.57-2.77 115.69 4.76-2.12 9.65-4.58 14.7-7.5-15.43-36.13-14.76-71.08 2.27-99.75 16.43-27.66 47.32-46.24 76.88-46.24a68.63 68.63 0 0 1 68.55 68.55 53.25 53.25 0 0 1-53.19 53.18 40.95 40.95 0 0 1-40.9-40.9c0-19.52 14.05-29.43 27.1-30.38 11.39-.8 24.52 4.97 27.26 23.72a8.27 8.27 0 0 0 16.34-2.39c-4.1-28.06-25.42-39.2-44.8-37.8-21.08 1.53-42.41 18.12-42.41 46.86a57.48 57.48 0 0 0 57.41 57.41 69.78 69.78 0 0 0 69.7-69.7z"/></g><path fill="#d2a582" d="M49.55 219.46a40.97 40.97 0 0 1-16.52-3.5v17.58a57.55 57.55 0 0 0 16.52 2.44 8.26 8.26 0 0 0 0-16.52z"/></svg>