<svg xmlns="http://www.w3.org/2000/svg" width="512px" height="512px"><path fill="#ff96a0" d="M512 11.24s-8.25 144-107.35 168.77l-74.32-82.58C355.1 64.39 425.5-.08 512 11.24z"/><path fill="#e6646e" d="M404.65 180l-39.5-43.87c14.73-46.96 80.8-113.03 145.42-111.34-4.9 36.43-25.47 135.1-105.92 155.22z"/><path fill="#ff96a0" d="M0 11.24s8.25 144 107.35 168.77l74.32-82.58C156.9 64.39 86.5-.08 0 11.24z"/><path fill="#e6646e" d="M107.35 180l39.5-43.87C132.11 89.17 66.04 23.1 1.42 24.79c4.9 36.43 25.47 135.1 105.92 155.22z"/><path fill="#ffaab4" d="M462.45 320.4c0 100.34-92.43 181.68-206.45 181.68S49.54 420.74 49.54 320.4c0-115.62 92.43-247.75 206.46-247.75S462.45 204.78 462.45 320.4z"/><path fill="#dc4655" d="M185.25 403.9c8.9 28.3 33.33 48.63 62.1 48.63h17.3c29.07 0 53.73-20.77 62.37-49.55l-141.77.91z"/><path fill="#e6646e" d="M348.82 372.48c0 53-64.93 36.24-92.75 36.24-27.24 0-92.71 16.75-92.71-36.24 0-54.12 41.46-92.1 92.67-92.1s92.79 37.99 92.79 92.1z"/><path fill="#ff96a0" d="M121.11 323.36c0-98.21 56.18-207.35 134.96-250.7H256c-114.03 0-206.46 132.12-206.46 247.74 0 94.68 82.32 172.42 187.41 180.88-68.59-32.19-115.84-99.75-115.84-177.92z"/><g fill="#a5465a"><ellipse cx="221.86" cy="356.62" rx="20.5" ry="16.7" transform="rotate(-61.68 221.86 356.62)"/><ellipse cx="290.15" cy="356.62" rx="20.5" ry="16.7" transform="rotate(61.68 290.15 356.62)"/></g><path fill="#4b3f4e" d="M165.16 270.85a24.77 24.77 0 0 1-24.78-24.78v-8.25a24.77 24.77 0 1 1 49.55 0v8.25a24.78 24.78 0 0 1-24.77 24.78z"/><path fill="#5d5360" d="M165.16 213.04v28.9a12.39 12.39 0 0 0 24.77 0v-4.12a24.77 24.77 0 0 0-24.78-24.78z"/><circle cx="165.16" cy="229.56" r="8.26" fill="#fff"/><path fill="#4b3f4e" d="M346.84 270.85a24.77 24.77 0 0 1-24.78-24.78v-8.25a24.77 24.77 0 1 1 49.55 0v8.25a24.77 24.77 0 0 1-24.77 24.78z"/><path fill="#5d5360" d="M346.84 213.04v28.9a12.39 12.39 0 0 0 24.77 0v-4.12a24.77 24.77 0 0 0-24.77-24.78z"/><circle cx="346.84" cy="229.56" r="8.26" fill="#fff"/></svg>