<svg xmlns="http://www.w3.org/2000/svg" width="512px" height="512px"><path fill="#ffdc64" d="M289.37 84.2L261.73 4.1a6.06 6.06 0 0 0-11.46 0l-27.64 80.1-1.54.3-56.2-63.43a6.06 6.06 0 0 0-10.59 4.39l5.12 84.59-.1 1.46-77.4-37.7a6.06 6.06 0 0 0-8.1 8.11l37.69 77.4-.13.18-85.92-5.2a6.06 6.06 0 0 0-4.4 10.6l64.45 57.07-.05.22L4.1 250.27a6.06 6.06 0 0 0 0 11.46l81.37 28.08.05.22-64.44 57.08a6.06 6.06 0 0 0 4.39 10.59l85.92-5.2.13.18-37.7 77.4a6.06 6.06 0 0 0 8.11 8.1l77.4-37.69.18.13-5.2 85.93a6.06 6.06 0 0 0 10.6 4.38l57.07-64.44.22.05 28.08 81.37a6.06 6.06 0 0 0 11.46 0l28.08-81.37.22-.05 57.08 64.44a6.06 6.06 0 0 0 10.59-4.38l-5.2-85.93 1.38.46 76.2 37.1a6.06 6.06 0 0 0 8.1-8.1l-37.1-76.2.87-1.3 84.6 5.12a6.06 6.06 0 0 0 4.38-10.6l-63.44-56.19.31-1.54 80.11-27.64a6.06 6.06 0 0 0 0-11.46l-80.11-27.64-.3-1.54 63.43-56.2a6.06 6.06 0 0 0-4.38-10.59l-84.6 5.12-.87-1.3 37.1-76.2a6.06 6.06 0 0 0-8.1-8.1l-76.2 37.1-1.3-.87 5.12-84.6a6.06 6.06 0 0 0-10.6-4.38L290.92 84.5"/><circle cx="256.86" cy="254.71" r="172.38" fill="#ffc850"/><path fill="#ebaf4b" d="M313.4 370.56c-95.21 0-172.39-77.18-172.39-172.39 0-33.11 9.36-64.04 25.55-90.3-49.25 30.35-82.08 84.75-82.08 146.84 0 95.2 77.18 172.38 172.38 172.38 62.09 0 116.5-32.84 146.84-82.08a171.54 171.54 0 0 1-90.3 25.55z"/><path fill="#dc9b41" d="M256 307.97c-15.2 0-28.9-9.2-34.09-22.91a8.67 8.67 0 0 1 16.2-6.14c2.66 7.02 9.85 11.73 17.89 11.73 8.04 0 15.23-4.71 17.89-11.73a8.67 8.67 0 0 1 16.2 6.14c-5.2 13.7-18.89 22.91-34.09 22.91zm0 69.3c-9.42 0-18.69-.81-27.53-2.4a8.67 8.67 0 0 1 3.09-17.06 141.22 141.22 0 0 0 48.88 0 8.68 8.68 0 0 1 3.09 17.05 155 155 0 0 1-27.53 2.41z"/><path fill="#d7823c" d="M322.15 325.08l-6.5-12.45a8.66 8.66 0 0 0-11.68-3.67 8.6 8.6 0 0 0-4.52 8.78c-10.97 4.78-26.76 7.56-43.45 7.56s-32.48-2.78-43.45-7.56a8.6 8.6 0 0 0-4.52-8.78 8.67 8.67 0 0 0-11.68 3.67l-6.5 12.45a8.67 8.67 0 0 0 7.67 12.67 8.64 8.64 0 0 0 7.5-4.4c13.32 5.93 31.5 9.27 50.98 9.27s37.66-3.34 50.97-9.27a8.65 8.65 0 0 0 15.18-8.27z"/><path fill="#4b3f4e" d="M191.03 256a21.66 21.66 0 0 1-21.65-21.65v-8.67a21.65 21.65 0 0 1 43.31 0v8.67c0 11.96-9.7 21.65-21.66 21.65z"/><path fill="#5d5360" d="M191.03 204.03c-1.48 0-2.93.15-4.33.43v21.22a13 13 0 1 0 25.99 0c0-11.96-9.7-21.65-21.66-21.65z"/><circle cx="195.37" cy="221.35" r="8.66" fill="#fff"/><path fill="#4b3f4e" d="M320.97 256a21.65 21.65 0 0 1-21.66-21.65v-8.67a21.65 21.65 0 1 1 43.31 0v8.67c0 11.96-9.7 21.65-21.65 21.65z"/><path fill="#5d5360" d="M320.97 204.03c-1.49 0-2.94.15-4.34.43v21.22a13 13 0 1 0 26 0c0-11.96-9.7-21.65-21.66-21.65z"/><circle cx="325.3" cy="221.35" r="8.66" fill="#fff"/></svg>