<svg xmlns="http://www.w3.org/2000/svg" width="512px" height="512px"><path fill="#494f57" d="M406.82 483.35c-.82 0-1.66-.13-2.48-.42-28.31-9.93-49.69-29.64-63.52-58.6-13.65-28.55-16.51-58.95-16.51-79.43a7.5 7.5 0 1 1 15 0c0 18.93 2.6 46.95 15.04 72.97 12.05 25.22 30.54 42.34 54.95 50.9a7.5 7.5 0 0 1-2.48 14.58z"/><path fill="#52b4de" d="M346.36 308.94h-29.1l-24.45 44.32a10.23 10.23 0 0 0 5.36 14.52 95.84 95.84 0 0 0 67.27 0 10.23 10.23 0 0 0 5.37-14.52l-24.45-44.32z"/><path d="M346.36 308.94h-29.1l-24.45 44.32a10.23 10.23 0 0 0 5.36 14.52 95.84 95.84 0 0 0 67.27 0 10.23 10.23 0 0 0 5.37-14.52l-24.45-44.32z" opacity=".2"/><path fill="#52b4de" d="M473.05 141.24C473.05 63.24 409.8 0 331.8 0S190.57 63.23 190.57 141.24s63.24 186.8 141.24 186.8 141.24-108.8 141.24-186.8z"/><path fill="#52b4de" d="M473.05 141.24C473.05 63.24 409.8 0 331.8 0S190.57 63.23 190.57 141.24s63.24 186.8 141.24 186.8 141.24-108.8 141.24-186.8z"/><path d="M295.66 4.68c-60.49 15.96-105.09 71.05-105.09 136.56 0 78 63.24 186.8 141.24 186.8 17.89 0 35-5.73 50.75-15.5-112.6-14.2-177.7-233.27-86.9-307.86z" opacity=".1"/><path fill="#494f57" d="M255.2 512c-.82 0-1.66-.14-2.48-.42-28.31-9.93-49.68-29.65-63.52-58.6-13.64-28.55-16.5-58.95-16.5-79.43a7.5 7.5 0 1 1 15 0c0 18.93 2.6 46.95 15.04 72.96 12.05 25.23 30.54 42.35 54.95 50.91A7.5 7.5 0 0 1 255.2 512z"/><path fill="#fbe067" d="M194.74 337.59h-29.1L141.2 381.9a10.23 10.23 0 0 0 5.37 14.52 95.84 95.84 0 0 0 67.27 0 10.23 10.23 0 0 0 5.36-14.52l-24.45-44.32z"/><path d="M194.74 337.59h-29.1L141.2 381.9a10.23 10.23 0 0 0 5.37 14.52 95.84 95.84 0 0 0 67.27 0 10.23 10.23 0 0 0 5.36-14.52l-24.45-44.32z" opacity=".2"/><path fill="#fbe067" d="M321.43 169.89c0-78-63.23-141.24-141.24-141.24S38.95 91.88 38.95 169.89s63.24 186.8 141.24 186.8 141.24-108.8 141.24-186.8z"/><path fill="#fbe067" d="M321.43 169.89c0-78-63.23-141.24-141.24-141.24S38.95 91.88 38.95 169.89s63.24 186.8 141.24 186.8 141.24-108.8 141.24-186.8z"/><path d="M144.05 33.32C83.55 49.3 38.95 104.38 38.95 169.9c0 78 63.24 186.8 141.24 186.8 17.9 0 35-5.74 50.76-15.5-112.61-14.2-177.7-233.27-86.9-307.87z" opacity=".1"/><path fill="#494f57" d="M113.43 144.9a7.5 7.5 0 0 1-7.5-7.5v-11.26a7.5 7.5 0 1 1 15 0v11.27a7.5 7.5 0 0 1-7.5 7.5zm132.14 0a7.5 7.5 0 0 1-7.5-7.5v-11.26a7.5 7.5 0 1 1 15 0v11.27a7.5 7.5 0 0 1-7.5 7.5zm-65.37 20.15a19.02 19.02 0 0 1-19.03-19.02V132.2a5.2 5.2 0 0 1 5.2-5.19h27.65a5.2 5.2 0 0 1 5.2 5.2v13.82c0 10.5-8.52 19.02-19.03 19.02z"/></svg>