<svg xmlns="http://www.w3.org/2000/svg" width="512px" height="512px"><path fill="#ffa91f" d="M475.74 298.7c0 52.93-17.45 101-45.9 136.48-30.19 37.65-72.75 61.13-119.9 61.13-.4 0-.82 0-1.22-.02-2.67 0-5.35-.1-8-.29h-.02V306.22l.01-204.83c2.65-.19 5.31-.27 7.99-.29h1.24c27.71 0 53.83 8.1 76.78 22.42 52.91 33.02 89.02 99.08 89.02 175.17z"/><path fill="#e2901a" d="M300.7 306.22l.02-204.83c3.05-.2 6.13-.3 9.22-.3 27.72 0 53.83 8.1 76.79 22.43-11.07 17.52-18.28 46.67.94 91.45 23.47 54.67-39.44 80.1-86.97 91.25zm129.14 128.95c-30.18 37.67-72.75 61.14-119.9 61.14-3.1 0-6.17-.1-9.23-.3V336.95l84.07 53.16s-3.64 45.06 45.06 45.06z"/><path fill="#23b75f" d="M301.04 118.36a9.09 9.09 0 0 1-8.64-9.53c1.42-28.9-11.07-52.9-37.1-71.35-20.05-14.2-40.57-19.53-40.77-19.58A9.09 9.09 0 0 1 219 .28c.97.25 24.02 6.23 46.8 22.36 30.98 21.96 46.46 52.07 44.75 87.08a9.08 9.08 0 0 1-9.52 8.64z"/><path fill="#e2901a" d="M410.75 298.7c0 89.33-48.9 165.84-102.03 197.6-2.67-.02-5.35-.12-8-.3h-.02V306.22l.01-204.83c2.65-.19 5.31-.27 7.99-.29 53.14 31.74 102.05 108.26 102.05 197.6z"/><path fill="#ffa91f" d="M402.27 298.7c0 67.47-27.88 127.62-64.44 166.7-26.77 28.63-58.17 45.96-86.66 46.59l-1.6.01c-42.34 0-81.8-12.34-114.98-33.6-59.13-37.93-98.33-104.24-98.33-179.7 0-117.8 95.5-213.29 213.31-213.29l1.6.01c67.4 1.48 151.1 96.4 151.1 213.28z"/><path fill="#e2901a" d="M122.12 298.7c0-99.4 68-182.92 160.02-206.58-10.46-4.16-20.9-6.48-30.97-6.7l-1.6-.01c-117.8 0-213.3 95.5-213.3 213.3S131.77 512 249.57 512l1.6-.01c10.07-.22 20.5-2.55 30.97-6.7-92.02-23.67-160.02-107.19-160.02-206.59z"/><path fill="#2fcc6e" d="M120.55 292.57s-65.7-87.71-30.07-168c34.06-76.76 141.17-68.43 156.88-93.24.73-1.1 1.24-2.27 1.56-3.54l.03-.06.03.05c1.38 2.75 45.35 91.15-7.37 152.55-53.56 62.36-111.52 67.49-121.06 112.24z"/><path fill="#23b75f" d="M248.38 25.36a6.06 6.06 0 0 0-7 4.96c-9.09 53.3-33.35 71.17-59.03 90.1-2.31 1.71-4.64 3.43-6.96 5.18h-19.36a6.06 6.06 0 0 0 0 12.12h4.27a138.18 138.18 0 0 0-22.57 24.95c-14.61 20.92-23.1 47.96-25.21 80.39a6.06 6.06 0 0 0 12.09.79c1.02-15.56 3.58-29.73 7.64-42.43l2.64 5.08a6.06 6.06 0 1 0 10.76-5.58l-7.55-14.56c2.78-6 5.96-11.6 9.56-16.75 12.32-17.64 27.35-28.71 41.88-39.43 5.01-3.7 10.05-7.4 15-11.4v6.95a6.06 6.06 0 0 0 12.12 0v-17.66c16.26-15.98 30.2-37.76 36.67-75.72a6.06 6.06 0 0 0-4.95-6.99z"/><path fill="#e2901a" d="M337.83 465.4c-26.77 28.63-58.17 45.96-86.66 46.59l-1.6.01c-42.34 0-81.8-12.34-114.98-33.6l27.88-54.83s81.47 90.8 175.36 41.83z"/></svg>