<svg xmlns="http://www.w3.org/2000/svg" width="512px" height="512px"><path fill="#ffdc64" d="M499.92 188.26l-165.84-15.38L268.2 19.9c-4.6-10.71-19.8-10.71-24.4 0l-65.88 152.97-165.84 15.38c-11.61 1.08-16.3 15.52-7.54 23.22L129.66 321.4 93.04 483.87c-2.56 11.38 9.73 20.3 19.75 14.35L256 413.2l143.2 85.03c10.03 5.96 22.32-2.97 19.76-14.35L382.34 321.4l125.12-109.92c8.77-7.7 4.07-22.14-7.54-23.22z"/><path fill="#ffc850" d="M268.2 19.91c-4.6-10.71-19.8-10.71-24.4 0l-65.88 152.97-165.84 15.38c-11.61 1.08-16.3 15.52-7.54 23.22L129.66 321.4 93.04 483.87c-2.56 11.38 9.73 20.3 19.75 14.35l31.97-18.98c4.42-182.1 89.03-310.33 156.02-383.7L268.2 19.92z"/></svg>