<svg xmlns="http://www.w3.org/2000/svg" width="512px" height="512px"><path fill="#ebaf4b" d="M190.99 495.75h-14.26l14.06-63.26a8.12 8.12 0 1 0-15.86-3.52l-14.84 66.78h-34.12a8.13 8.13 0 0 0 0 16.25h65.02a8.13 8.13 0 0 0 0-16.25zm195.04 0h-34.11l-14.84-66.78a8.13 8.13 0 0 0-15.87 3.52l14.06 63.26h-14.25a8.12 8.12 0 1 0 0 16.25h65.01a8.12 8.12 0 1 0 0-16.25zM14.69 317.72c13.72 9.67 40.01 22.7 74.7 14.13l37.26-154.41S78.97 243.5 13.8 300.49a10.98 10.98 0 0 0 .88 17.23zm482.63 0c-13.72 9.67-40.02 22.7-74.71 14.13l-37.25-154.41s47.68 66.06 112.84 123.05a10.98 10.98 0 0 1-.88 17.23z"/><path fill="#ffdc64" d="M385.44 142.33c.94-9.7.79-19.73-.63-30C376.14 49.76 322 1.39 258.84.04c-73.11-1.56-132.87 57.24-132.87 130 0 3.34.13 6.65.38 9.93 1.56 19.96-3.47 39.8-15.23 56.02-24.4 33.68-37.37 76.19-33.11 121.85 7.77 83.46 74.36 151.35 157.67 160.54C343.53 490.26 434.8 406.14 434.8 300.7c0-38.92-12.45-74.9-33.57-104.25-11.33-15.74-17.65-34.8-15.78-54.12z"/><path fill="#ffc850" d="M143.02 317.83c-4.25-45.66 8.7-88.17 33.12-121.85 11.75-16.22 16.79-36.06 15.23-56.02a130.6 130.6 0 0 1-.38-9.93c0-60.5 41.37-111.23 97.34-125.74A126.53 126.53 0 0 0 258.84.03c-73.11-1.56-132.87 57.24-132.87 130 0 3.34.13 6.65.38 9.92 1.56 19.97-3.47 39.8-15.23 56.02-24.4 33.69-37.37 76.2-33.11 121.86 7.77 83.46 74.36 151.35 157.67 160.54 18.22 2 35.94 1.22 52.86-1.9-77.54-14.13-138.12-79.3-145.52-158.64z"/><path fill="#eb914b" d="M296.64 170.67c0 17.95-27.17 39-40.64 39-13.46 0-40.63-21.05-40.63-39s27.17-39.01 40.63-39.01c13.47 0 40.64 21.05 40.64 39z"/><path fill="#4b3f4e" d="M182.86 138.16c8.97 0 16.25-7.28 16.25-16.25v-8.13a16.25 16.25 0 0 0-32.5 0v8.13c0 8.97 7.27 16.25 16.25 16.25zm146.28 0c8.98 0 16.26-7.28 16.26-16.25v-8.13a16.25 16.25 0 1 0-32.5 0v8.13a16.24 16.24 0 0 0 16.24 16.25z"/><g fill="#fff"><circle cx="182.86" cy="113.78" r="8.13"/><circle cx="329.14" cy="113.78" r="8.13"/></g><path fill="#d2783c" d="M296.64 170.67c0-1.61-.29-3.24-.7-4.88-8.8 8.01-28.43 15.14-39.57 15.14-11.4 0-31.7-7.46-40.17-15.7a20.7 20.7 0 0 0-.83 5.44c0 17.95 27.17 39 40.63 39 13.47 0 40.64-21.05 40.64-39z"/></svg>