<svg xmlns="http://www.w3.org/2000/svg" width="512px" height="512px"><path fill="#e52e40" d="M125.86 35.58A254.77 254.77 0 0 1 255.96.1C397.3.1 511.9 114.7 511.9 256.05S397.31 512 255.95 512 0 397.4 0 256.05C0 162.19 50.53 80.13 125.86 35.58"/><circle cx="255.95" cy="256.05" r="192.93" fill="#eaeae4"/><circle cx="255.95" cy="256.05" r="129.92" fill="#e52e40"/><circle cx="255.95" cy="256.05" r="66.91" fill="#eaeae4"/><ellipse cx="342.84" cy="169.16" fill="#fcd42d" rx="90.06" ry="42.21" transform="rotate(135 342.85 169.16)"/><path fill="#d3af1a" d="M333.03 159.33c27.67-27.67 59.49-42.94 79.83-40.16-.75-5.51-2.82-10.19-6.33-13.7C390.04 89 348.17 104.13 313 139.3s-50.32 77.04-33.83 93.53c3.51 3.51 8.19 5.58 13.7 6.33-2.78-20.34 12.48-52.16 40.16-79.83z"/><path fill="#2f3c3f" d="M406.53 105.47l78.27 10.61 27.2-27.2-53.07-35.81L426 63.12z"/><path fill="#455256" d="M406.53 105.47L395.9 27.2 423.11 0l35.82 53.07zM255.95 263.88a7.84 7.84 0 0 1-5.54-13.37l23.22-23.22a7.84 7.84 0 0 1 11.08 11.08l-23.22 23.22a7.81 7.81 0 0 1-5.54 2.3z"/><path fill="#d3af1a" d="M348.24 228.33a7.79 7.79 0 0 1-5.54-2.3l-56.22-56.2a7.84 7.84 0 0 1 11.08-11.09l56.21 56.21a7.84 7.84 0 0 1-5.53 13.38zm19.66-19.66c-2 0-4.01-.77-5.54-2.3l-56.22-56.21a7.84 7.84 0 0 1 11.08-11.08l56.22 56.21a7.84 7.84 0 0 1-5.54 13.38z"/></svg>