<svg xmlns="http://www.w3.org/2000/svg" width="512px" height="512px"><path fill="#ebaf4b" d="M214.53 72.15a8.26 8.26 0 0 1-8.26-8.26V32.9a8.26 8.26 0 0 1 16.53 0v31c0 4.56-3.7 8.26-8.27 8.26zM77.7 127.43c-2.11 0-4.23-.8-5.85-2.42l-11.89-11.9a8.27 8.27 0 0 1 11.7-11.68l11.89 11.9a8.27 8.27 0 0 1-5.85 14.1zm62.54-42.57a8.27 8.27 0 0 1-7.65-5.11l-7.9-19.14a8.26 8.26 0 1 1 15.28-6.3l7.9 19.14a8.26 8.26 0 0 1-7.63 11.41zm148.49.29a8.26 8.26 0 0 1-7.63-11.43l8.02-19.36a8.25 8.25 0 1 1 15.26 6.32l-8.01 19.36a8.27 8.27 0 0 1-7.64 5.1z"/><g fill="#f5dcb4"><path d="M214.53 487.36a8.26 8.26 0 0 1-8.26-8.26v-30.47a8.26 8.26 0 0 1 16.53 0v30.47c0 4.56-3.7 8.26-8.27 8.26zm151.92-71.18a8.23 8.23 0 0 1-5.75-2.33l-13.41-13a8.26 8.26 0 1 1 11.5-11.87l13.4 13a8.26 8.26 0 0 1-5.74 14.2zm-303.83 0a8.26 8.26 0 0 1-5.84-14.1l14.43-14.44a8.26 8.26 0 1 1 11.69 11.69l-14.44 14.43a8.24 8.24 0 0 1-5.84 2.42zM23.1 343.56a8.27 8.27 0 0 1-3.16-15.9l10.94-4.54a8.26 8.26 0 1 1 6.33 15.27l-10.94 4.54a8.2 8.2 0 0 1-3.16.63zm273.65 119.19a8.27 8.27 0 0 1-7.64-5.1l-7.56-18.26a8.26 8.26 0 1 1 15.27-6.33l7.56 18.26a8.26 8.26 0 0 1-7.63 11.43zm109.21-119.19c-1.05 0-2.12-.2-3.16-.64l-11.37-4.7a8.26 8.26 0 1 1 6.33-15.27l11.37 4.7a8.26 8.26 0 0 1-3.17 15.9zM132.32 462.75a8.28 8.28 0 0 1-7.63-11.43l7.96-19.23a8.25 8.25 0 1 1 15.27 6.33l-7.96 19.23a8.27 8.27 0 0 1-7.64 5.1z"/><circle cx="214.53" cy="256" r="198.31"/></g><path fill="#ebc9a0" d="M280.64 388.2c-109.52 0-198.31-88.78-198.31-198.3A197.4 197.4 0 0 1 111.3 86.66C54.29 121.49 16.22 184.3 16.22 256c0 109.53 88.8 198.31 198.31 198.31 71.7 0 134.51-38.06 169.35-95.07a197.37 197.37 0 0 1-103.24 28.97z"/><path fill="#ffc850" d="M502.3 158.56l-99.42 17.54a8.2 8.2 0 0 1-8.9-4.59c-5.8-12.52-13.74-27.27-21.28-37.8 18.72-20.75 16.81-42.74 14.7-52.4a5.12 5.12 0 0 0-6.24-3.86l-56.38 13.7A197.3 197.3 0 0 0 214.54 57.7c-77.4 0-144.43 44.33-177.1 108.98L13.7 176.5a7.88 7.88 0 0 0-4.78 8.97c1.89 8.04 6.3 17.15 11.77 24.74-14 6.15-18.83 15.99-20.5 22.45a6.83 6.83 0 0 0 4.71 8.19c77.1 23.01 186.72 25.4 217.6 25.52 6 .03 10.87-9.58 16.81-10.37 123.95-16.52 170.46-34.56 170.46-34.56l92.52 16.32c5.06.9 9.7-3 9.7-8.13v-62.94a8.26 8.26 0 0 0-9.7-8.13z"/><path fill="#ebaf4b" d="M4.92 240.85c27.41 8.18 58.93 13.75 89.56 17.54a197.9 197.9 0 0 1-12.15-68.5c0-37.77 10.58-73.08 28.91-103.13a199.17 199.17 0 0 0-73.8 79.91L13.7 176.5a7.88 7.88 0 0 0-4.78 8.97c1.89 8.05 6.3 17.15 11.77 24.74-14 6.15-18.83 16-20.49 22.45a6.83 6.83 0 0 0 4.7 8.19z"/><path fill="#faebc8" d="M272.72 404.74a8.27 8.27 0 0 1-7.64-5.11l-3.63-8.78a8.26 8.26 0 1 1 15.27-6.32l3.63 8.78a8.26 8.26 0 0 1-7.63 11.43z"/><path fill="#ffdc64" d="M160 132.58a8.27 8.27 0 0 1-7.65-5.11l-3.63-8.78a8.26 8.26 0 1 1 15.27-6.32l3.63 8.78a8.26 8.26 0 0 1-7.63 11.43z"/><path fill="#faebc8" d="M74.07 322.45a8.26 8.26 0 0 1-3.16-15.9l8.77-3.63A8.25 8.25 0 1 1 86 318.18l-8.78 3.64c-1.03.43-2.1.63-3.15.63zm82.28 82.29a8.26 8.26 0 0 1-7.63-11.43l3.63-8.78a8.25 8.25 0 1 1 15.27 6.32l-3.63 8.78a8.27 8.27 0 0 1-7.64 5.1z"/><path fill="#ffdc64" d="M269.08 132.58a8.26 8.26 0 0 1-7.63-11.43l3.64-8.78a8.26 8.26 0 1 1 15.26 6.32l-3.63 8.78a8.26 8.26 0 0 1-7.64 5.1z"/><path fill="#faebc8" d="M355 322.45c-1.05 0-2.12-.2-3.15-.63l-8.78-3.64a8.26 8.26 0 1 1 6.32-15.26l8.78 3.63a8.26 8.26 0 0 1-3.17 15.9z"/><path fill="#4b3f4e" d="M90.6 198.16c-9.14 0-16.54-7.4-16.54-16.53v-8.26a16.53 16.53 0 1 1 33.05 0v8.26c0 9.13-7.4 16.53-16.52 16.53z"/><circle cx="90.59" cy="173.37" r="8.26" fill="#fff"/><path fill="#ebaf4b" d="M239.32 256c6.54-.87 12.74-1.75 18.85-2.62 10.23-18.98 12.73-38.98 6.68-48.34-2.29-3.55-9.25-14.35-93.9-6.85a8.26 8.26 0 0 0 1.45 16.46c32.17-2.84 70.6-3.42 78.87.1 1.75 5.62-1.26 25.3-15.78 42.93a9.13 9.13 0 0 1 3.83-1.68zm262.98-97.44l-99.42 17.54s.57.02 0 0c14.87.58 25.46 12.94 25.46 23.58 0 9.87-7.62 18.3-18.4 21.78l92.36 16.3c5.06.9 9.7-3 9.7-8.13v-62.94a8.26 8.26 0 0 0-9.7-8.13z"/></svg>