<svg xmlns="http://www.w3.org/2000/svg" width="512px" height="512px"><path fill="#d26437" d="M256 12.73c2.9 0 5.78-.76 8.38-2.3C272.38 5.74 286.1 0 305.55 0c37.32 0 66.06 16.52 66.06 16.52L355.1 33.03c17.75 4.74 27.87 7.57 47.37 17.79 68.57 35.92 101.27 114.34 101.27 114.34h-33.03C512 231.23 512 322.06 512 322.06l-24.77-8.25s0 74.32-33.04 123.87l-24.77-16.52s-24.77 41.3-66.06 66.07l-16.52-16.52s-41.3 33.03-90.84 41.3c-49.55-8.27-90.84-41.3-90.84-41.3l-16.51 16.52c-41.3-24.78-66.07-66.07-66.07-66.07l-24.77 16.52C24.77 388.13 24.77 313.8 24.77 313.8L0 322.07s0-90.84 41.3-156.9H8.25s32.7-78.42 101.27-114.35c19.5-10.22 29.62-13.05 47.37-17.79L140.4 16.52S169.14 0 206.46 0c19.44 0 33.17 5.73 41.16 10.44 2.6 1.53 5.5 2.3 8.38 2.3"/><path fill="#b44632" d="M187.22 91.08s23.88-48.76 64.06-79.1a16.6 16.6 0 0 1-3.66-1.54C239.62 5.73 225.9 0 206.46 0c-37.32 0-66.07 16.52-66.07 16.52l16.51 16.51c-17.75 4.74-27.87 7.57-47.36 17.79C40.97 86.75 8.26 165.16 8.26 165.16h33.03C0 231.23 0 322.06 0 322.06l24.77-8.25s0 74.32 33.04 123.87l24.77-16.52s24.77 41.3 66.07 66.07l16.51-16.52s41.3 33.03 90.84 41.3c0-.01-59.87-24.78-68.78-420.93z"/><path fill="#ebaf4b" d="M410.23 50.11c19.55-3.79 37.46 12.1 35.57 31.91-2.34 24.61-20.42 68-45.2 93.55l-79.57-80.09c30.5-24.2 68.36-41.33 89.2-45.37z"/><path fill="#e18c46" d="M342.6 117.2c25.36-19.38 62.85-44.88 73.23-45.92 11.93-1.2 19.37 15.26 14.7 33.02-4.04 15.42-19.5 43.7-34.87 66.3l-53.05-53.4z"/><path fill="#ebaf4b" d="M101.77 50.11c-19.55-3.79-37.45 12.1-35.57 31.91 2.35 24.61 20.43 68 45.2 93.55l79.57-80.09c-30.49-24.2-68.36-41.33-89.2-45.37z"/><path fill="#e18c46" d="M169.4 117.2c-25.36-19.38-62.85-44.88-73.23-45.92-11.93-1.2-19.37 15.26-14.7 33.02 4.05 15.42 19.5 43.7 34.87 66.3l53.06-53.4z"/><path fill="#ffc850" d="M355.1 99.1c-32.6-25.35-99.1 16.5-99.1 16.5s-66.5-41.86-99.1-16.51c-74.32 57.8-90.83 222.97-82.58 256 6.01 24.03 57.8 66.06 115.62 82.58h132.13c57.8-16.52 109.6-58.55 115.6-82.58 8.27-33.04-8.25-198.2-82.57-256z"/><path fill="#ebaf4b" d="M125.24 403.82c-6.35-39.61 8.65-215.35 61.98-312.74-11.21-.54-21.9 1.47-30.32 8.02-74.32 57.8-90.84 222.96-82.58 256 3.62 14.47 23.9 35.44 52.02 53.45-.42-1.6-.86-3.22-1.1-4.73z"/><path fill="#faebc8" d="M437.68 313.7c-6.01 24.04-57.8 66.07-115.62 82.58H189.94c-57.81-16.51-109.6-58.54-115.62-82.58a52.2 52.2 0 0 1-.95-5.39c-1.63 21.5-1.14 38.4.95 46.79 6.01 24.03 57.8 66.06 115.62 82.58h132.13c57.8-16.52 109.6-58.55 115.6-82.58 2.1-8.39 2.6-25.3.96-46.79a50.7 50.7 0 0 1-.95 5.4z"/><path fill="#f5dcb4" d="M187.46 424.27a55.42 55.42 0 0 0 54.69 46.44h27.7a55.43 55.43 0 0 0 54.64-46.11L256 412.9l-68.55 11.37z"/><path fill="#faebc8" d="M301.42 346.84c-19.16 0-35.92 7.74-45.42 19.36-9.5-11.62-26.26-19.36-45.42-19.36-29.64 0-53.67 18.49-53.67 41.29s24.03 41.29 53.67 41.29c19.16 0 35.92-7.74 45.42-19.36 9.5 11.62 26.27 19.36 45.42 19.36 29.64 0 53.68-18.49 53.68-41.3s-24.03-41.28-53.68-41.28z"/><path fill="#d4af91" d="M298.02 437.41a62.2 62.2 0 0 1-39.3-13.83 4.33 4.33 0 0 0-5.45 0 62.17 62.17 0 0 1-39.29 13.83c-34.85 0-63.2-28.56-63.2-63.66a8.26 8.26 0 1 1 16.51 0c0 26 20.95 47.14 46.7 47.14a45.8 45.8 0 0 0 28.96-10.2 20.75 20.75 0 0 1 26.1 0 45.85 45.85 0 0 0 28.97 10.2c25.75 0 46.7-21.14 46.7-47.14a8.26 8.26 0 1 1 16.5 0c0 35.1-28.35 63.66-63.2 63.66z"/><path fill="#5d5360" d="M211.44 361.27L229 375.89a42.19 42.19 0 0 0 54.03 0l17.54-14.62c7.77-6.48 3.24-19.13-6.88-19.13h-75.36c-10.11 0-14.65 12.65-6.88 19.13z"/><path fill="#ffdc64" d="M256 214.71a8.26 8.26 0 0 1-8.26-8.26v-67.42a8.26 8.26 0 1 1 16.52 0v67.42c0 4.56-3.7 8.26-8.26 8.26z"/><path fill="#4b3f4e" d="M173.42 297.29a24.77 24.77 0 0 1-24.77-24.77v-8.26a24.77 24.77 0 0 1 49.55 0v8.26a24.77 24.77 0 0 1-24.78 24.77z"/><path fill="#5d5360" d="M173.42 239.48v28.9a12.39 12.39 0 0 0 24.77 0v-4.12a24.77 24.77 0 0 0-24.77-24.78z"/><circle cx="173.42" cy="256" r="8.26" fill="#fff"/><path fill="#4b3f4e" d="M338.58 297.29a24.77 24.77 0 0 1-24.77-24.77v-8.26a24.77 24.77 0 0 1 49.55 0v8.26a24.77 24.77 0 0 1-24.78 24.77z"/><path fill="#5d5360" d="M338.58 239.48v28.9a12.39 12.39 0 0 0 24.78 0v-4.12a24.77 24.77 0 0 0-24.78-24.78z"/><circle cx="338.58" cy="256" r="8.26" fill="#fff"/><path fill="#4b3f4e" d="M260.95 374.63l-17.54-20.17c-2.92-3.36-4.1-7.93-3.9-12.32h-21.19c-10.12 0-14.65 12.65-6.88 19.13l17.54 14.62a42.14 42.14 0 0 0 41.9 7.02 42 42 0 0 1-9.93-8.28z"/><path fill="#f5dcb4" d="M74.32 313.7a52.2 52.2 0 0 1-.95-5.39c-1.63 21.5-1.14 38.4.95 46.79 3.62 14.47 23.9 35.44 52.02 53.46-.42-1.62-.86-3.23-1.1-4.74-1.26-7.87-1.66-21.17-1.1-38.1-26.98-17.68-46.3-37.93-49.82-52.02z"/></svg>