<svg xmlns="http://www.w3.org/2000/svg" width="512px" height="512px"><circle cx="421.16" cy="90.84" r="90.84" fill="#c0bcc1"/><circle cx="421.16" cy="90.84" r="57.81" fill="#9c969e"/><circle cx="90.84" cy="90.84" r="90.84" fill="#c0bcc1"/><circle cx="90.84" cy="90.84" r="57.81" fill="#9c969e"/><path fill="#c9c6ca" d="M256 49.55c-132.26 0-239.48 99.82-239.48 222.97 0 70.75 35.39 133.8 90.6 174.65 40.9 30.26 91.23 45 142.11 45.06l13.04.01c50.94.05 101.36-14.63 142.35-44.87 55.35-40.84 90.86-103.99 90.86-174.85 0-123.15-107.22-222.97-239.48-222.97z"/><path fill="#c0bcc1" d="M173.18 453.74c-55.2-42.37-90.6-107.77-90.6-181.16 0-106.46 74.5-196.05 175.86-222.97-.82-.01-1.62-.06-2.44-.06-132.26 0-239.49 99.82-239.49 222.97 0 70.75 35.4 133.8 90.6 174.65 40.9 30.26 91.24 45 142.12 45.06h3.35c-28.49-7.53-55.57-20.2-79.4-38.49z"/><path fill="#dbd9dc" d="M256 512a51.66 51.66 0 0 1-51.61-49.5l-3.79-90.94a55.45 55.45 0 0 1 110.8 0l-3.79 90.93A51.66 51.66 0 0 1 256 512z"/><path fill="#5d5360" d="M256 313.8a55.45 55.45 0 0 0-55.4 57.76l3.06 73.45c13.84 5.68 32.14 9.18 52.34 9.18s38.5-3.5 52.34-9.18l3.06-73.45a55.44 55.44 0 0 0-55.4-57.75z"/><path fill="#4b3f4e" d="M144.52 313.8c-15.9 0-28.9-13-28.9-28.9v-16.5c0-15.9 13-28.9 28.9-28.9 15.9 0 28.9 13 28.9 28.9v16.51c0 15.9-13 28.9-28.9 28.9z"/><path fill="#5d5360" d="M144.52 239.48c-1.42 0-2.77.23-4.13.42v40.87a16.52 16.52 0 0 0 33.03 0V268.4c0-15.9-13-28.9-28.9-28.9z"/><circle cx="144.52" cy="260.13" r="12.39" fill="#fff"/><path fill="#4b3f4e" d="M367.48 313.8c-15.9 0-28.9-13-28.9-28.9v-16.5c0-15.9 13-28.9 28.9-28.9 15.9 0 28.9 13 28.9 28.9v16.51c0 15.9-13 28.9-28.9 28.9z"/><path fill="#5d5360" d="M367.48 239.48c-1.4 0-2.77.23-4.13.42v40.87a16.52 16.52 0 0 0 33.04 0V268.4c0-15.9-13-28.9-28.9-28.9z"/><circle cx="367.48" cy="260.13" r="12.39" fill="#fff"/><path fill="#4b3f4e" d="M328.77 432.86a8.26 8.26 0 0 0-11.52-1.9c-12.86 9.24-36.33 14.98-61.25 14.98-5 0-9.9-.26-14.7-.72a8.18 8.18 0 0 1-7.28-7.86l-2.75-65.8a55.43 55.43 0 0 1 40.07-55.54 53.84 53.84 0 0 0-29.3-.35c-25.74 6.93-42.44 31.96-41.33 58.6l2.56 61.52a55.17 55.17 0 0 1-8.52-4.82 8.26 8.26 0 0 0-9.63 13.42c15.76 11.3 42.25 18.06 70.88 18.06 28.63 0 55.12-6.75 70.88-18.06a8.25 8.25 0 0 0 1.9-11.53z"/></svg>