<svg xmlns="http://www.w3.org/2000/svg" width="512px" height="512px"><path fill="#d26437" d="M439.9 4.17C451-.08 462.94 8.3 462.43 20.2c-4.17 95.8-37.15 178.38-37.15 178.38l-124.56-87.4C350.4 51.39 410.48 15.4 439.9 4.18z"/><path fill="#b44632" d="M342.25 140.32c32.37-52.72 81.2-103.05 96.65-112.03 6.27-3.64 11.77 5.27 10.36 17-7.46 62.49-21 118.6-29.34 149.53l-77.67-54.5z"/><path fill="#d26437" d="M72.1 4.17C61-.08 49.06 8.3 49.57 20.2c4.17 95.8 37.15 178.38 37.15 178.38l124.56-87.4C161.6 51.39 101.5 15.4 72.1 4.18z"/><path fill="#b44632" d="M169.75 140.32C137.38 87.6 88.55 37.27 73.1 28.29c-6.26-3.64-11.77 5.27-10.36 17 7.46 62.49 21 118.6 29.34 149.53l77.67-54.5z"/><g fill="#ebc9a0"><ellipse cx="256" cy="475.92" rx="49.55" ry="33.03"/><path d="M198.2 467.66c-57.81-33.03-153.58-69-153.58-69l9.2-27.57c-3.88-1.84-30.42-2.18-53.82 5.73l24.77-41.29H198.2v132.13zm115.6 0c57.81-33.03 153.58-69 153.58-69l-9.2-27.57c3.88-1.84 30.42-2.18 53.82 5.73l-24.77-41.29H313.8v132.13z"/></g><path fill="#eb874b" d="M256 96.05c120.38 0 223.72 120.6 255.63 278.9l.37 1.87s-60.9-62.97-126.97-29.42c-24.5 12.44-36.13 39.78-36.13 69.65 0 49.52-39.7 76.92-86.73 57.89a16.35 16.35 0 0 0-12.34 0c-47.04 19.03-86.73-8.37-86.73-57.9 0-29.86-11.64-57.2-36.13-69.64C60.9 313.85 0 376.82 0 376.82l.37-1.86C32.28 216.66 135.62 96.05 256 96.05z"/><path fill="#4b3f4e" d="M169.29 327.27c-15.9 0-28.9-13-28.9-28.9v-16.52c0-15.9 13-28.9 28.9-28.9 15.9 0 28.9 13 28.9 28.9v16.52c0 15.9-13 28.9-28.9 28.9z"/><path fill="#5d5360" d="M169.29 252.95c-1.41 0-2.77.22-4.13.42v40.87a16.52 16.52 0 0 0 33.03 0v-12.39c0-15.9-13-28.9-28.9-28.9z"/><circle cx="169.29" cy="273.6" r="12.39" fill="#fff"/><path fill="#4b3f4e" d="M342.71 327.27c-15.9 0-28.9-13-28.9-28.9v-16.52c0-15.9 13-28.9 28.9-28.9 15.9 0 28.9 13 28.9 28.9v16.52c0 15.9-13 28.9-28.9 28.9z"/><path fill="#5d5360" d="M342.71 252.95c-1.41 0-2.77.22-4.13.42v40.87a16.52 16.52 0 0 0 33.03 0v-12.39c0-15.9-13-28.9-28.9-28.9z"/><circle cx="342.71" cy="273.6" r="12.39" fill="#fff"/><path fill="#d26437" d="M247.74 475.7l2.15-.83a16.53 16.53 0 0 1 12.22 0l2.15.83v-32.81h-16.52v32.8z"/><path fill="#5d5360" d="M255.52 393.34c18.51 0 33.51 12.26 33.51 27.39 0 14.58-14.08 22.26-24.24 27.94a18.6 18.6 0 0 1-18.53 0c-10.16-5.68-24.25-13.36-24.25-27.94 0-15.13 15-27.4 33.51-27.4z"/><path fill="#4b3f4e" d="M263.73 447.97c-10.16-7.3-24.25-17.18-24.25-35.94a36.2 36.2 0 0 1 4.27-16.86c-12.68 3.9-21.74 13.83-21.74 25.55 0 14.6 14.09 22.27 24.25 27.95a18.6 18.6 0 0 0 18.52 0l.15-.08c-.4-.24-.81-.34-1.2-.62z"/><path fill="#d26437" d="M256 96.05l-16.06.8C126.52 107.02 30.85 223.75.37 374.95L0 376.83s49.15-50.77 107.04-36.78c7.23-205.67 135.52-244 148.96-244z"/></svg>